<svg width="29" height="29" viewBox="0 0 29 29" fill="none" xmlns="http://www.w3.org/2000/svg">
<path d="M28.3998 14.2624L15.2235 0.317593C15.1287 0.216917 15.016 0.137044 14.8919 0.0825477C14.7679 0.0280511 14.6349 0 14.5006 0C14.3663 0 14.2333 0.0280511 14.1093 0.0825477C13.9852 0.137044 13.8725 0.216917 13.7776 0.317593L0.601393 14.2624C0.217525 14.669 0 15.2212 0 15.7971C0 16.9931 0.918083 17.9654 2.04729 17.9654H3.43562V27.9159C3.43562 28.5155 3.89306 29 4.45926 29H12.4533V21.411H16.0361V29H24.5419C25.1081 29 25.5656 28.5155 25.5656 27.9159V17.9654H26.9539C27.4977 17.9654 28.0191 17.7384 28.403 17.3285C29.1995 16.4815 29.1995 15.1094 28.3998 14.2624Z" fill="#AFAFAF"/>
</svg>
