<svg width="28" height="28" viewBox="0 0 28 28" fill="none" xmlns="http://www.w3.org/2000/svg">
<path d="M13.9995 26.663C14.4894 26.6517 14.9596 26.4675 15.3268 26.143C15.6941 25.8184 15.9347 25.3745 16.0062 24.8896H11.915C11.9885 25.3877 12.2404 25.842 12.6238 26.1682C13.0073 26.4944 13.4961 26.6703 13.9995 26.663Z" fill="#303030"/>
<path d="M25.2854 21.6459C24.5354 20.9772 23.8788 20.2107 23.3332 19.367C22.7376 18.2023 22.3806 16.9304 22.2832 15.6259V11.7836C22.28 11.3169 22.2384 10.8513 22.1587 10.3914C21.5466 10.269 20.9582 10.0484 20.4165 9.73808C20.623 10.403 20.7279 11.0952 20.7276 11.7914V15.6336C20.823 17.225 21.2607 18.777 22.011 20.1836C22.5479 21.0345 23.1851 21.8179 23.9087 22.517H3.98985C4.7135 21.8179 5.35065 21.0345 5.88763 20.1836C6.63788 18.777 7.07563 17.225 7.17096 15.6336V11.7836C7.16687 10.8835 7.34037 9.99141 7.68153 9.15842C8.02268 8.32543 8.5248 7.56792 9.15913 6.92926C9.79345 6.2906 10.5475 5.78334 11.3782 5.43651C12.2088 5.08969 13.0997 4.91012 13.9998 4.90808C15.3172 4.90914 16.605 5.29872 17.7021 6.02808C17.5811 5.58396 17.5132 5.12707 17.4998 4.66697V4.17697C16.6877 3.77747 15.8153 3.51468 14.9176 3.39919V2.41919C14.9176 2.14381 14.8082 1.87971 14.6135 1.68498C14.4188 1.49025 14.1547 1.38086 13.8793 1.38086C13.6039 1.38086 13.3398 1.49025 13.1451 1.68498C12.9504 1.87971 12.841 2.14381 12.841 2.41919V3.43808C10.831 3.72162 8.99141 4.72277 7.66191 6.2567C6.33241 7.79062 5.60275 9.75375 5.60763 11.7836V15.6259C5.51021 16.9304 5.15323 18.2023 4.55763 19.367C4.02165 20.2088 3.37556 20.9752 2.63651 21.6459C2.55355 21.7187 2.48706 21.8085 2.44146 21.909C2.39587 22.0096 2.37221 22.1188 2.37207 22.2292V23.287C2.37207 23.4933 2.45401 23.6911 2.59988 23.8369C2.74574 23.9828 2.94357 24.0648 3.14985 24.0648H24.7721C24.9784 24.0648 25.1762 23.9828 25.322 23.8369C25.4679 23.6911 25.5498 23.4933 25.5498 23.287V22.2292C25.5497 22.1188 25.5261 22.0096 25.4805 21.909C25.4349 21.8085 25.3684 21.7187 25.2854 21.6459Z" fill="#303030"/>
<path d="M23.334 8.55707C25.4818 8.55707 27.2229 6.81596 27.2229 4.66819C27.2229 2.52041 25.4818 0.779297 23.334 0.779297C21.1862 0.779297 19.4451 2.52041 19.4451 4.66819C19.4451 6.81596 21.1862 8.55707 23.334 8.55707Z" fill="#303030"/>
</svg>
