<svg width="377" height="338" viewBox="0 0 377 338" fill="none" xmlns="http://www.w3.org/2000/svg">
<path d="M201.494 213.608C215.293 213.608 226.479 202.422 226.479 188.623C226.479 174.825 215.293 163.638 201.494 163.638C187.695 163.638 176.509 174.825 176.509 188.623C176.509 202.422 187.695 213.608 201.494 213.608Z" fill="#64CAFE"/>
<path d="M202.256 221.531L196.466 211.476L206.521 205.686L202.256 221.531Z" fill="#64CAFE"/>
<path d="M364.739 154.088C387.347 131.48 387.347 94.8254 364.739 72.2174C342.131 49.6094 305.477 49.6094 282.869 72.2174C260.261 94.8254 260.261 131.48 282.869 154.088C305.477 176.696 342.131 176.696 364.739 154.088Z" fill="#F74763"/>
<path d="M278.657 174.455L285.132 148.48L311.107 154.879L278.657 174.455Z" fill="#F74763"/>
<path d="M346.757 119.991C350.543 119.991 353.612 116.922 353.612 113.135C353.612 109.349 350.543 106.28 346.757 106.28C342.97 106.28 339.901 109.349 339.901 113.135C339.901 116.922 342.97 119.991 346.757 119.991Z" fill="white"/>
<path d="M324.514 119.991C328.3 119.991 331.369 116.922 331.369 113.135C331.369 109.349 328.3 106.28 324.514 106.28C320.728 106.28 317.658 109.349 317.658 113.135C317.658 116.922 320.728 119.991 324.514 119.991Z" fill="white"/>
<path d="M302.271 119.991C306.057 119.991 309.126 116.922 309.126 113.135C309.126 109.349 306.057 106.28 302.271 106.28C298.484 106.28 295.415 109.349 295.415 113.135C295.415 116.922 298.484 119.991 302.271 119.991Z" fill="white"/>
<path d="M213.301 271.729L211.549 282.012L272.488 310.349L280.334 293.591L213.301 271.729Z" fill="#FFDAAE"/>
<path d="M208.731 248.039H200.352C199.285 248.039 198.447 248.877 198.447 249.943V269.291C198.447 270.358 199.285 271.196 200.352 271.196H208.731C209.797 271.196 210.635 270.358 210.635 269.291V249.943C210.635 248.877 209.797 248.039 208.731 248.039Z" fill="#0F2E4A"/>
<path d="M202.636 268.149C200.808 273.481 203.627 279.27 208.959 281.098L211.549 282.012L213.301 271.805L202.636 268.149Z" fill="#F5876F"/>
<path d="M256.415 217.874H272.792V214.218C272.792 209.19 268.755 205.153 263.728 205.153H256.415V217.874Z" fill="#0F2E4A"/>
<path d="M242.552 199.212C242.552 207.591 249.407 214.446 257.786 214.446C257.939 214.446 258.091 214.446 258.244 214.446C266.47 214.218 273.021 207.515 273.021 199.212C273.021 198.145 272.869 197.079 272.717 196.012C272.64 195.631 272.564 195.251 272.412 194.946C270.584 188.623 264.718 183.977 257.786 183.977C250.855 183.977 244.989 188.623 243.161 194.946C242.856 196.088 242.628 197.231 242.552 198.45C242.552 198.678 242.552 198.907 242.552 199.212Z" fill="#0F2E4A"/>
<path d="M248.722 218.103C250.855 218.103 252.53 219.778 252.53 221.911V218.103H247.655H248.722Z" fill="#F5876F"/>
<path d="M298.158 274.166C298.463 274.624 298.387 275.233 298.311 275.766C298.235 276.299 298.158 276.833 298.006 277.442C297.778 278.508 297.244 280.108 296.787 281.555C295.797 284.526 294.654 287.497 293.512 290.391C292.674 292.601 291.76 294.81 290.846 297.019C290.16 298.618 289.551 300.294 288.865 301.894C288.027 303.95 287.189 305.931 286.275 307.911L294.121 312.71C295.645 310.197 297.168 307.683 298.616 305.169C299.53 303.646 300.444 302.122 301.282 300.523C302.12 299.075 302.957 297.552 303.795 296.028C305.395 293.21 306.918 290.391 308.442 287.345C308.823 286.583 309.204 285.821 309.585 284.983L309.889 284.374L310.346 283.46C310.651 282.774 310.956 282.089 311.184 281.403C311.489 280.641 311.717 279.956 311.946 279.194C312.022 278.813 312.174 278.432 312.251 278.051L312.479 276.909C312.555 276.528 312.555 276.147 312.631 275.766C312.631 275.385 312.708 275.004 312.708 274.624V273.481V273.176V273.024C312.86 273.024 312.708 273.024 312.784 273.024V272.872L312.708 272.338C312.479 271.5 312.327 270.662 312.022 269.825C311.87 269.444 311.794 268.987 311.565 268.606L310.956 267.387C310.575 266.549 310.118 265.787 309.661 265.026C309.204 264.264 308.67 263.35 308.442 263.045C307.375 261.369 306.309 259.77 305.243 258.17C303.11 255.047 301.053 252 298.92 249.029C294.654 243.088 290.313 237.146 285.971 231.357C282.771 227.015 276.068 226.634 271.041 230.443L265.861 238.593C272.107 244.84 275.306 249.334 281.4 255.656C284.447 258.856 287.494 262.055 290.465 265.33C291.912 266.93 293.436 268.606 294.807 270.205L295.873 271.424L296.635 272.186C297.244 272.872 297.778 273.481 298.158 274.166Z" fill="#FFDAAE"/>
<path d="M233.715 235.775V319.49H286.123V235.775C286.123 232.728 284.904 229.909 282.924 227.853C280.867 225.72 277.896 224.349 274.697 224.349H245.141C242.247 224.349 239.581 225.415 237.6 227.167C235.239 229.376 233.715 232.423 233.715 235.775Z" fill="#FFDAAE"/>
<path d="M247.579 218.255H251.464C260.986 218.255 268.756 210.485 268.756 200.964V200.126C268.756 193.422 263.347 188.014 256.644 188.014H254.511C247.808 188.014 242.399 193.422 242.399 200.126V213.151C242.476 215.97 244.761 218.255 247.579 218.255Z" fill="#F5876F"/>
<path d="M252.53 211.856V228.919L264.642 224.349V211.856H252.53Z" fill="#F5876F"/>
<path d="M240.876 210.104H242.476V204.849L240.114 208.733C239.733 209.343 240.19 210.104 240.876 210.104Z" fill="#F5876F"/>
<path d="M254.13 204.163H260.834V193.879H249.408V199.44C249.484 202.03 251.541 204.163 254.13 204.163Z" fill="#0F2E4A"/>
<path d="M258.32 199.212C258.32 199.212 258.472 216.046 264.642 216.427C273.478 208.276 273.021 199.212 273.021 199.212H258.32Z" fill="#0F2E4A"/>
<path d="M242.552 199.973H272.64V196.012C272.564 195.631 272.488 195.251 272.336 194.946C270.507 188.623 264.642 183.977 257.71 183.977C250.779 183.977 244.913 188.623 243.085 194.946C242.78 196.012 242.628 197.231 242.552 199.973Z" fill="#0F2E4A"/>
<path d="M253.492 207.497H256.082V202.393H253.492V207.497Z" fill="#0F2E4A"/>
<path d="M255.349 211.018H258.32C259.92 211.018 261.291 209.723 261.291 208.048V205.762C261.291 204.163 259.996 202.792 258.32 202.792C256.72 202.792 255.349 204.087 255.349 205.762V211.018Z" fill="#F5876F"/>
<path d="M286.123 319.49H259.538L263.347 337.924H287.875L286.123 319.49Z" fill="#0F2E4A"/>
<path d="M260.453 319.49H233.868L235.925 337.924H260.453V319.49Z" fill="#0F2E4A"/>
<path d="M280.638 316.443L281.781 316.976C287.189 319.337 293.512 316.824 295.797 311.415L297.625 307.226L296.482 306.693C291.074 304.331 284.752 306.845 282.466 312.253L280.638 316.443Z" fill="#F5876F"/>
<path d="M287.57 334.801L287.037 329.316L286.123 319.49L233.715 310.044V337.924H287.875L287.57 334.801Z" fill="#FFDAAE"/>
<path d="M246.437 193.651H249.484V200.202H242.476V197.612C242.476 195.403 244.228 193.651 246.437 193.651Z" fill="#F5876F"/>
<path d="M241.18 212.847H246.741C246.741 211.323 245.522 210.104 243.999 210.104H241.18V212.847Z" fill="#0F2E4A"/>
<path d="M255.806 225.263H252.53V338H255.806V225.263Z" fill="#F74763"/>
<path d="M252.53 225.263V228.919L264.642 224.349V220.159L252.53 225.263Z" fill="#F74763"/>
<path d="M248.95 199.059H258.929V187.024H244.304C242.247 187.024 240.571 188.7 240.571 190.756C240.571 195.327 244.304 199.059 248.95 199.059Z" fill="#0F2E4A"/>
<path d="M183.826 64.8768C194.513 59.7155 198.992 46.868 193.831 36.1811C188.67 25.4941 175.822 21.0148 165.135 26.176C154.449 31.3373 149.969 44.1848 155.13 54.8717C160.292 65.5586 173.139 70.038 183.826 64.8768Z" fill="#FFDAAE"/>
<path d="M155.682 66.6494L158.94 57.2521L168.337 60.5098L155.682 66.6494Z" fill="#FFDAAE"/>
<path d="M196.179 99.4887C201.56 95.4767 202.67 87.862 198.658 82.4807C194.646 77.0994 187.031 75.9893 181.65 80.0013C176.269 84.0133 175.159 91.628 179.171 97.0093C183.183 102.391 190.797 103.501 196.179 99.4887Z" fill="#F74763"/>
<path d="M173.85 84.6295L179.488 84.2536L179.802 89.892L173.85 84.6295Z" fill="#F74763"/>
<path d="M125.808 56.9144C137.654 49.1737 140.982 33.2954 133.242 21.4493C125.501 9.60318 109.622 6.27518 97.7763 14.016C85.9303 21.7567 82.6023 37.635 90.3431 49.4811C98.0839 61.3272 113.962 64.6552 125.808 56.9144Z" fill="#64CAFE"/>
<path d="M131.812 62.6398L128.993 51.1125L117.466 53.9317L131.812 62.6398Z" fill="#64CAFE"/>
<path d="M101.678 38.5201C103.374 38.5201 104.748 37.1457 104.748 35.4503C104.748 33.7549 103.374 32.3806 101.678 32.3806C99.9828 32.3806 98.6084 33.7549 98.6084 35.4503C98.6084 37.1457 99.9828 38.5201 101.678 38.5201Z" fill="white"/>
<path d="M114.584 35.4503C114.584 37.1418 113.206 38.5201 111.514 38.5201C109.823 38.5201 108.444 37.1418 108.444 35.4503C108.444 33.7588 109.823 32.3806 111.514 32.3806C113.206 32.3806 114.584 33.8215 114.584 35.4503Z" fill="white"/>
<path d="M121.413 38.5201C123.108 38.5201 124.482 37.1457 124.482 35.4503C124.482 33.7549 123.108 32.3806 121.413 32.3806C119.717 32.3806 118.343 33.7549 118.343 35.4503C118.343 37.1457 119.717 38.5201 121.413 38.5201Z" fill="white"/>
<path d="M48.1143 219.449H80.0024L78.8747 225.714H48.1143V219.449Z" fill="#F5876F"/>
<path d="M19.1705 219.449H50.9333L48.8033 225.714H18.1055L19.1705 219.449Z" fill="#F5876F"/>
<path d="M67.5352 139.823L80.0022 151.225L85.4526 156.174L99.8618 149.533L79.7516 122.532L75.053 116.267L71.7326 126.667L67.5352 139.823Z" fill="#BD5685"/>
<path d="M80.0022 132.054V219.449H19.1704V132.054C19.1704 124.286 22.3654 117.269 27.5026 112.383C27.7532 112.132 28.0038 111.944 28.1917 111.694C31.1362 109.062 34.6446 107.12 38.4661 106.055C40.2829 105.554 42.1624 105.241 44.1045 105.116C44.4804 105.116 44.9189 105.116 45.2948 105.116H53.8777C55.3812 105.116 56.8221 105.241 58.2631 105.491C58.3884 105.491 58.5764 105.554 58.7016 105.554C58.8896 105.554 59.1402 105.617 59.3281 105.679C61.6461 106.181 63.7761 106.995 65.7809 108.06C67.0339 108.749 68.2869 109.501 69.4145 110.378C70.7928 111.443 72.0458 112.633 73.2361 113.886C73.8626 114.638 74.4891 115.39 75.0529 116.142C76.6191 118.397 77.8721 120.903 78.7492 123.534C79.5636 126.291 80.0022 129.11 80.0022 132.054Z" fill="#BD5685"/>
<path d="M80.0022 165.634H52.3115V209.613H80.0022V165.634Z" fill="#F5876F"/>
<path d="M80.0026 165.634H55.4443V173.215H80.0026V165.634Z" fill="#FFDAAE"/>
<path d="M80.0026 202.033H55.4443V209.613H80.0026V202.033Z" fill="#FFDAAE"/>
<path d="M73.236 113.949C69.7277 122.72 61.1449 128.922 51.1211 128.922C40.2829 128.922 31.0736 121.655 28.2544 111.694C31.1989 109.062 34.7071 107.12 38.5287 106.055C40.3455 105.554 42.225 105.241 44.1671 105.116C44.543 105.116 44.9815 105.116 45.3574 105.116H53.9403C55.4439 105.116 56.8848 105.241 58.3257 105.491C58.451 105.491 58.6389 105.554 58.7642 105.554C58.9522 105.554 59.2028 105.617 59.3907 105.679C61.7087 106.181 63.8388 106.995 65.8435 108.06C67.0965 108.749 68.3494 109.501 69.4771 110.378C70.7927 111.443 72.1084 112.633 73.236 113.949Z" fill="#F5876F"/>
<path d="M55.5693 112.32L42.2251 105.366V90.769H55.5693V112.32Z" fill="#F5876F"/>
<path d="M19.2334 217.57H80.0026V225.714H17.7925L19.2334 217.57Z" fill="#BD5685"/>
<path d="M19.1704 208.047V152.666C19.1704 152.666 38.7794 146.213 50.1815 130.175C61.5835 114.137 60.0173 105.805 60.0173 105.805C70.417 107.246 73.2361 113.949 73.2361 113.949C73.2361 113.949 79.7516 146.839 56.8849 206.606C54.3789 213.122 51.8103 219.512 49.1164 225.714H17.7295C18.7319 219.7 19.2331 214.5 19.1704 208.047Z" fill="#FFDAAE"/>
<path d="M51.1213 201.093C73.988 141.264 67.4726 108.436 67.4726 108.436C67.4726 108.436 67.4099 108.311 67.3472 108.123C71.8579 110.566 73.2362 113.949 73.2362 113.949C73.2362 113.949 79.7517 146.777 56.8849 206.606C54.379 213.122 51.8104 219.512 49.1165 225.714H40.9722C44.4178 217.82 47.8636 209.613 51.1213 201.093Z" fill="white"/>
<path d="M21.2381 121.655L0.501465 168.954H19.484L21.2381 121.655Z" fill="#BD5685"/>
<path d="M46.2974 178.414L47.9263 168.766L0.563965 169.017L0.814574 173.966C1.19047 180.92 7.45531 186.057 14.3467 184.992L46.2974 178.414Z" fill="#F5876F"/>
<path d="M37.7145 168.766H27.5654V182.236L40.847 179.479L37.7145 168.766Z" fill="white"/>
<path d="M0 183.552C0 175.407 6.64077 168.766 14.7851 168.766H30.3219V225.714H0V183.552Z" fill="#BD5685"/>
<path d="M51.1212 179.918L42.7889 180.043C38.8421 180.106 35.5844 176.911 35.5844 173.027V172.776C35.5217 170.207 37.6518 168.077 40.2204 168.015L46.2972 167.952C48.8658 167.889 50.9959 170.019 51.0585 172.588L51.1212 179.918Z" fill="#F5876F"/>
<path d="M59.9551 98.0363C57.4491 98.0363 55.4443 100.041 55.4443 102.547V98.0363H61.1454H59.9551Z" fill="#F5876F"/>
<path d="M36.3364 76.861V77.8634C36.3364 80.3067 36.775 82.6873 37.5894 84.8174C40.4086 92.6485 47.9264 98.2242 56.6972 98.2242H61.3332C64.6536 98.2242 67.3475 95.5303 67.3475 92.2099V76.861C67.3475 74.9189 66.9716 73.1021 66.2825 71.4106C64.1524 66.2734 59.0779 62.5771 53.1263 62.5771H50.6203C42.664 62.5771 36.3364 68.9673 36.3364 76.861Z" fill="#F5876F"/>
<path d="M49.1565 92.4297C53.3646 88.2216 53.3646 81.399 49.1565 77.1909C44.9484 72.9828 38.1258 72.9828 33.9177 77.1909C29.7096 81.3989 29.7097 88.2216 33.9177 92.4296C38.1258 96.6377 44.9484 96.6377 49.1565 92.4297Z" fill="#0F2E4A"/>
<path d="M68.6003 89.4534H67.2847V85.1307L69.2268 88.3257C69.54 88.8269 69.1641 89.4534 68.6003 89.4534Z" fill="#F5876F"/>
<path d="M36.3364 76.861V77.8634C36.3364 80.3067 36.775 82.6873 37.5894 84.8174H48.7409C57.1358 84.8174 64.1524 79.1164 66.2825 71.4106C64.1524 66.2734 59.0779 62.5771 53.1263 62.5771H50.6203C42.664 62.5771 36.3364 68.9673 36.3364 76.861Z" fill="#0F2E4A"/>
<path d="M55.0683 87.8246C55.0683 90.2052 53.1262 92.1473 50.7455 92.1473C48.3649 92.1473 46.4229 90.2052 46.4229 87.8246C46.4229 85.4439 48.3649 83.5018 50.7455 83.5018C53.1262 83.5018 55.0683 85.4439 55.0683 87.8246Z" fill="#FFDAAE"/>
<path d="M126.049 133.057L120.912 124.725L85.5156 156.174L88.9613 159.745C93.8479 164.757 101.93 164.444 106.378 159.056L126.049 133.057Z" fill="#F5876F"/>
<path d="M120.474 125.226L111.828 132.806L119.283 142.016L126.049 133.057L120.474 125.226Z" fill="#FFDAAE"/>
<path d="M133.442 127.481L127.24 133.057C124.295 135.688 119.784 135.5 117.153 132.556L117.028 132.368C115.274 130.426 115.462 127.481 117.341 125.727L119.221 124.035C122.604 120.966 127.803 121.279 130.811 124.599L133.442 127.481Z" fill="#F5876F"/>
<path d="M20.1105 152.353L9.83612 147.654L0.501465 168.954H19.484L20.1105 152.353Z" fill="#F5876F"/>
<path d="M80.0024 151.225L88.9611 134.874L97.1055 145.837L85.4528 156.174L80.0024 151.225Z" fill="#F5876F"/>
<path d="M83.7613 120.089H132.063C132.878 120.089 133.504 120.715 133.504 121.529C133.504 122.344 132.878 122.97 132.063 122.97H83.7613C82.9469 122.97 82.3204 122.344 82.3204 121.529C82.2577 120.715 82.9469 120.089 83.7613 120.089Z" fill="white"/>
<path d="M118.844 123.033H161.884C163.575 123.033 164.954 121.655 164.954 119.963V76.4851C164.954 74.7936 163.575 73.4153 161.884 73.4153H118.844C117.153 73.4153 115.774 74.7936 115.774 76.4851V119.963C115.774 121.655 117.153 123.033 118.844 123.033Z" fill="#BD5685"/>
</svg>
