<svg width="398" height="208" viewBox="0 0 398 208" fill="none" xmlns="http://www.w3.org/2000/svg">
<g clip-path="url(#clip0_36_2039)">
<path d="M395.534 34.2662C395.534 34.2662 390.718 31.3487 385.443 42.7327C380.167 54.1166 378.218 60.6381 378.218 60.6381C378.218 60.6381 376.784 63.0407 375.121 61.5534C373.458 60.066 371.107 55.8328 368.355 56.6909C365.545 57.6062 364.743 60.8097 365.431 65.4434C366.119 70.077 367.323 80.2596 367.438 81.1749C367.552 82.0902 367.094 83.4632 365.775 82.6051C364.456 81.8042 356.887 73.967 353.389 77.7426C349.891 81.5754 353.963 94.1034 354.421 95.4764C354.823 96.8493 354.593 97.4786 353.963 97.8218C353.332 98.165 351.038 95.3047 348.745 93.1881C346.508 91.0715 343.527 88.9549 341.692 91.3575C339.857 93.703 339.57 103.256 349.203 118.416L354.135 125.166L362.506 124.422C380.282 121.677 387.335 115.212 387.908 112.295C388.482 109.377 384.926 108.519 381.887 108.233C378.791 107.947 375.121 108.119 374.949 107.375C374.777 106.631 375.064 106.059 376.383 105.487C377.702 104.915 389.858 99.7096 390.431 94.5611C391.005 89.4126 380.11 88.8977 378.619 88.4401C377.128 87.9824 377.874 86.7811 378.619 86.2662C379.364 85.7514 387.851 79.9164 391.807 77.3993C395.764 74.8823 397.656 72.1936 396.452 69.4478C395.305 66.8163 390.546 67.846 388.367 67.56C386.188 67.2739 387.048 64.6425 387.048 64.6425C387.048 64.6425 390.718 58.9219 395.764 47.4236C400.867 35.9824 395.362 34.2662 395.362 34.2662" fill="#F5F5F5"/>
<path d="M390.718 44.4489C390.718 44.4489 390.718 44.5061 390.603 44.6777C390.546 44.8493 390.431 45.0781 390.317 45.3641C390.03 45.9934 389.628 46.9087 389.112 48.11C388.08 50.4555 386.589 53.8878 384.697 58.0638C380.913 66.4731 375.637 78.0286 369.731 90.7855C363.825 103.542 358.493 115.098 354.651 123.507C352.759 127.683 351.21 131.058 350.121 133.461C349.605 134.605 349.203 135.52 348.917 136.15C348.802 136.436 348.687 136.664 348.573 136.836C348.515 137.008 348.458 137.065 348.458 137.065C348.458 137.065 348.458 137.008 348.573 136.836C348.63 136.664 348.745 136.436 348.859 136.15C349.146 135.52 349.547 134.605 350.064 133.404C351.096 131.058 352.587 127.626 354.479 123.45C358.263 115.041 363.539 103.485 369.445 90.7283C375.351 77.9714 380.683 66.4159 384.525 58.0066C386.417 53.8306 387.966 50.4555 389.055 48.0528C389.571 46.9087 389.972 45.9934 390.259 45.3641C390.374 45.0781 390.489 44.8493 390.603 44.6777C390.718 44.5061 390.718 44.4489 390.718 44.4489Z" fill="#E0E0E0"/>
<path d="M371.394 62.7547C371.394 62.7547 371.509 62.9263 371.623 63.3268C371.738 63.67 371.91 64.2421 372.139 64.8713C372.541 66.187 373.114 68.0176 373.688 70.077C374.204 72.0792 374.72 73.9098 375.121 75.2828C375.293 75.912 375.465 76.4269 375.58 76.8845C375.695 77.285 375.752 77.4566 375.695 77.4566C375.695 77.4566 375.58 77.285 375.465 76.8845C375.351 76.5413 375.179 75.9692 374.949 75.34C374.548 74.0242 374.032 72.1936 373.458 70.1342C372.885 68.132 372.369 66.3015 372.025 64.9285C371.853 64.2993 371.681 63.7844 371.566 63.3268C371.451 62.9835 371.394 62.7547 371.394 62.7547Z" fill="#E0E0E0"/>
<path d="M376.497 77.571C376.497 77.5138 380.224 76.198 384.869 74.7107C389.514 73.2234 393.298 72.022 393.298 72.0792C393.298 72.1364 389.571 73.4522 384.926 74.9395C380.282 76.4841 376.497 77.6282 376.497 77.571Z" fill="#E0E0E0"/>
<path d="M366.52 96.7349C366.52 96.7349 366.75 96.6777 367.151 96.6777C367.61 96.6777 368.183 96.6205 368.814 96.6205C370.247 96.5632 372.197 96.506 374.319 96.3344C376.497 96.1628 378.39 95.9912 379.823 95.8196C380.454 95.7624 381.027 95.7052 381.486 95.648C381.887 95.5908 382.117 95.5908 382.117 95.5908C382.117 95.5908 381.888 95.648 381.543 95.7624C381.142 95.8196 380.569 95.934 379.881 96.0484C378.504 96.2772 376.555 96.506 374.376 96.6777C372.197 96.8493 370.247 96.9065 368.814 96.9065C368.126 96.9065 367.552 96.9065 367.151 96.8493C366.75 96.7921 366.52 96.7349 366.52 96.7349Z" fill="#E0E0E0"/>
<path d="M359.009 84.3784C359.009 84.3784 359.123 84.5501 359.353 84.8361C359.582 85.1221 359.869 85.5798 360.213 86.1518C360.901 87.2387 361.876 88.7833 362.965 90.4423C363.997 92.1584 364.972 93.6458 365.66 94.7899C366.004 95.3619 366.291 95.8196 366.463 96.1056C366.635 96.4489 366.75 96.6205 366.692 96.6205C366.692 96.6205 366.578 96.4489 366.348 96.1628C366.119 95.8768 365.832 95.4192 365.488 94.8471C364.8 93.7602 363.825 92.2156 362.736 90.5567C361.704 88.8405 360.729 87.3531 360.041 86.209C359.697 85.637 359.41 85.1793 359.238 84.8933C359.066 84.5501 358.951 84.3784 359.009 84.3784Z" fill="#E0E0E0"/>
<path d="M348.057 100.167C348.057 100.167 348.229 100.339 348.515 100.739C348.802 101.197 349.203 101.712 349.605 102.398C350.522 103.771 351.784 105.716 353.16 107.89C354.536 110.064 355.74 112.009 356.658 113.439C357.059 114.125 357.403 114.697 357.69 115.155C357.919 115.556 358.034 115.784 358.034 115.784C358.034 115.784 357.862 115.613 357.575 115.212C357.288 114.755 356.887 114.24 356.486 113.553C355.568 112.18 354.307 110.235 352.931 108.062C351.554 105.888 350.35 103.943 349.433 102.513C349.031 101.826 348.687 101.254 348.401 100.796C348.171 100.396 348.057 100.224 348.057 100.167Z" fill="#E0E0E0"/>
<path d="M357.862 115.327C357.862 115.327 358.149 115.27 358.665 115.212C359.238 115.155 359.926 115.098 360.786 115.041C362.564 114.926 365.029 114.755 367.782 114.469C370.534 114.183 372.942 113.897 374.72 113.668C375.58 113.553 376.268 113.439 376.842 113.382C377.358 113.325 377.644 113.267 377.644 113.325C377.644 113.325 377.358 113.382 376.899 113.496C376.383 113.611 375.695 113.725 374.777 113.839C373 114.125 370.534 114.469 367.839 114.755C365.087 115.041 362.621 115.212 360.844 115.27C359.926 115.327 359.238 115.327 358.722 115.327C358.149 115.384 357.862 115.384 357.862 115.327Z" fill="#E0E0E0"/>
<path d="M54.072 90.6139C67.4324 81.6898 70.7008 64.8713 70.4141 49.6546C70.3567 47.1375 70.7008 44.4489 69.4966 42.2178C68.2925 39.9868 65.4828 38.385 63.1318 39.472C61.1823 40.33 60.3221 42.5039 59.2327 44.2772C57.7992 46.6799 55.6202 48.6249 53.0972 49.8834C51.4344 50.6843 49.4275 51.1991 47.8219 50.2838C45.643 49.0253 45.4136 45.9934 45.471 43.4764C45.5857 38.7855 45.7003 34.0946 45.7577 29.4037C45.815 26.8867 45.8724 24.3124 45.1269 21.9098C44.3815 19.5072 42.6613 17.2761 40.1956 16.5325C37.7873 15.846 34.7483 17.1617 34.1749 19.6216C33.9455 20.6513 34.1176 21.7382 34.0602 22.7679C33.9455 23.7976 33.4868 24.9417 32.4547 25.2277C31.4226 25.5138 30.3904 24.7701 29.645 24.0264C27.0647 21.4522 25.2871 18.1342 23.6816 14.8735C22.0761 11.6128 20.4705 8.23763 18.1196 5.43455C15.7686 2.51706 12.5002 0.286037 8.83043 8.43965e-06C5.16064 -0.228814 1.26149 1.945 0.229362 5.49176C-0.745425 9.03851 1.31883 12.6425 3.55511 15.56C6.88085 19.8504 10.8373 23.6832 15.3099 26.8867C16.1127 27.4588 16.9728 28.088 17.2595 29.0033C17.7755 30.7195 16.17 32.3212 14.4498 32.8933C12.5576 33.4654 10.436 33.2365 8.48639 33.4654C6.47947 33.6942 4.30053 34.4951 3.49777 36.3256C2.4083 38.8999 4.5299 41.6458 6.65149 43.4764C10.8947 47.0803 15.7686 49.9406 21.0439 51.9428C22.9362 52.6293 24.8858 53.2585 26.3766 54.5743C27.8675 55.89 28.7849 58.1782 27.8101 59.9516C26.8353 61.725 24.4844 62.2398 22.5348 61.8394C20.5852 61.4389 18.8077 60.352 16.9728 59.6656C13.475 58.2926 8.94511 58.4643 6.65149 61.439C5.16064 63.3839 4.98862 66.1298 5.6767 68.4753C6.36479 70.8207 7.85564 72.8801 9.46117 74.7679C15.0232 81.3465 22.1334 86.7239 30.2758 89.6414C38.3608 92.5016 45.8724 93.4169 54.072 90.6139Z" fill="#EBEBEB"/>
<path d="M52.9827 90.8999C50.8037 83.1771 44.955 65.1001 41.3999 56.5765C40.5398 54.4599 39.6223 52.3432 38.7622 50.2838C37.9021 48.2244 37.042 46.165 36.0672 44.22C34.175 40.33 31.9961 36.6689 29.8745 33.2937C27.7529 29.9186 25.5739 26.7723 23.567 23.912C21.5028 20.9945 19.5532 18.363 17.6609 15.9604C13.8765 11.2123 10.436 7.77999 7.91307 5.49176C6.65158 4.34765 5.67679 3.48956 4.9887 2.9175C4.702 2.63147 4.47264 2.40265 4.30062 2.28824C4.1286 2.11662 4.01392 2.05942 4.01392 2.05942C4.01392 2.05942 4.07126 2.17383 4.24328 2.28824C4.4153 2.45986 4.702 2.68868 4.9887 2.97471C5.67679 3.54677 6.65158 4.46206 7.85573 5.60617C10.3214 7.8944 13.7618 11.384 17.4889 16.132C19.3812 18.4775 21.2734 21.1661 23.3376 24.0836C25.3446 27.0011 27.5235 30.1474 29.6451 33.5226C31.7667 36.8977 33.8883 40.5017 35.7805 44.3917C36.7553 46.3366 37.6154 48.3388 38.4755 50.4555C39.3356 52.5149 40.1957 54.6315 41.1132 56.7481C44.6109 65.2717 50.517 83.3487 52.696 91.0143" fill="#E0E0E0"/>
<path d="M36.0672 44.1628C36.0672 44.1628 36.1819 43.7624 36.2966 43.0759C36.4112 42.3895 36.5833 41.3598 36.8126 40.1012C37.214 37.5842 37.6154 34.0946 38.0741 30.2618C38.5328 26.4291 39.0489 22.9395 39.4503 20.4797C39.6797 19.2211 39.8517 18.2486 40.0237 17.505C40.1384 16.8185 40.2531 16.4181 40.1957 16.4181C40.1957 16.4181 40.081 16.7613 39.8517 17.4478C39.6797 18.1342 39.4503 19.1067 39.1636 20.3653C38.6475 22.8251 38.1315 26.3146 37.6727 30.1474C37.214 33.9802 36.8126 37.4126 36.5259 39.9868C36.3539 41.1881 36.2392 42.2178 36.1245 42.9615C36.0672 43.7624 36.0099 44.1628 36.0672 44.1628Z" fill="#E0E0E0"/>
<path d="M3.21118 37.6414C3.21118 37.6414 3.32586 37.6986 3.55522 37.6986C3.84193 37.6986 4.12863 37.7558 4.53001 37.813C5.39012 37.8702 6.59427 37.9846 8.08512 38.2134C11.1242 38.5567 15.2527 39.2431 19.7826 40.1012C24.3125 41.0165 28.3836 42.0462 31.308 42.8471C32.7989 43.2476 33.9457 43.5908 34.7484 43.8196C35.0925 43.934 35.4365 43.9912 35.6659 44.1056C35.8952 44.1628 36.0099 44.1628 36.0099 44.1628C36.0099 44.1628 35.8952 44.1056 35.7232 43.9912C35.4939 43.8768 35.1498 43.7624 34.8058 43.648C34.003 43.362 32.8562 42.9615 31.3653 42.5039C28.441 41.6458 24.3698 40.5589 19.8399 39.6436C15.31 38.7283 11.1242 38.099 8.08512 37.813C6.59427 37.6414 5.33278 37.5842 4.47267 37.527C4.07129 37.527 3.78459 37.527 3.49788 37.527C3.32586 37.5842 3.21118 37.5842 3.21118 37.6414Z" fill="#E0E0E0"/>
<path d="M49.8289 80.4313C49.8289 80.4313 49.9435 80.3169 50.0582 80.0308C50.2302 79.7448 50.4023 79.3444 50.6316 78.8867C51.1477 77.857 51.8358 76.3697 52.6385 74.5391C54.3014 70.8207 56.3657 65.6722 58.6593 59.9516C60.8956 54.2311 62.9598 49.0253 64.5653 45.307C65.3681 43.4764 65.9989 41.989 66.4576 40.9021C66.6869 40.3873 66.859 40.044 66.9736 39.7008C67.0883 39.4148 67.1457 39.3004 67.1457 39.3004C67.1457 39.3004 67.031 39.4148 66.9163 39.7008C66.7443 39.9868 66.5723 40.3873 66.3429 40.8449C65.8268 41.8746 65.1961 43.362 64.336 45.1925C62.6731 48.9109 60.6089 54.0594 58.3152 59.78C56.079 65.5006 54.0147 70.7063 52.4092 74.4247C51.6064 76.2553 50.9757 77.7426 50.5169 78.8295C50.2876 79.3444 50.1156 79.6876 50.0009 80.0308C49.8862 80.2596 49.8289 80.4313 49.8289 80.4313Z" fill="#E0E0E0"/>
<path d="M6.30737 65.901C6.30737 65.901 6.47939 65.9582 6.7661 66.0726C7.11014 66.187 7.51152 66.3014 8.02759 66.5302C9.1744 66.9307 10.7799 67.4455 12.6722 68.0748C16.6287 69.3905 22.0187 71.2783 27.9821 73.3377C33.9455 75.4543 39.3928 77.2849 43.3493 78.5435C45.3562 79.1727 46.9618 79.6876 48.0512 79.9736C48.5673 80.1452 49.026 80.2596 49.3127 80.3168C49.5994 80.374 49.7714 80.4312 49.7714 80.4312C49.7714 80.4312 49.5994 80.374 49.3127 80.2596C48.9687 80.1452 48.5673 80.0308 48.0512 79.802C46.9044 79.4015 45.2989 78.8867 43.4066 78.2574C39.4501 76.9417 34.0601 75.0539 28.0394 72.9373C22.076 70.8207 16.6287 68.9901 12.6722 67.7316C10.6652 67.1023 9.05971 66.5875 7.97025 66.3014C7.45418 66.1298 6.99546 66.0154 6.70876 65.9582C6.42205 65.901 6.30737 65.8438 6.30737 65.901Z" fill="#E0E0E0"/>
<path d="M274.202 2.45984H328.159H346.508L332.345 12.4708V20.8229C332.345 29.3465 325.292 36.3256 316.577 36.3256H271.22C262.505 36.3256 255.452 29.4037 255.452 20.8229C255.509 10.6975 263.881 2.45984 274.202 2.45984Z" fill="#F5F5F5"/>
<path d="M320.189 13.6722C320.189 13.7294 308.148 13.8438 293.239 13.8438C278.331 13.8438 266.289 13.7866 266.289 13.6722C266.289 13.615 278.331 13.5005 293.239 13.5005C308.09 13.5005 320.189 13.5578 320.189 13.6722Z" fill="#E0E0E0"/>
<path d="M320.189 19.2211C320.189 19.2783 308.148 19.3927 293.239 19.3927C278.331 19.3927 266.289 19.3355 266.289 19.2211C266.289 19.1639 278.331 19.0495 293.239 19.0495C308.09 19.1067 320.189 19.1639 320.189 19.2211Z" fill="#E0E0E0"/>
<path d="M164.567 174.134H97.0774H79.0151L92.9489 184.145V203.881C92.9489 206.169 94.7838 208 97.0774 208H164.567C166.861 208 168.696 206.169 168.696 203.881V178.253C168.696 175.965 166.861 174.134 164.567 174.134Z" fill="#F5F5F5"/>
<path d="M160.955 188.035C160.955 188.092 148.053 188.207 132.17 188.207C116.229 188.207 103.327 188.15 103.327 188.035C103.327 187.978 116.229 187.864 132.17 187.864C148.053 187.921 160.955 187.978 160.955 188.035Z" fill="#E0E0E0"/>
<path d="M160.955 195.644C160.955 195.701 148.053 195.815 132.17 195.815C116.229 195.815 103.327 195.758 103.327 195.644C103.327 195.586 116.229 195.472 132.17 195.472C148.053 195.472 160.955 195.529 160.955 195.644Z" fill="#E0E0E0"/>
<path d="M339.226 202.508H239.11C226.839 202.508 216.862 192.554 216.862 180.312V99.0231C216.862 86.7811 226.839 76.8273 239.11 76.8273H339.226C351.497 76.8273 361.474 86.7811 361.474 99.0231V180.312C361.417 192.554 351.497 202.508 339.226 202.508Z" fill="#E5BFCE"/>
<g opacity="0.4">
<path d="M339.226 202.508H239.11C226.839 202.508 216.862 192.554 216.862 180.312V99.0231C216.862 86.7811 226.839 76.8273 239.11 76.8273H339.226C351.497 76.8273 361.474 86.7811 361.474 99.0231V180.312C361.417 192.554 351.497 202.508 339.226 202.508Z" fill="black"/>
</g>
<path d="M361.417 120.647H383.034L360.901 142.728L361.417 120.647Z" fill="#E5BFCE"/>
<g opacity="0.4">
<path d="M361.417 120.647H383.034L360.901 142.728L361.417 120.647Z" fill="black"/>
</g>
<path d="M170.244 27.6876H67.7764C55.3335 27.6876 45.1842 37.7558 45.1842 50.2266V86.6667H23.1082L45.1842 108.691V133.461C45.1842 145.875 55.2761 156 67.7764 156H170.244C182.687 156 192.836 145.932 192.836 133.461V50.2266C192.836 37.7558 182.687 27.6876 170.244 27.6876Z" fill="#E5BFCE"/>
<path d="M235.038 42.7899C235.038 43.8768 235.956 44.7921 237.045 44.7921C238.135 44.7921 239.052 43.8768 239.052 42.7899C239.052 41.703 238.135 40.7877 237.045 40.7877C235.956 40.7877 235.038 41.703 235.038 42.7899Z" fill="#455A64"/>
<path d="M229.018 44.7921C230.126 44.7921 231.025 43.8956 231.025 42.7899C231.025 41.6841 230.126 40.7877 229.018 40.7877C227.909 40.7877 227.011 41.6841 227.011 42.7899C227.011 43.8956 227.909 44.7921 229.018 44.7921Z" fill="#455A64"/>
<path d="M219.04 41.8173C218.467 42.7898 218.811 43.9912 219.786 44.5632C220.761 45.1353 221.965 44.792 222.538 43.8195C223.112 42.847 222.768 41.6457 221.793 41.0737C220.818 40.5016 219.557 40.8448 219.04 41.8173Z" fill="#455A64"/>
<path d="M228.903 19.3927C228.903 19.3927 228.788 19.3927 228.502 19.3927C228.215 19.3927 227.814 19.3927 227.298 19.4499C227.011 19.4499 226.724 19.4499 226.437 19.5071C226.093 19.5643 225.749 19.6216 225.405 19.6788C225.004 19.736 224.603 19.7932 224.201 19.8504C223.742 19.9648 223.341 20.0792 222.825 20.1936C220.875 20.7085 218.582 21.5093 216.174 23.1111C213.765 24.6557 211.3 26.8295 209.293 29.8042C207.343 32.7789 205.795 36.4972 205.394 40.7305C205.336 41.7602 205.221 42.8471 205.336 43.934C205.394 44.4488 205.336 45.0209 205.451 45.5929C205.508 46.165 205.623 46.6799 205.68 47.2519C206.139 49.4257 206.77 51.714 207.916 53.7734C209.006 55.89 210.439 57.835 212.217 59.6656C213.995 61.3817 216.059 62.9263 218.352 64.0704C220.646 65.2717 223.226 66.0726 225.864 66.3586C226.495 66.473 227.183 66.473 227.871 66.5302C228.559 66.5874 229.19 66.5874 229.878 66.5874C231.254 66.5302 232.573 66.3586 233.949 66.0726C236.873 65.4433 239.626 64.242 242.034 62.6975H241.805C244.614 63.8416 247.367 64.9285 250.004 66.0154L250.463 66.187L250.348 65.6722C249.546 62.6403 248.686 59.7228 247.94 56.9197L247.883 57.1485C250.176 54.1166 251.667 50.6271 252.241 47.1375C252.527 45.4213 252.699 43.648 252.585 41.989C252.527 41.1309 252.527 40.33 252.355 39.5291C252.298 39.1287 252.241 38.7283 252.183 38.3278C252.126 37.9274 252.011 37.5269 251.897 37.1837C250.291 31.0055 246.507 26.429 242.722 23.8548C240.83 22.539 238.995 21.5665 237.275 20.9945C236.873 20.8229 236.415 20.7085 236.071 20.5368C235.669 20.4224 235.268 20.308 234.924 20.2508C234.58 20.1364 234.178 20.0792 233.834 19.9648C233.49 19.9076 233.146 19.8504 232.86 19.7932C232.229 19.736 231.713 19.6216 231.197 19.5643C230.738 19.5643 230.337 19.5071 229.993 19.5071C229.706 19.5071 229.419 19.5071 229.247 19.5071C229.018 19.3927 228.903 19.3927 228.903 19.3927C228.903 19.3927 228.96 19.3927 229.132 19.4499C229.304 19.4499 229.534 19.5071 229.878 19.5071C230.222 19.5071 230.623 19.5643 231.082 19.5643C231.541 19.6216 232.114 19.736 232.688 19.7932C235.096 20.2508 238.708 21.2233 242.435 23.912C246.163 26.5434 249.832 31.0627 251.381 37.1265C251.495 37.5269 251.61 37.8702 251.667 38.2706C251.725 38.6711 251.782 39.0715 251.839 39.4719C252.011 40.2728 252.011 41.0737 252.069 41.8746C252.183 43.5335 252.069 45.1925 251.725 46.9087C251.094 50.2838 249.66 53.7162 247.424 56.6909L247.367 56.8053L247.424 56.9197C248.227 59.78 248.972 62.6975 249.832 65.6722L250.176 65.3861C247.481 64.2992 244.729 63.2123 241.977 62.0682L241.862 62.011L241.747 62.0682C239.396 63.6128 236.701 64.7569 233.834 65.3861C232.516 65.6722 231.197 65.8438 229.878 65.901C229.19 65.9582 228.559 65.901 227.871 65.8438C227.24 65.7866 226.552 65.7866 225.921 65.6722C223.341 65.3861 220.818 64.5852 218.582 63.4411C216.346 62.297 214.281 60.8097 212.561 59.1507C210.841 57.4345 209.465 55.4895 208.375 53.4301C207.286 51.3707 206.598 49.1969 206.139 47.0231C206.082 46.451 205.967 45.9362 205.91 45.4213C205.852 44.9065 205.852 44.3344 205.795 43.8196C205.68 42.7327 205.795 41.703 205.852 40.6733C206.254 36.5544 207.687 32.8933 209.637 29.9186C211.586 27.0011 213.995 24.8273 216.346 23.2827C218.696 21.7382 220.99 20.8801 222.882 20.3652C223.341 20.2508 223.8 20.1364 224.259 20.022C224.717 19.9648 225.119 19.9076 225.463 19.8504C225.864 19.7932 226.208 19.736 226.495 19.6788C226.839 19.6216 227.126 19.6216 227.355 19.6216C227.871 19.5643 228.272 19.5643 228.559 19.5071C228.788 19.4499 228.903 19.4499 228.903 19.3927Z" fill="#455A64"/>
<path d="M273.203 61.7459H280.954V47.4167H280.144C276.327 47.4167 273.203 50.5368 273.203 54.3502V61.7459Z" fill="#10143A"/>
<path d="M229.131 89.364L241.277 113.862L271.006 94.2174C275.864 90.9818 282.342 92.1374 285.002 96.7597C287.663 101.266 285.696 107.275 280.607 109.933L241.508 129.578C237.922 131.311 233.642 129.694 232.254 125.996L219.646 92.7152L229.131 89.364Z" fill="#BD5685"/>
<path d="M218.604 81.5064C215.134 86.0132 216.059 92.4844 220.686 95.8355L220.802 95.9511C221.959 96.8756 223.694 96.6445 224.619 95.3733L229.246 89.2488L218.604 81.5064Z" fill="#F78268"/>
<path d="M295.413 187.819H266.147L268.692 201.455H295.413V187.819Z" fill="#F78268"/>
<path d="M318.317 187.819H289.282L291.827 195.331L294.141 201.455H319.358L318.317 187.819Z" fill="#F78268"/>
<path d="M266.147 108.893V187.819H321.787V108.893C321.787 97.6843 314.268 88.2086 304.089 85.4352C302.469 84.973 300.734 84.7419 298.999 84.6263C298.652 84.6263 298.305 84.6263 297.958 84.6263H290.092C288.704 84.6263 287.431 84.7419 286.043 84.973C283.614 85.4352 281.301 86.1286 279.103 87.2841C277.946 87.8619 276.789 88.5553 275.748 89.3642C269.964 93.7554 266.147 100.92 266.147 108.893Z" fill="#BD5685"/>
<path d="M304.089 130.272L284.655 147.028C284.655 147.028 306.171 147.605 306.171 145.756C306.055 143.907 304.089 130.272 304.089 130.272Z" fill="#10143A"/>
<path d="M284.424 90.9818L300.04 84.6261V71.4526H284.424V90.9818Z" fill="#F78268"/>
<path d="M281.416 78.8483H285.696C295.991 78.8483 304.436 70.5282 304.436 60.128V59.2036C304.436 51.9234 298.536 46.1455 291.364 46.1455H289.051C281.763 46.1455 275.979 52.039 275.979 59.2036V73.3016C275.864 76.3061 278.409 78.8483 281.416 78.8483Z" fill="#F78268"/>
<path d="M275.864 57.5858C286.043 57.5858 295.644 56.7769 293.331 71.4527C301.081 71.4527 307.443 65.097 307.443 57.3547C307.443 49.6123 301.081 43.2567 293.331 43.2567C291.943 43.2567 281.995 43.2567 281.995 43.2567C276.211 44.8745 275.864 51.1146 275.864 57.5858Z" fill="#10143A"/>
<path d="M274.244 70.7593H275.979V65.097L273.435 69.2571C272.972 69.9504 273.435 70.7593 274.244 70.7593Z" fill="#F78268"/>
<path d="M299.924 76.6528C307.906 65.097 307.443 56.1991 307.443 56.1991L298.768 52.3857C292.753 52.3857 288.125 54.0035 288.125 60.0125L289.861 60.2436C288.125 78.2706 299.924 76.6528 299.924 76.6528Z" fill="#10143A"/>
<path d="M289.861 70.875H293.1C294.835 70.875 296.338 69.4883 296.338 67.6394V65.0971C296.338 63.3638 294.95 61.8615 293.1 61.8615C291.364 61.8615 289.861 63.2482 289.861 65.0971V70.875Z" fill="#F78268"/>
<path d="M286.962 68.2511H289.854V58.4287H286.962V68.2511Z" fill="#10143A"/>
<path d="M275.864 60.8215H285.928C288.01 60.8215 289.745 59.0881 289.745 57.0081C289.745 54.9281 288.01 53.1947 285.928 53.1947H279.797C277.599 53.1947 275.864 54.9281 275.864 57.1237V60.8215Z" fill="#F78268"/>
<path d="M286.391 61.3992H291.018V52.3857H281.995V57.008C281.995 59.4347 283.961 61.3992 286.391 61.3992Z" fill="#10143A"/>
<path d="M296.57 154.192L302.585 155.348C308.137 156.503 313.574 152.921 314.731 147.374L321.903 110.742C321.44 104.387 312.302 91.9065 312.302 91.9065L296.57 154.192Z" fill="#BD5685"/>
<path d="M282.804 157.543L266.147 160.663V149.685L282.804 157.543Z" fill="#10143A"/>
<path d="M321.903 187.819H266.147V201.455H322.713L321.903 187.819Z" fill="#BD5685"/>
<path d="M300.04 84.6261V80.1194L284.424 86.5906V90.9818L300.04 84.6261Z" fill="white"/>
<path d="M284.484 121.157H288.07V88.339H284.484V121.157Z" fill="white"/>
<path d="M261.057 144.023L260.247 153.961L302.469 156.041C310.219 156.387 312.302 145.64 305.014 143.214C304.898 143.214 304.783 143.098 304.783 143.098C295.181 140.094 261.057 144.023 261.057 144.023Z" fill="#BD5685"/>
<path d="M249.605 150.263C252.497 155.348 258.744 157.081 263.718 154.308H263.833C265.221 153.614 265.684 151.881 264.874 150.494L261.173 143.907L249.605 150.263Z" fill="#F78268"/>
<path d="M275.633 70.7591V78.8482C275.633 80.2349 276.79 81.3904 278.178 81.3904H282.226C286.391 81.3904 289.861 78.0393 289.861 73.8792V65.6746H286.969V72.1458C286.969 72.9547 286.275 73.5325 285.465 73.5325H283.152C282.342 73.5325 281.648 72.8392 281.648 72.1458C281.648 71.3369 280.954 70.7591 280.144 70.7591H275.633Z" fill="#10143A"/>
<path d="M316.466 138.014L321.903 116.058V138.014H316.466Z" fill="#10143A"/>
<path d="M278.062 53.0791C280.375 53.0791 282.226 54.928 282.226 57.2392V53.0791H278.062Z" fill="#10143A"/>
<path d="M39.7371 59.1453C54.0511 59.1453 65.6549 47.5534 65.6549 33.2541C65.6549 18.9547 54.0511 7.36282 39.7371 7.36282C25.4231 7.36282 13.8193 18.9547 13.8193 33.2541C13.8193 47.5534 25.4231 59.1453 39.7371 59.1453Z" fill="#10143A"/>
<path d="M76.6598 46.8161L65.1408 35.3088L53.7246 46.8161H76.6598Z" fill="#10143A"/>
<path d="M112.657 48.4602H97.3323V44.9669C97.3323 40.2407 101.138 36.4392 105.869 36.4392H112.76V48.4602H112.657Z" fill="#10143A"/>
<path d="M125.718 30.9939C125.718 38.9051 119.342 45.2752 111.422 45.2752C111.32 45.2752 111.114 45.2752 111.011 45.2752C103.297 45.0697 97.1265 38.8024 97.1265 30.9939C97.1265 29.9665 97.2293 28.939 97.435 28.0144C97.5379 27.7061 97.6407 27.2952 97.6407 26.9869C99.3891 21.0278 104.84 16.7126 111.32 16.7126C117.799 16.7126 123.25 21.0278 124.998 26.9869C125.307 28.0144 125.513 29.1445 125.513 30.2747C125.718 30.4802 125.718 30.7884 125.718 30.9939Z" fill="#10143A"/>
<path d="M119.959 48.7684C118.005 48.7684 116.359 50.4123 116.359 52.3644V48.7684H120.884H119.959Z" fill="#F78268"/>
<path d="M199.461 62.4333C195.655 59.9674 190.616 60.9949 188.147 64.7963L186.399 67.3649L193.29 71.8856L199.461 62.4333Z" fill="#F78268"/>
<path d="M193.29 71.8857C193.29 71.8857 192.364 72.6049 190.821 73.8378C190.718 73.9406 190.616 74.0433 190.41 74.1461C189.381 74.968 188.044 75.9954 186.502 77.2284C185.782 77.7421 185.165 78.2558 184.342 78.8722C181.668 80.9271 178.582 83.2902 175.086 85.756C173.337 86.9889 171.486 88.3246 169.532 89.5575C168.503 90.174 167.475 90.8932 166.343 91.5096L165.418 92.0234L163.978 92.7426L163.258 93.1535L162.538 93.4618C162.024 93.6672 161.612 93.8727 161.098 94.0782C160.584 94.2837 160.07 94.3865 159.555 94.5919L158.013 95.0029C157.498 95.1056 156.984 95.1057 156.47 95.2084C155.956 95.2084 155.442 95.3111 154.927 95.2084L153.385 95.0029C152.87 94.9002 152.356 94.7974 151.842 94.6947L150.299 94.181C149.785 93.9755 149.373 93.77 148.859 93.5645C147.831 93.1535 147.008 92.6398 146.082 92.2288C145.568 91.9206 144.951 91.6124 144.437 91.3042C143.408 90.6877 142.483 90.174 141.557 89.5575C137.854 87.2972 134.563 85.1396 131.786 83.2902C129.01 81.4408 126.644 79.8997 125.101 78.7695C123.456 77.6393 122.633 77.0229 122.633 77.0229C118.725 74.3515 118.416 68.2897 121.913 63.4608L127.57 55.5496C127.57 55.5496 128.392 56.3715 129.935 57.8099C131.478 59.2483 133.741 61.4059 136.415 63.8718C139.089 66.3376 142.277 69.2144 145.671 72.1939C147.317 73.7351 149.168 75.1735 150.916 76.7146C151.328 77.1256 151.842 77.4338 152.253 77.8448L152.973 78.3585L153.282 78.564C153.385 78.6668 153.385 78.6668 153.487 78.7695C154.002 79.2832 154.516 79.6942 155.133 80.2079C155.442 80.4134 155.853 80.6189 156.161 80.6189C156.573 80.6189 156.881 80.6189 157.293 80.5161C157.704 80.5161 158.013 80.4134 158.424 80.3107C158.836 80.2079 159.144 80.1052 159.761 79.8997C161.921 79.0777 164.081 78.0503 166.035 77.1256C170.149 75.1735 173.954 73.1186 177.143 71.2693C178.377 70.5501 179.508 69.9336 180.537 69.3171C182.285 68.3924 183.725 67.4678 184.856 66.8513C186.707 65.7211 187.839 65.1047 187.839 65.1047L193.29 71.8857Z" fill="white"/>
<path d="M73.5743 101.168C73.2657 101.681 73.3686 102.092 73.3686 102.606C73.4714 103.12 73.4714 103.633 73.6771 104.147C73.8828 105.072 74.397 106.613 74.8084 107.949C75.7341 110.723 76.7626 113.497 77.8939 116.271C78.7167 118.326 79.5395 120.381 80.3622 122.538C80.9793 124.079 81.5964 125.62 82.2135 127.059C83.0363 128.908 83.8591 130.86 84.579 132.71L77.2768 137.23C75.8369 134.867 74.397 132.504 73.06 130.244C72.2372 128.805 71.4144 127.367 70.5917 125.929C69.7689 124.49 69.0489 123.155 68.2261 121.716C66.7863 119.045 65.3464 116.374 63.9065 113.599C63.4951 112.88 63.1866 112.161 62.878 111.442L62.6723 110.825L62.2609 109.901C61.9524 109.284 61.7467 108.668 61.4382 107.949C61.1296 107.229 60.9239 106.613 60.7182 105.894C60.6154 105.586 60.5125 105.175 60.4097 104.866L60.204 103.839C60.1011 103.531 60.1011 103.12 60.1011 102.811C60.1011 102.503 59.9983 102.092 60.1011 101.784V100.757V100.448V100.243C59.9983 100.243 60.1011 100.243 60.1011 100.243V100.14L60.204 99.6264C60.4097 98.8045 60.6154 98.0853 60.8211 97.2633C60.9239 96.8523 61.0268 96.4414 61.2325 96.1331L61.7467 95.003C62.0552 94.2838 62.5695 93.5646 62.9809 92.8454C63.3923 92.1262 63.9065 91.2015 64.1122 90.996C65.1407 89.3521 66.0663 87.9137 67.0948 86.4753C69.0489 83.4957 71.003 80.7217 73.06 77.9476C77.0711 72.3995 81.0822 66.8513 85.1961 61.406C88.1787 57.399 94.4525 56.988 99.1835 60.584L104.017 68.187C98.155 74.0434 95.1724 78.2558 89.4129 84.2149C86.5331 87.1945 83.6534 90.174 80.8765 93.2563C79.4366 94.7975 78.0996 96.3386 76.7626 97.8798L75.8369 99.0099L75.117 99.7291C74.4999 100.037 73.9856 100.551 73.5743 101.168Z" fill="white"/>
<path d="M133.946 65.31V143.703H84.8877V65.31C84.8877 62.4332 86.019 59.8646 87.8703 57.9125C89.8244 55.8576 92.4985 54.6247 95.5839 54.6247H123.353C126.027 54.6247 128.495 55.6521 130.449 57.296C132.506 59.2482 133.946 62.125 133.946 65.31Z" fill="white"/>
<path d="M120.987 48.8712H117.285C108.337 48.8712 101.035 41.5764 101.035 32.6378V31.8158C101.035 25.5485 106.074 20.5141 112.348 20.5141H114.302C120.576 20.5141 125.616 25.5485 125.616 31.8158V44.0422C125.821 46.7136 123.662 48.8712 120.987 48.8712Z" fill="#F78268"/>
<path d="M116.359 42.8093V58.8372L105.046 54.522V42.8093H116.359Z" fill="#F78268"/>
<path d="M127.261 41.1655H125.821V36.2338L127.981 39.8298C128.289 40.549 127.878 41.1655 127.261 41.1655Z" fill="#F78268"/>
<path d="M114.816 35.6175H108.543V26.0624H119.239V31.1996C119.239 33.6654 117.285 35.6175 114.816 35.6175Z" fill="#10143A"/>
<path d="M110.908 30.9939C110.908 30.9939 110.805 46.7136 104.943 47.1245C96.6123 39.5215 97.1266 30.9939 97.1266 30.9939H110.908Z" fill="#10143A"/>
<path d="M125.719 31.7132H97.4353V28.0144C97.5382 27.7062 97.641 27.2952 97.641 26.987C99.3894 21.0279 104.84 16.7127 111.32 16.7127C117.799 16.7127 123.25 21.0279 124.999 26.987C125.41 28.0144 125.616 29.1446 125.719 31.7132Z" fill="#10143A"/>
<path d="M115.433 33.9735H112.965V38.6997H115.433V33.9735Z" fill="#10143A"/>
<path d="M113.685 42.0901H110.908C109.366 42.0901 108.131 40.8572 108.131 39.316V37.1584C108.131 35.6173 109.366 34.3844 110.908 34.3844C112.451 34.3844 113.685 35.6173 113.685 37.1584V42.0901Z" fill="#F78268"/>
<path d="M84.8875 143.6H109.777L107.103 156.34H83.6533L84.8875 143.6Z" fill="#9C9402"/>
<path d="M108.954 143.6H133.843L132.404 156.34H108.954V143.6Z" fill="#9C9402"/>
<path d="M90.0301 140.723L88.8988 141.237C83.8592 143.395 77.894 141.032 75.7342 135.997L74.0886 132.093L75.22 131.579C80.2595 129.422 86.2247 131.785 88.3845 136.819L90.0301 140.723Z" fill="#F78268"/>
<path d="M83.9619 152.744L84.8875 143.6L133.946 134.764V156.34H83.6533L83.9619 152.744Z" fill="white"/>
<path d="M122.119 25.7541H119.239V31.8159H125.821V29.3501C125.718 27.3979 124.073 25.7541 122.119 25.7541Z" fill="#F78268"/>
<path d="M126.953 43.8367H121.707C121.707 42.3983 122.839 41.2681 124.278 41.2681H126.85V43.8367H126.953Z" fill="#10143A"/>
<path d="M116.359 55.3441H113.274V156.341H116.359V55.3441Z" fill="#FFC7A1"/>
<path d="M116.359 55.4468V58.8373L105.046 54.5221V50.6178L116.359 55.4468Z" fill="#FFC7A1"/>
<path d="M119.753 30.8912H110.394V19.5895H124.073C126.027 19.5895 127.569 21.1306 127.569 23.0827C127.569 27.3979 124.073 30.8912 119.753 30.8912Z" fill="#10143A"/>
</g>
<defs>
<clipPath id="clip0_36_2039">
<rect width="398" height="208" fill="white"/>
</clipPath>
</defs>
</svg>
