<svg width="418" height="326" viewBox="0 0 418 326" fill="none" xmlns="http://www.w3.org/2000/svg">
<g clip-path="url(#clip0_238_34)">
<path d="M132.609 86H49.0088V224.362H132.609V86Z" fill="#E0E0E0"/>
<path d="M129.822 86H46.2222V224.362H129.822V86Z" fill="#EBEBEB"/>
<path d="M126.248 88.7854H49.7358V221.516H126.248V88.7854Z" fill="white"/>
<path d="M111.406 106.043H64.3354V204.319H111.406V106.043Z" fill="#EBEBEB"/>
<path d="M64.3355 169.562C64.2143 160.358 72.4532 151.396 81.6007 150.125C85.9624 149.519 90.5665 150.367 94.5648 148.732C101.774 145.765 104.076 136.137 111.345 133.291L111.648 204.319H64.2749V169.562H64.3355Z" fill="#E0E0E0"/>
<path d="M391.406 90.9047V168.351H280.121L276.123 91.4497L391.406 90.9047Z" fill="#E0E0E0"/>
<path d="M276.096 91.4506V168.231H387.381V91.4506H276.096Z" fill="#F5F5F5"/>
<path d="M375.352 100.956H288.178V158.663H375.352V100.956Z" fill="white"/>
<path d="M375.352 100.956C375.352 100.956 375.231 100.956 374.928 100.956C374.625 100.956 374.201 100.956 373.716 100.956C372.626 100.956 370.99 100.956 368.931 101.017C364.751 101.017 358.632 101.077 350.938 101.077C335.551 101.138 313.803 101.138 288.178 101.199L288.42 100.956C288.42 118.577 288.42 138.136 288.42 158.663L288.117 158.36C321.012 158.36 351.363 158.421 375.292 158.421L375.049 158.663C375.11 141.103 375.11 126.691 375.17 116.7C375.17 111.674 375.231 107.799 375.231 105.074C375.231 103.742 375.231 102.712 375.231 102.046C375.352 101.32 375.352 100.956 375.352 100.956C375.352 100.956 375.352 101.32 375.352 101.986C375.352 102.712 375.352 103.681 375.352 105.013C375.352 107.678 375.413 111.553 375.413 116.579C375.413 126.631 375.473 141.103 375.534 158.663V158.905H375.292C351.302 158.905 321.012 158.965 288.117 158.965H287.814V158.663C287.814 138.136 287.814 118.638 287.814 100.956V100.714H288.057C313.743 100.775 335.551 100.835 350.999 100.835C358.693 100.835 364.751 100.896 368.931 100.896C370.99 100.896 372.565 100.896 373.656 100.956C374.201 100.956 374.565 100.956 374.867 100.956C375.231 100.956 375.352 100.956 375.352 100.956Z" fill="#E0E0E0"/>
<path d="M276.123 91.2075C276.183 91.1469 276.91 91.6313 278.061 92.4185C279.212 93.2663 280.727 94.4168 282.423 95.7489C284.119 97.0811 285.573 98.3527 286.603 99.3215C287.633 100.29 288.239 100.896 288.178 100.956C288.057 101.078 285.391 98.8371 282.059 96.1728C278.667 93.569 276.001 91.3286 276.123 91.2075Z" fill="#E0E0E0"/>
<path d="M387.407 91.4497C387.529 91.5708 384.863 93.8113 381.531 96.415C378.199 99.0188 375.413 101.078 375.352 100.956C375.231 100.835 377.896 98.5949 381.228 95.9911C384.56 93.3874 387.286 91.3286 387.407 91.4497Z" fill="#E0E0E0"/>
<path d="M387.347 168.23C383.227 164.9 379.047 161.509 374.928 158.178L387.347 168.23Z" fill="white"/>
<path d="M374.928 158.178C375.049 158.057 377.896 160.237 381.289 162.962C384.742 165.747 387.407 168.109 387.347 168.23C387.225 168.351 384.378 166.171 380.986 163.446C377.533 160.6 374.807 158.299 374.928 158.178Z" fill="#E0E0E0"/>
<path d="M276.122 168.23C276.001 168.109 278.606 165.929 281.938 163.325C285.209 160.722 287.996 158.723 288.056 158.844C288.178 158.966 285.573 161.145 282.241 163.749C278.969 166.292 276.183 168.291 276.122 168.23Z" fill="#E0E0E0"/>
<path d="M305.866 118.964V138.28H360.751V118.964H305.866Z" fill="#E0E0E0"/>
<path d="M239.775 91.6313H178.044V155.998H239.775V91.6313Z" fill="#E0E0E0"/>
<path d="M235.594 91.6313H173.864V155.998H235.594V91.6313Z" fill="#FAFAFA"/>
<path d="M235.595 155.998H173.803V91.6313H235.595V155.998ZM173.864 155.998H235.595V91.6919H173.864V155.998Z" fill="#E0E0E0"/>
<path d="M227.295 100.29H182.163V147.339H227.295V100.29Z" fill="white"/>
<path d="M182.163 147.642C182.224 147.703 181.8 148.187 181.073 148.914C180.346 149.701 179.316 150.73 178.225 151.82C177.074 152.91 176.044 153.94 175.257 154.666C174.469 155.393 173.985 155.817 173.924 155.756C173.864 155.696 174.288 155.211 175.015 154.485C175.742 153.697 176.771 152.668 177.862 151.578C179.013 150.428 180.043 149.459 180.83 148.732C181.618 148.066 182.102 147.642 182.163 147.642Z" fill="#E0E0E0"/>
<path d="M227.295 147.521C227.356 147.461 227.84 147.884 228.567 148.611C229.355 149.338 230.385 150.367 231.475 151.457C232.566 152.607 233.596 153.637 234.323 154.424C235.049 155.211 235.474 155.696 235.413 155.756C235.352 155.817 234.868 155.393 234.141 154.666C233.353 153.94 232.323 152.91 231.233 151.82C230.082 150.67 229.113 149.64 228.386 148.853C227.659 148.066 227.235 147.582 227.295 147.521Z" fill="#E0E0E0"/>
<path d="M227.174 100.411C227.113 100.351 227.537 99.8664 228.264 99.1398C228.991 98.3526 230.021 97.3233 231.111 96.2333C232.262 95.1434 233.292 94.114 234.08 93.3874C234.867 92.6607 235.352 92.2369 235.413 92.2974C235.473 92.358 235.049 92.8424 234.322 93.569C233.595 94.3562 232.565 95.3856 231.475 96.4755C230.324 97.626 229.294 98.5949 228.506 99.3215C227.719 100.048 227.234 100.472 227.174 100.411Z" fill="#E0E0E0"/>
<path d="M182.042 100.533C181.981 100.593 181.497 100.169 180.77 99.4426C179.982 98.716 178.952 97.6866 177.862 96.5966C176.771 95.4461 175.742 94.4167 175.015 93.6296C174.288 92.8424 173.864 92.358 173.924 92.2974C173.985 92.2369 174.469 92.6607 175.196 93.3874C175.984 94.114 177.014 95.1434 178.104 96.2333C179.255 97.3838 180.224 98.4132 180.951 99.2004C181.618 100.048 182.042 100.533 182.042 100.533Z" fill="#E0E0E0"/>
<path d="M227.174 147.339C227.174 147.339 227.174 147.279 227.174 147.097C227.174 146.916 227.174 146.734 227.174 146.431C227.174 145.826 227.174 144.978 227.174 143.888C227.174 141.648 227.174 138.438 227.113 134.321C227.113 126.086 227.053 114.338 227.053 100.29L227.234 100.472C214.089 100.472 198.641 100.472 182.224 100.472L182.406 100.29C182.406 117.548 182.406 133.715 182.406 147.339L182.224 147.158C195.733 147.218 206.94 147.218 214.816 147.218C218.753 147.218 221.843 147.279 223.963 147.279C224.993 147.279 225.841 147.279 226.386 147.279C226.629 147.279 226.871 147.279 226.992 147.279C227.113 147.339 227.174 147.339 227.174 147.339C227.174 147.339 227.113 147.339 226.992 147.339C226.871 147.339 226.629 147.339 226.386 147.339C225.841 147.339 225.054 147.339 224.024 147.339C221.903 147.339 218.814 147.339 214.876 147.4C207.001 147.4 195.672 147.461 182.163 147.461H181.981V147.279C181.981 133.655 181.981 117.487 181.981 100.23V100.048H182.163C198.58 100.048 214.028 100.048 227.174 100.048H227.356V100.23C227.295 114.338 227.295 126.086 227.295 134.381C227.295 138.499 227.234 141.708 227.234 143.949C227.234 145.038 227.234 145.886 227.234 146.431C227.234 146.673 227.234 146.916 227.234 147.097C227.174 147.279 227.174 147.339 227.174 147.339Z" fill="#E0E0E0"/>
<path d="M212.271 116.276H197.187V131.354H212.271V116.276Z" fill="#EBEBEB"/>
<path d="M372.868 191.603C373.656 187.365 375.655 183.247 378.987 179.917C387.649 171.318 401.765 171.258 410.488 179.856C419.211 188.454 419.211 202.382 410.549 210.98C401.886 219.578 387.771 219.639 379.047 211.041C375.352 207.407 373.231 202.866 372.686 198.143L366.871 194.389L372.868 191.603Z" fill="white"/>
<path d="M372.868 191.603C372.868 191.603 372.747 191.664 372.444 191.785C372.141 191.906 371.778 192.088 371.293 192.33C370.263 192.814 368.749 193.48 366.81 194.389L366.628 194.449L366.75 194.57C368.325 195.6 370.324 196.871 372.565 198.325L372.505 198.203C372.868 201.473 374.08 205.227 376.685 208.679C377.351 209.527 378.017 210.374 378.866 211.162C379.714 211.888 380.562 212.736 381.531 213.402C383.47 214.795 385.65 216.006 388.134 216.732C393.041 218.246 398.917 218.065 404.188 215.642C409.458 213.281 413.941 208.618 416.001 202.745C416.849 200.323 417.273 197.84 417.273 195.357C417.273 192.875 416.788 190.453 416.001 188.212C415.213 185.972 414.123 183.853 412.669 182.036C411.276 180.219 409.64 178.584 407.823 177.373L407.156 176.889C406.914 176.768 406.672 176.586 406.429 176.465C405.945 176.223 405.521 175.92 405.036 175.678C404.067 175.254 403.097 174.77 402.068 174.467C401.098 174.104 400.068 173.922 399.099 173.68C398.614 173.619 398.069 173.559 397.585 173.438L396.858 173.316L396.131 173.256C394.192 173.074 392.254 173.316 390.436 173.619C388.679 174.043 386.983 174.527 385.469 175.254C382.44 176.647 380.077 178.584 378.26 180.462C376.503 182.399 375.291 184.397 374.564 186.032C373.777 187.728 373.413 189.121 373.171 190.029C373.05 190.513 372.989 190.877 372.929 191.119C372.868 191.482 372.868 191.603 372.868 191.603C372.868 191.603 372.929 191.482 372.989 191.24C373.05 190.998 373.11 190.634 373.232 190.15C373.474 189.242 373.898 187.849 374.686 186.214C375.473 184.579 376.685 182.641 378.441 180.704C380.259 178.827 382.621 176.95 385.59 175.617C387.104 174.891 388.74 174.467 390.497 174.043C392.254 173.801 394.132 173.559 396.07 173.68L396.797 173.74L397.524 173.861C398.009 173.922 398.493 173.982 398.978 174.104C399.947 174.346 400.977 174.527 401.886 174.891C402.855 175.194 403.824 175.678 404.794 176.102C405.278 176.344 405.702 176.647 406.187 176.889C406.429 177.01 406.672 177.131 406.853 177.313L407.52 177.797C409.337 179.008 410.912 180.583 412.305 182.399C413.699 184.155 414.789 186.214 415.577 188.454C416.364 190.634 416.788 193.056 416.788 195.479C416.788 197.901 416.364 200.323 415.577 202.684C413.578 208.437 409.155 212.978 404.006 215.34C398.857 217.701 393.102 217.883 388.255 216.43C385.832 215.703 383.651 214.553 381.773 213.22C380.804 212.554 380.017 211.767 379.168 211.041C378.381 210.253 377.654 209.466 377.048 208.618C374.504 205.227 373.232 201.534 372.868 198.325V198.264L372.808 198.203C370.506 196.75 368.567 195.479 366.931 194.51V194.691C368.87 193.783 370.324 193.056 371.414 192.512C371.899 192.269 372.262 192.088 372.565 191.967C372.747 191.664 372.868 191.603 372.868 191.603Z" fill="#263238"/>
<path d="M385.105 194.086C385.166 192.875 385.711 191.724 386.498 190.816C387.286 189.908 388.255 189.181 389.406 188.878C390.618 188.576 392.011 188.757 393.102 189.423C393.768 189.847 394.253 190.392 394.677 190.998C394.98 190.392 395.464 189.847 396.009 189.484C397.039 188.757 398.372 188.394 399.644 188.636C400.795 188.818 401.886 189.484 402.734 190.332C403.582 191.179 404.248 192.33 404.43 193.48C404.672 194.994 404.43 196.629 403.703 197.961C402.916 199.354 401.643 200.504 400.25 201.413C398.009 202.866 394.98 204.743 394.98 204.743C394.98 204.743 392.314 202.926 389.951 201.655C388.558 200.868 387.165 199.838 386.256 198.506C385.408 197.235 385.045 195.6 385.105 194.086Z" fill="#E5BFCE"/>
<path d="M101.774 161.69L110.316 159.813C113.526 162.417 117.525 164.173 121.947 164.779C134.669 166.474 146.361 157.633 148.057 145.039C149.753 132.444 140.848 120.878 128.126 119.183C115.404 117.487 103.712 126.328 102.016 138.923C101.289 144.191 102.44 149.277 104.924 153.516L101.774 161.69Z" fill="white"/>
<path d="M101.774 161.69C101.774 161.69 101.834 161.509 102.016 161.145C102.137 160.782 102.38 160.237 102.622 159.571C103.167 158.178 103.955 156.18 104.985 153.576L104.803 153.637C104.863 153.697 104.924 153.697 104.924 153.637C104.985 153.576 104.985 153.576 104.924 153.516C103.41 150.852 101.895 147.037 101.834 142.435C101.774 137.833 103.228 132.444 106.923 127.842C108.741 125.541 111.103 123.542 113.95 122.029C116.737 120.515 120.008 119.546 123.401 119.304C126.793 119.122 130.368 119.607 133.699 120.939C135.396 121.544 136.971 122.513 138.425 123.542C138.788 123.785 139.152 124.087 139.515 124.39C139.879 124.693 140.242 124.935 140.545 125.298C141.211 125.965 141.878 126.57 142.483 127.297C142.786 127.66 143.089 128.023 143.392 128.387L144.18 129.537L144.604 130.082L144.967 130.688L145.634 131.899C145.815 132.323 145.997 132.746 146.179 133.11C146.361 133.534 146.603 133.897 146.663 134.381C146.906 135.229 147.269 136.077 147.451 136.924C148.299 140.376 148.239 143.949 147.512 147.218C146.785 150.549 145.27 153.516 143.271 155.998C141.332 158.481 138.909 160.479 136.365 161.933C133.821 163.386 131.094 164.234 128.49 164.657C125.885 165.081 123.34 164.9 121.038 164.597C116.434 163.81 112.86 161.751 110.437 159.813H110.376C107.65 160.419 105.53 160.903 104.076 161.267C103.349 161.448 102.804 161.569 102.44 161.63C102.016 161.63 101.774 161.69 101.774 161.69C101.774 161.69 101.956 161.69 102.319 161.569C102.683 161.509 103.228 161.388 103.955 161.206C105.409 160.903 107.59 160.419 110.376 159.874H110.316C112.739 161.872 116.313 163.931 120.978 164.779C123.28 165.142 125.885 165.324 128.55 164.9C131.216 164.476 133.942 163.628 136.607 162.175C139.212 160.722 141.635 158.723 143.634 156.18C145.634 153.637 147.209 150.609 147.936 147.218C148.723 143.888 148.723 140.255 147.936 136.743C147.754 135.835 147.451 134.987 147.148 134.139C147.027 133.715 146.785 133.291 146.603 132.867C146.421 132.444 146.239 132.02 146.058 131.596L145.391 130.385L145.028 129.779L144.604 129.234L143.816 128.084C143.513 127.721 143.21 127.357 142.908 126.994C142.302 126.267 141.635 125.601 140.969 124.996C140.666 124.632 140.242 124.39 139.879 124.087C139.515 123.785 139.152 123.482 138.788 123.24C137.274 122.21 135.638 121.241 133.942 120.636C130.549 119.304 126.914 118.759 123.461 118.94C120.008 119.183 116.737 120.212 113.89 121.726C111.043 123.3 108.619 125.359 106.802 127.66C103.046 132.323 101.653 137.833 101.713 142.435C101.774 147.097 103.349 150.973 104.924 153.637L105.106 153.516C105.045 153.455 104.985 153.455 104.985 153.516C104.985 153.516 104.985 153.516 104.985 153.576C103.955 156.241 103.228 158.299 102.683 159.692C102.44 160.358 102.259 160.903 102.077 161.267C101.834 161.509 101.774 161.69 101.774 161.69Z" fill="#263238"/>
<path d="M134.124 138.68C134.124 133.715 130.125 129.658 125.097 129.658C120.069 129.658 116.01 133.655 115.95 138.62C115.95 142.193 118.07 145.341 121.099 146.795C121.099 147.884 121.099 149.035 121.099 149.035L129.035 149.095C129.035 149.095 129.096 147.824 129.096 146.673C132.064 145.16 134.124 142.132 134.124 138.68Z" fill="#E5BFCE"/>
<path d="M126.188 148.974C126.188 148.974 126.188 148.914 126.188 148.853C126.188 148.793 126.188 148.672 126.248 148.551C126.309 148.248 126.309 147.824 126.43 147.279C126.491 146.734 126.612 146.068 126.793 145.341C126.975 144.615 127.218 143.706 127.642 142.859C127.823 142.435 128.066 141.95 128.369 141.526C128.55 141.284 128.732 141.103 128.974 140.982C129.217 140.86 129.58 140.86 129.822 141.042C129.944 141.103 130.065 141.224 130.125 141.405C130.186 141.526 130.186 141.708 130.065 141.89C129.944 142.193 129.641 142.374 129.338 142.495C128.732 142.677 128.066 142.616 127.46 142.374C126.854 142.071 126.369 141.526 126.188 140.86C126.066 140.558 126.066 140.194 126.127 139.831C126.188 139.468 126.551 139.165 126.975 139.225C127.157 139.225 127.339 139.347 127.46 139.528C127.52 139.71 127.581 139.892 127.52 140.073C127.46 140.437 127.157 140.739 126.854 140.982C126.309 141.466 125.521 141.708 124.734 141.587C123.946 141.466 123.28 140.982 122.977 140.255C122.795 139.892 122.795 139.528 122.916 139.165C122.977 138.983 123.098 138.862 123.34 138.741C123.522 138.681 123.764 138.681 123.886 138.802C124.067 138.862 124.189 139.044 124.249 139.225C124.31 139.407 124.37 139.589 124.37 139.77C124.37 140.134 124.37 140.497 124.249 140.8C124.007 141.466 123.522 142.011 122.977 142.314C122.371 142.616 121.705 142.677 121.099 142.556C120.796 142.495 120.493 142.374 120.311 142.132C120.13 141.89 120.069 141.526 120.251 141.284C120.372 141.163 120.493 141.103 120.675 141.103C120.796 141.103 120.978 141.103 121.099 141.163C121.341 141.284 121.523 141.526 121.644 141.769C121.886 142.253 122.068 142.738 122.25 143.161C122.977 144.978 123.462 146.492 123.825 147.521C124.007 148.066 124.128 148.429 124.189 148.732C124.249 148.853 124.249 148.974 124.31 149.035C124.31 149.096 124.31 149.156 124.31 149.156C124.31 149.156 124.31 149.096 124.249 149.035C124.249 148.974 124.189 148.853 124.128 148.732C124.007 148.429 123.886 148.066 123.704 147.521C123.34 146.492 122.856 144.978 122.129 143.222C121.947 142.798 121.765 142.314 121.523 141.829C121.402 141.587 121.22 141.345 120.978 141.224C120.735 141.103 120.433 141.103 120.251 141.284C120.069 141.466 120.13 141.829 120.311 142.011C120.493 142.253 120.796 142.374 121.099 142.435C121.705 142.556 122.371 142.495 122.916 142.193C123.462 141.89 123.946 141.345 124.128 140.739C124.249 140.437 124.31 140.073 124.249 139.77C124.249 139.468 124.067 139.104 123.764 138.923C123.643 138.862 123.462 138.802 123.28 138.862C123.098 138.923 123.038 139.044 122.916 139.225C122.795 139.528 122.795 139.892 122.977 140.255C123.28 140.921 123.946 141.405 124.673 141.466C125.4 141.587 126.127 141.345 126.733 140.921C126.975 140.679 127.278 140.437 127.339 140.073C127.399 139.892 127.339 139.71 127.278 139.589C127.218 139.468 127.036 139.347 126.915 139.347C126.733 139.347 126.612 139.407 126.491 139.468C126.369 139.589 126.248 139.71 126.248 139.892C126.127 140.194 126.188 140.558 126.309 140.86C126.491 141.466 126.975 142.011 127.52 142.314C128.066 142.616 128.732 142.677 129.338 142.435C129.641 142.314 129.883 142.132 130.004 141.89C130.125 141.648 130.065 141.345 129.822 141.163C129.58 141.042 129.277 141.042 129.035 141.163C128.793 141.284 128.611 141.466 128.429 141.708C128.126 142.132 127.884 142.616 127.702 143.04C127.278 143.949 127.036 144.796 126.854 145.523C126.672 146.25 126.551 146.916 126.491 147.461C126.43 148.006 126.369 148.429 126.309 148.672C126.309 148.793 126.248 148.914 126.248 148.974C126.188 148.914 126.188 148.974 126.188 148.974Z" fill="#263238"/>
<path d="M128.49 150.488L121.644 150.428C121.341 150.428 121.16 150.185 121.16 149.943C121.16 149.64 121.402 149.459 121.705 149.459L128.55 149.519C128.853 149.519 129.035 149.762 129.035 150.004C128.974 150.246 128.732 150.488 128.49 150.488Z" fill="#263238"/>
<path d="M128.49 150.912L121.644 150.852C121.341 150.852 121.16 151.094 121.099 151.336C121.099 151.639 121.341 151.82 121.584 151.82H122.311L123.28 153.697C123.401 153.94 123.643 154.061 123.886 154.061H126.309C126.551 154.061 126.794 153.94 126.915 153.697L127.884 151.82H128.369C128.672 151.82 128.853 151.578 128.914 151.336C128.974 151.154 128.732 150.912 128.49 150.912Z" fill="#263238"/>
<g opacity="0.2">
<path d="M117.646 134.987C117.222 135.835 117.04 136.743 116.98 137.591C116.919 138.438 117.04 139.165 117.222 139.71C117.404 140.315 117.585 140.739 117.828 141.042C118.009 141.345 118.191 141.466 118.252 141.405C118.434 141.345 118.131 140.679 118.009 139.528C117.888 138.438 117.949 136.864 118.676 135.411C119.403 133.957 120.554 132.867 121.463 132.322C122.371 131.717 123.098 131.475 123.038 131.293C123.038 131.233 122.856 131.172 122.492 131.233C122.129 131.293 121.644 131.354 121.099 131.656C120.554 131.899 119.887 132.262 119.282 132.867C119.221 132.867 118.07 133.897 117.646 134.987Z" fill="white"/>
</g>
<g opacity="0.2">
<path d="M126.369 131.293C126.369 131.172 126.309 130.99 126.067 130.869C125.885 130.748 125.582 130.627 125.218 130.627C124.855 130.627 124.552 130.688 124.37 130.809C124.189 130.93 124.067 131.111 124.067 131.233C124.128 131.535 124.613 131.717 125.218 131.717C125.218 131.778 126.127 131.656 126.369 131.293Z" fill="white"/>
</g>
<path d="M126.854 153.94C126.854 153.94 126.672 153.879 126.369 153.819C126.066 153.758 125.642 153.637 125.218 153.697C124.734 153.697 124.37 153.819 124.067 153.879C123.764 154 123.643 154.061 123.583 154.061C123.583 154.061 123.704 153.94 124.007 153.819C124.309 153.697 124.734 153.576 125.158 153.576C125.642 153.576 126.066 153.637 126.369 153.758C126.672 153.819 126.854 153.94 126.854 153.94Z" fill="#455A64"/>
<path d="M127.944 151.941C127.944 152.002 126.733 152.002 125.158 152.002C123.643 152.002 122.371 151.941 122.371 151.941C122.371 151.881 123.583 151.881 125.158 151.881C126.733 151.881 127.944 151.941 127.944 151.941Z" fill="#455A64"/>
<path d="M127.521 152.729C127.521 152.729 127.278 152.789 126.854 152.789C126.43 152.789 125.885 152.85 125.219 152.85C124.552 152.85 124.007 152.85 123.583 152.85C123.159 152.85 122.917 152.789 122.917 152.789C122.917 152.789 123.159 152.789 123.583 152.789C124.007 152.789 124.613 152.789 125.219 152.789C125.824 152.789 126.37 152.789 126.854 152.789C127.278 152.729 127.521 152.729 127.521 152.729Z" fill="#455A64"/>
<path d="M245.287 155.575L253.465 153.819C256.555 156.301 260.311 157.997 264.551 158.542C276.667 160.177 287.814 151.699 289.45 139.71C291.085 127.721 282.544 116.7 270.428 115.065C258.312 113.43 247.165 121.908 245.529 133.897C244.863 138.923 245.953 143.767 248.316 147.824L245.287 155.575Z" fill="white"/>
<path d="M245.287 155.575C245.287 155.575 245.348 155.393 245.529 155.03C245.651 154.666 245.893 154.182 246.135 153.516C246.68 152.184 247.407 150.246 248.437 147.763L248.256 147.824C248.316 147.884 248.377 147.884 248.377 147.824C248.437 147.824 248.437 147.763 248.377 147.703C246.923 145.16 245.469 141.526 245.469 137.106C245.408 132.746 246.802 127.599 250.315 123.24C252.072 121.06 254.314 119.122 256.979 117.669C259.645 116.216 262.734 115.307 265.945 115.065C269.216 114.883 272.548 115.368 275.759 116.639C277.334 117.245 278.848 118.153 280.302 119.122C280.666 119.364 280.969 119.667 281.332 119.909C281.635 120.212 282.059 120.454 282.362 120.757C282.968 121.363 283.634 121.968 284.179 122.634C284.482 122.997 284.785 123.3 285.027 123.664L285.754 124.753L286.118 125.298L286.421 125.843L287.087 126.994C287.269 127.357 287.451 127.781 287.632 128.144C287.814 128.568 287.996 128.932 288.117 129.355C288.359 130.203 288.723 130.99 288.844 131.778C289.632 135.047 289.571 138.499 288.905 141.587C288.178 144.736 286.724 147.582 284.906 150.004C283.028 152.365 280.726 154.303 278.303 155.635C275.88 157.028 273.275 157.815 270.791 158.239C268.307 158.663 265.884 158.481 263.703 158.178C259.281 157.391 255.889 155.514 253.587 153.637H253.526C250.921 154.242 248.861 154.727 247.468 155.03C246.802 155.211 246.256 155.332 245.893 155.393C245.469 155.575 245.287 155.575 245.287 155.575C245.287 155.575 245.469 155.575 245.772 155.454C246.135 155.393 246.68 155.272 247.347 155.151C248.74 154.848 250.8 154.424 253.465 153.879H253.405C255.707 155.756 259.099 157.754 263.582 158.542C265.824 158.905 268.247 159.087 270.791 158.663C273.336 158.299 275.94 157.452 278.424 156.059C280.908 154.666 283.271 152.729 285.149 150.307C287.027 147.884 288.541 144.978 289.268 141.769C289.995 138.559 290.056 135.108 289.268 131.778C289.147 130.93 288.783 130.143 288.541 129.295C288.42 128.871 288.238 128.508 288.056 128.084C287.875 127.66 287.693 127.297 287.511 126.873L286.845 125.722L286.542 125.117L286.178 124.572L285.391 123.482C285.088 123.119 284.785 122.816 284.543 122.452C283.998 121.726 283.331 121.12 282.665 120.515C282.362 120.212 281.998 119.97 281.635 119.667C281.272 119.425 280.969 119.122 280.605 118.88C279.151 117.911 277.637 117.003 276.001 116.397C272.79 115.126 269.337 114.581 266.005 114.823C262.674 115.065 259.584 116.034 256.858 117.487C254.132 118.94 251.83 120.939 250.073 123.119C246.499 127.539 245.166 132.807 245.227 137.227C245.287 141.708 246.741 145.341 248.256 147.884L248.377 147.763C248.316 147.703 248.256 147.703 248.256 147.763C248.256 147.763 248.256 147.763 248.256 147.824C247.286 150.367 246.559 152.305 246.075 153.697C245.832 154.364 245.651 154.848 245.529 155.151C245.348 155.454 245.287 155.575 245.287 155.575Z" fill="#263238"/>
<path d="M261.038 136.743C261.038 138.257 259.766 139.468 258.251 139.468C256.737 139.468 255.464 138.196 255.525 136.743C255.586 135.29 256.797 134.018 258.312 134.018C259.826 134.018 261.038 135.29 261.038 136.743Z" fill="#263238"/>
<path d="M270.246 136.803C270.246 138.317 268.974 139.528 267.459 139.528C265.945 139.528 264.672 138.257 264.733 136.803C264.733 135.29 266.005 134.079 267.52 134.079C269.034 134.079 270.246 135.29 270.246 136.803Z" fill="#263238"/>
<path d="M279.515 136.864C279.515 138.378 278.243 139.589 276.728 139.589C275.214 139.589 273.941 138.317 274.002 136.864C274.063 135.411 275.274 134.139 276.789 134.139C278.243 134.139 279.515 135.35 279.515 136.864Z" fill="#263238"/>
<path d="M418 324.697C418 324.758 324.404 324.879 209 324.879C93.5351 324.879 0 324.818 0 324.697C0 324.576 93.5351 324.516 209 324.516C324.404 324.576 418 324.637 418 324.697Z" fill="#263238"/>
<path d="M40.8778 228.488C41.089 228.216 41.5488 227.342 41.9886 227.321C42.1012 227.316 42.4314 227.267 42.4761 227.401C42.632 227.869 42.3806 228.715 42.8957 229.006C43.2909 229.229 43.8958 228.914 44.1546 229.432C44.3257 229.774 44.2969 230.165 44.025 230.45C43.5574 230.94 42.9643 230.817 42.3681 230.882C42.0835 230.913 42.2382 231.462 42.149 231.672C42.0117 231.996 41.7383 232.171 41.4301 232.314C41.1103 232.461 40.6465 232.548 40.3101 232.409C40.071 232.31 39.4399 231.985 39.4399 231.663C39.4399 231.261 39.7215 230.834 40.0478 230.61C40.2914 230.444 40.5446 230.517 40.5446 230.178C40.5446 229.897 40.4968 229.571 40.5538 229.296C40.6138 229.006 40.8621 228.931 41.0999 228.821" stroke="white" stroke-linecap="round"/>
<path d="M50.124 225.237C49.2857 225.548 49.8918 226.962 50.4698 227.257C50.801 227.426 51.2804 227.401 51.65 227.411C51.8115 227.415 52.4311 227.619 52.5283 227.46C52.6799 227.212 52.5781 226.777 52.6051 226.5C52.6321 226.224 52.7745 226.023 52.8796 225.775C53.3782 224.6 50.8902 224.308 50.2228 224.842" stroke="white" stroke-linecap="round"/>
<path d="M32.4763 227.202C33.0527 227.647 33.9971 229.701 33.3696 230.328C32.8642 230.834 32.7278 231.33 32.5477 231.999C32.3809 232.619 31.0023 232.468 30.7075 232.026" stroke="white" stroke-linecap="round"/>
<path d="M31.9939 238.779C33.4716 239.131 38.2443 240.999 36.0852 243.281C35.8949 243.483 35.4255 243.636 35.3081 243.853C35.0281 244.37 35.081 245.154 35.049 245.729C35.0153 246.336 33.6969 246.237 33.2624 246.783C32.9596 247.164 32.905 247.666 32.2529 247.516C31.3929 247.317 30.425 246.379 30.3859 245.461C30.3319 244.191 31.6161 243.769 32.0296 242.727C32.3141 242.011 32.7882 241.059 32.2797 240.316C31.8873 239.742 31.3119 239.666 31.0291 239.101" stroke="white" stroke-linecap="round"/>
<path d="M46.4659 242.799C47.0472 243.169 47.2665 243.589 47.1716 244.291C47.1105 244.743 46.7368 244.917 46.6445 245.309C46.515 245.86 46.4539 246.76 47.0733 246.944C47.7752 247.152 49.1808 247.118 49.646 246.497C49.9146 246.139 49.7928 245.768 49.8604 245.363C49.9561 244.789 50.3282 244.179 50.6466 243.701C51.2218 242.838 51.7159 241.656 51.254 240.548C51.003 239.945 49.6153 240.055 49.1279 239.985C48.24 239.858 47.2459 240.425 46.4837 240.869C45.9534 241.179 46.1443 241.95 46.1443 242.477" stroke="white" stroke-linecap="round"/>
<path d="M41.3201 254.376C40.4659 254.245 40.0337 253.804 40.0337 252.956C40.0337 252.503 40.4003 252.636 40.6143 252.241C40.9482 251.625 41.1593 251.134 41.1593 250.446C41.1593 250.165 40.9734 249.094 41.3915 249.07C42.6575 248.995 42.7981 250.168 42.9012 251.267C42.9362 251.641 42.8049 252.292 43.0888 252.607C43.2419 252.778 43.5037 252.839 43.6337 253.027C44.0539 253.634 43.5246 254.89 42.8565 255.109C42.0299 255.379 41.4473 255.045 40.8377 254.537" stroke="white" stroke-linecap="round"/>
<path d="M59.8115 246.176C59.2033 246.845 58.6864 248.056 59.3648 248.784C59.8518 249.307 59.888 249.698 60.0705 250.347C60.3001 251.163 61.2226 250.77 61.7946 250.508C62.9259 249.991 62.0232 247.869 61.6695 247.033C61.3403 246.255 60.0793 246.042 59.3291 245.854" stroke="white" stroke-linecap="round"/>
<path d="M54.3446 263.542C53.4123 263.398 52.9766 262.351 52.6473 261.576C52.5404 261.325 52.0047 260.113 52.1202 259.843C52.3817 259.233 54.3485 259.522 54.818 259.522C56.0013 259.522 56.8045 259.767 56.56 261.112C56.483 261.535 56.1958 263.381 55.6756 263.381C55.0175 263.381 54.3595 263.381 53.7014 263.381" stroke="white" stroke-linecap="round"/>
<path d="M40.5161 271.26C40.5161 270.253 40.224 267.561 41.8739 267.561C43.2213 267.561 43.4885 268.232 44.4466 269.089C44.799 269.404 45.9497 270.406 45.9831 270.885C46.0431 271.745 45.9477 272.103 45.5096 272.787C45.1709 273.316 44.9363 273.849 44.7325 274.44C44.1165 276.226 42.8334 274.991 41.8024 274.476" stroke="white" stroke-linecap="round"/>
<path d="M59.9723 272.224C59.1797 272.224 58.2641 272.081 57.4889 272.224C56.7009 272.37 56.6866 273.578 56.5956 274.181C56.4965 274.837 56.2344 275.378 55.8631 275.923C55.2525 276.818 55.1484 276.835 55.1484 277.977C55.1484 279.764 56.9679 279.46 58.3375 279.46C58.9232 279.46 60.0616 279.684 60.5351 279.21C61.282 278.463 62.4238 277.958 62.9202 276.977C63.808 275.221 62.8206 272.868 60.7763 272.868" stroke="white" stroke-linecap="round"/>
<path d="M56.1136 291.681C56.0672 290.844 55.3308 290.188 55.3096 289.34C55.2995 288.934 56.4371 289.11 56.6675 289.144C57.2644 289.232 57.7056 289.59 58.3111 289.59C59.0883 289.59 60.3566 290.13 60.6873 290.886C61.1743 291.999 59.3142 293.771 58.2754 293.771C57.3395 293.771 56.4459 292.538 56.2744 291.681" stroke="white" stroke-linecap="round"/>
<path d="M71.0675 289.108C70.1152 288.918 69.4027 287.565 68.8699 286.848C68.5202 286.377 68.6082 285.727 69.1379 285.374C69.7661 284.955 71.0993 285.266 71.8 285.41C72.7669 285.607 74.8671 288.138 73.14 288.59C72.6214 288.726 72.5017 288.877 72.1127 289.179C71.8076 289.417 71.1116 289.269 70.7459 289.269" stroke="white" stroke-linecap="round"/>
<path d="M68.8163 270.456C68.8163 271.79 68.3148 273.486 69.8704 273.922C70.1815 274.009 71.6061 275.007 71.666 274.109C71.7233 273.25 71.0054 272.133 70.8352 271.242C70.5957 269.988 70.2307 270.134 69.1379 270.134" stroke="white" stroke-linecap="round"/>
<path d="M80.2329 268.205C79.5065 269.104 78.6249 270.088 78.6249 271.269C78.6249 272.098 78.1722 273.969 79.5897 273.654C81.1791 273.301 80.2329 269.643 80.2329 268.526" stroke="white" stroke-linecap="round"/>
<path d="M83.6095 277.37C83.6095 278.914 82.8235 280.372 83.0735 281.872C83.3602 283.592 83.9191 283.94 85.4855 283.73C86.1524 283.641 87.4922 283.488 87.9153 282.837C88.2565 282.312 86.1291 280.897 85.95 280.738C84.771 279.69 83.8963 278.629 83.2879 277.209" stroke="white" stroke-linecap="round"/>
<path d="M86.5036 266.114C86.0135 266.735 85.0967 268.563 85.2887 269.366C85.374 269.722 85.9018 270.038 86.1106 270.331C86.6669 271.109 87.2721 271.322 88.0223 271.849C88.6781 272.31 88.6586 271.82 88.5225 271.117C88.3739 270.349 87.791 269.799 87.3791 269.169C86.9293 268.482 86.7629 267.66 86.1821 267.079" stroke="white" stroke-linecap="round"/>
<path d="M94.5434 280.264C94.5434 281.191 94.3455 282.106 94.3826 283.033C94.4075 283.656 96.5695 283.329 96.991 283.158C97.4616 282.968 98.2138 281.973 97.527 281.64C96.6253 281.202 95.3776 280.907 94.3826 280.907" stroke="white" stroke-linecap="round"/>
<path d="M45.3737 210.881C45.2717 210.852 45.7468 210.617 45.7697 210.607C46.0859 210.459 46.4083 210.415 46.7359 210.308C47.3265 210.115 47.95 210.026 48.5311 209.817C48.965 209.661 49.4244 209.456 49.8881 209.456" stroke="white" stroke-width="0.25" stroke-linecap="round"/>
<path d="M44.6133 212.497C46.05 212.321 47.4165 211.827 48.8452 211.62C49.3157 211.552 49.7422 211.377 50.21 211.309C50.5861 211.254 50.9701 211.216 51.3399 211.129C51.946 210.987 52.6316 210.972 53.2143 210.739" stroke="white" stroke-width="0.25" stroke-linecap="round"/>
<path d="M43.9478 214.493C46.6571 214.493 49.3022 214.122 51.9786 213.743C52.673 213.645 53.3717 213.583 54.0641 213.471C54.6073 213.383 55.1411 213.267 55.6904 213.215C56.2627 213.161 56.8795 213.24 57.4433 213.115C57.6124 213.077 57.7949 213.02 57.966 213.02" stroke="white" stroke-width="0.25" stroke-linecap="round"/>
<path d="M47.1792 216.441C47.7668 216.426 48.3601 216.306 48.9401 216.222C50.084 216.055 51.2286 215.954 52.3747 215.813C53.4708 215.677 54.5247 215.499 55.6324 215.467C56.7423 215.435 57.8252 215.365 58.9218 215.187C59.7671 215.05 60.6357 215.036 61.4694 214.828C61.7855 214.749 62.157 214.73 62.4805 214.73" stroke="white" stroke-width="0.25" stroke-linecap="round"/>
<path d="M50.3633 218.057C50.6291 217.879 51.4158 218.008 51.6885 218.004C52.9744 217.983 54.2371 217.887 55.5033 217.663C56.0463 217.567 56.5993 217.544 57.148 217.497C58.0469 217.419 58.9387 217.323 59.8408 217.296C61.8592 217.236 63.8801 217.016 65.881 216.752C66.1796 216.713 66.5285 216.686 66.8288 216.607C67.0328 216.554 67.2616 216.584 67.4703 216.584" stroke="white" stroke-width="0.25" stroke-linecap="round"/>
<path d="M56.208 220.67C57.6514 220.162 59.2154 220.072 60.7276 219.91C62.1597 219.756 63.5766 219.597 64.9991 219.377C66.9973 219.068 68.9826 218.68 70.8915 218.009" stroke="white" stroke-width="0.25" stroke-linecap="round"/>
<path d="M61.7676 222.618C63.2892 222.344 64.7705 221.881 66.2951 221.61C67.1258 221.462 67.9981 221.386 68.8057 221.135C69.0228 221.067 69.287 220.986 69.4816 220.863C69.6589 220.751 70.0537 220.67 70.2736 220.67" stroke="white" stroke-width="0.25" stroke-linecap="round"/>
<path d="M65.7593 223.759C66.3537 223.725 66.9443 223.686 67.5333 223.595C68.0603 223.514 68.5783 223.382 69.1094 223.331C69.4857 223.295 69.7801 223.215 70.0836 222.999" stroke="white" stroke-width="0.25" stroke-linecap="round"/>
<path d="M67.8501 224.614C68.4547 224.614 69.0198 224.552 69.6083 224.424" stroke="white" stroke-width="0.25" stroke-linecap="round"/>
<path d="M49.0276 270.174C49.1847 270.803 49.3877 270.96 49.9918 270.96C50.3854 270.96 50.6096 270.319 50.5988 269.976C50.5945 269.836 50.1567 269.718 50.0672 269.678C49.7391 269.531 49.4862 269.524 49.1863 269.742C48.9953 269.881 48.9448 270.039 49.0276 270.245" stroke="white" stroke-width="0.25" stroke-linecap="round"/>
<path d="M42.3142 265.246C41.8823 265.246 41.7266 264.84 41.4969 264.516C41.1848 264.075 41.0574 263.782 41.3897 263.322C41.9539 262.541 42.4622 262.882 43.2189 263.175C43.4798 263.276 43.7631 263.237 43.9251 263.516C44.1567 263.915 43.6409 264.607 43.3934 264.877C42.9966 265.31 42.9276 265.532 42.3142 265.532" stroke="white" stroke-width="0.25" stroke-linecap="round"/>
<path d="M51.0382 284.859C50.8272 284.061 50.0513 283.64 49.741 282.906C49.5859 282.539 49.2077 282.539 49.4066 282.064C49.7424 281.261 50.7338 281.488 51.4394 281.488C52.075 281.488 53.0075 281.043 53.5926 281.301C54.2143 281.576 53.9646 282.958 53.6996 283.401C53.3089 284.055 52.6868 284.497 51.9476 284.645C51.517 284.731 51.3074 284.979 50.8644 284.979C50.7875 284.979 50.3313 285.039 50.2759 284.966C50.1997 284.864 51.3462 283.828 51.3993 283.775" stroke="white" stroke-width="0.25" stroke-linecap="round"/>
<path d="M60.6673 264.517C60.6673 265.442 60.6673 264.789 60.6673 264.25C60.6673 263.886 60.4212 262.88 61.0016 263.006C61.5861 263.133 62.0615 263.779 62.5931 263.795C63.028 263.808 63.4276 263.837 63.6831 264.236C64.0095 264.746 64.1564 264.975 63.556 265.233C62.8553 265.533 62.0482 265.6 61.2959 265.6C60.9906 265.6 60.6871 265.607 60.3865 265.667C60.3849 265.668 59.9585 265.798 59.9585 265.768C59.9585 265.41 60.0655 265.015 60.0655 264.638" stroke="white" stroke-width="0.25" stroke-linecap="round"/>
<path d="M41.4826 221.514C41.6056 222.572 41.938 222.749 42.9738 222.992C43.2025 222.839 44.9563 221.43 44.7258 221.186C44.3958 220.838 43.143 221.066 42.6796 221.066C42.1937 221.066 41.4031 220.83 41.4826 221.514Z" stroke="white" stroke-width="0.25" stroke-linecap="round"/>
<path d="M39.9649 238.759C39.4908 238.443 39.0325 237.193 39.5235 236.68C40.086 236.092 41.5676 236.688 41.9509 237.241C42.3117 237.763 40.8056 238.27 40.5934 238.906C40.53 239.097 40.6481 239.415 40.5132 239.575C40.0269 240.154 39.3936 239.099 39.2427 238.759" stroke="white" stroke-width="0.25" stroke-linecap="round"/>
<path d="M52.3622 236.593C52.3486 236.307 51.9804 235.507 52.1482 235.269C52.3479 234.986 53.2424 235.148 53.5658 235.148C54.5143 235.148 55.1306 235.027 55.1306 236.232C55.1306 236.826 54.2262 237.371 53.713 237.529C53.0749 237.725 52.2418 236.959 52.2418 236.352" stroke="white" stroke-width="0.25" stroke-linecap="round"/>
<path d="M51.0381 250.916C50.9704 251.593 49.9854 252.962 51.1852 252.962C51.7321 252.962 52.4854 253.098 52.9639 252.788C53.3557 252.535 54.1825 250.916 53.4186 250.916C52.3734 250.916 51.3463 251.037 50.3159 251.037" stroke="white" stroke-width="0.25" stroke-linecap="round"/>
<path d="M33.5856 253.083C34.4194 253.291 34.9904 253.658 35.5649 254.233C35.9737 254.642 35.2755 254.768 35.0366 254.768C34.1538 254.768 32.7219 255.044 33.4652 253.805" stroke="white" stroke-width="0.25" stroke-linecap="round"/>
<path d="M75.4722 267.406C74.7711 267.891 74.134 268.57 74.2017 269.506C74.2505 270.179 75.258 270.305 75.7865 270.154C77.3859 269.697 75.7166 268.031 75.1112 267.526" stroke="white" stroke-width="0.25" stroke-linecap="round"/>
<path d="M75.2314 282.451C75.6021 282.59 75.9167 282.875 76.2612 283.067C76.6577 283.287 77.1858 283.341 77.5518 283.595C77.8209 283.781 77.2707 284.493 77.6253 284.591C78.583 284.857 78.9042 284.256 78.956 283.401C78.9946 282.764 78.6747 282.487 78.2004 282.117C77.977 281.943 77.7187 281.305 77.4381 281.254C77.1653 281.205 76.835 281.235 76.5554 281.248C76.2207 281.263 74.8994 282.105 75.5925 282.451" stroke="white" stroke-width="0.25" stroke-linecap="round"/>
<path d="M78.2402 291.118C78.2402 291.871 79.051 289.569 79.3904 289.446C79.9748 289.233 80.7902 289.95 81.1624 290.322C81.773 290.932 80.2907 291.057 80.0724 291.171C79.8058 291.311 78.7131 291.737 78.6013 291.96" stroke="white" stroke-width="0.25" stroke-linecap="round"/>
<path d="M88.4714 279.442C88.5119 278.876 88.8433 278.236 89.0799 277.724C89.3423 277.155 90.806 278.403 90.9991 278.6C91.6712 279.284 91.3383 280.291 90.5176 280.646C90.0602 280.844 88.5501 280.899 89.0264 280.753C89.5445 280.593 89.5547 280.318 89.5547 279.83C89.5547 279.385 88.7198 279.442 88.3511 279.442" stroke="white" stroke-width="0.25" stroke-linecap="round"/>
<path d="M94.971 274.748C94.6373 274.915 94.7212 276.258 94.7971 276.594C94.9418 277.234 95.4758 276.779 95.6196 276.38C95.9364 275.5 95.6359 275.267 94.971 274.868" stroke="white" stroke-width="0.25" stroke-linecap="round"/>
<path d="M74.8859 275.157C74.9857 275.33 75.2119 275.977 75.4942 275.723C75.6388 275.593 75.703 275.442 75.7549 275.259C75.8526 274.913 75.677 275.004 75.3522 275.004C75.2364 275.004 75.0963 274.998 74.9919 275.06C74.9042 275.112 74.7487 275.119 74.9241 275.119" stroke="white" stroke-width="0.1" stroke-linecap="round"/>
<path d="M62.4925 283.14C62.2655 283.637 61.5883 284.359 62.0326 284.857C62.3596 285.224 62.6391 285.227 62.6391 284.751C62.6391 284.443 62.5658 284.148 62.5658 283.84C62.5658 283.549 62.7856 283.343 62.7856 283.067" stroke="white" stroke-width="0.1" stroke-linecap="round"/>
<path d="M64.6168 290.392C64.5449 290.647 64.0057 291.207 64.1325 291.442C64.3058 291.764 65.1896 292.583 65.5285 292.065C65.9581 291.408 65.6164 290.172 64.7634 290.172" stroke="white" stroke-width="0.1" stroke-linecap="round"/>
<path d="M67.6939 280.869C67.6939 280.329 67.8822 279.814 68.3858 279.53C68.7466 279.326 69.8009 280.843 69.4439 280.983C69.0315 281.144 68.4724 281.089 68.0317 281.089C67.7034 281.089 67.6579 281.054 67.5474 280.722" stroke="white" stroke-width="0.1" stroke-linecap="round"/>
<path d="M47.3573 260.307C46.7382 259.826 46.12 259.409 46.9466 258.836C47.2617 258.618 47.548 258.907 47.7679 259.114C48.1615 259.485 48.8018 260.492 47.9269 260.783C47.7273 260.85 46.5414 261.1 46.5228 260.783C46.4988 260.376 46.7223 260.226 46.9996 259.949" stroke="white" stroke-width="0.1" stroke-linecap="round"/>
<path d="M57.2523 244.808C56.9809 244.51 56.7754 244.145 56.7754 243.735C56.7754 243.053 56.8521 243.015 57.5702 243.113C58.0156 243.173 57.9821 243.436 57.9676 243.828C57.9507 244.283 57.3371 244.349 57.133 244.689" stroke="white" stroke-width="0.1" stroke-linecap="round"/>
<path d="M45.4499 235.509C45.2413 236.278 45.0314 236.809 45.9665 236.933C46.1471 236.957 46.4831 236.981 46.5891 236.794C46.8217 236.384 46.6979 235.661 46.2049 235.622C45.9085 235.598 45.408 235.587 45.2114 235.39" stroke="white" stroke-width="0.1" stroke-linecap="round"/>
<path d="M60.252 255.841C60.7835 256.638 62.3772 258.105 62.8819 256.703C63.2731 255.617 63.0977 254.483 61.707 254.483C60.5596 254.483 61.496 256.035 60.252 256.035" stroke="white" stroke-width="0.1" stroke-linecap="round"/>
</g>
<path d="M215.641 197.22C230.955 181.906 230.955 157.077 215.641 141.763C200.327 126.45 175.498 126.45 160.184 141.763C144.87 157.077 144.87 181.906 160.184 197.22C175.498 212.534 200.327 212.534 215.641 197.22Z" fill="#BD5685"/>
<path d="M220.885 209.101L204.81 200.674L213.237 184.598L220.885 209.101Z" fill="#BD5685"/>
<path d="M229.335 126.379C252.601 103.114 252.601 65.3923 229.335 42.1265C206.069 18.8607 168.348 18.8607 145.082 42.1265C121.816 65.3923 121.816 103.114 145.082 126.379C168.348 149.645 206.069 149.645 229.335 126.379Z" fill="#64CAFE"/>
<path d="M140.751 147.332L147.376 120.589L174.12 127.165L140.751 147.332Z" fill="#64CAFE"/>
<path d="M217.313 86.985C218.819 83.3863 217.123 79.248 213.524 77.7418C209.925 76.2356 205.787 77.9319 204.281 81.5306C202.775 85.1293 204.471 89.2676 208.07 90.7738C211.668 92.28 215.807 90.5837 217.313 86.985Z" fill="white"/>
<path d="M194.409 86.9728C195.915 83.3741 194.219 79.2358 190.62 77.7296C187.021 76.2234 182.883 77.9197 181.377 81.5184C179.87 85.1171 181.567 89.2554 185.165 90.7616C188.764 92.2678 192.902 90.5715 194.409 86.9728Z" fill="white"/>
<path d="M169.096 90.009C172.274 87.7464 173.016 83.3361 170.753 80.1583C168.49 76.9805 164.08 76.2386 160.902 78.5012C157.725 80.7638 156.983 85.1741 159.245 88.3519C161.508 91.5297 165.918 92.2716 169.096 90.009Z" fill="white"/>
<path d="M265.993 281.781H253.474C243.829 281.781 236.035 289.575 236.035 299.221V325.234H265.993V281.781Z" fill="#F2CEA5"/>
<path d="M302.626 210.368H253.961V181.968C253.961 168.523 264.873 157.611 278.318 157.611C291.762 157.611 302.674 168.523 302.674 181.968V210.368H302.626Z" fill="#0F2E4A"/>
<path d="M283.774 222.887C283.774 244.223 280.266 261.468 262.047 261.468C243.829 261.468 229.117 244.175 229.117 222.887C229.117 201.55 243.877 184.306 262.047 184.306C280.217 184.306 283.774 201.599 283.774 222.887Z" fill="#0F2E4A"/>
<path d="M286.745 257.278C304.932 257.278 319.675 245.894 319.675 231.85C319.675 217.806 304.932 206.422 286.745 206.422C268.558 206.422 253.815 217.806 253.815 231.85C253.815 245.894 268.558 257.278 286.745 257.278Z" fill="#0F2E4A"/>
<path d="M211.483 303.41L216.354 314.419L295.075 279.589L285.917 258.837L211.483 303.41Z" fill="#F5876F"/>
<path d="M198.428 309.548C201.399 315.783 208.901 318.462 215.136 315.491C216.841 314.712 217.523 312.666 216.744 311.009L212.652 302.728L198.428 309.548Z" fill="#F5876F"/>
<path d="M328.834 305.018L335.312 302.241C340.671 299.951 343.155 293.716 340.817 288.358L318.653 236.965C316.704 232.483 311.54 230.437 307.059 232.386C302.577 234.334 291.227 251.871 293.175 256.304L328.834 305.018Z" fill="#BD5685"/>
<path d="M339.989 279.833C329.808 279.833 321.527 288.114 321.527 298.295V325.282H339.989V279.833Z" fill="#F2CEA5"/>
<path d="M321.527 247.633C321.527 239.839 318.75 232.678 314.073 227.125C313.684 226.686 313.294 226.248 312.953 225.81C311.686 224.494 310.322 223.228 308.91 222.156C308.423 221.766 307.887 221.377 307.351 221.036C304.623 219.185 301.652 217.772 298.436 216.846C296.001 216.116 293.516 215.726 290.886 215.58C290.399 215.58 289.912 215.58 289.424 215.58H278.902C277.051 215.58 275.298 215.726 273.544 216.018C270.231 216.554 267.114 217.626 264.288 219.087C263.947 219.282 263.606 219.428 263.265 219.623C260.343 221.231 257.761 223.277 255.52 225.712C255.179 226.053 254.838 226.443 254.497 226.833C254.448 226.881 254.4 226.979 254.351 227.027C249.626 232.581 246.8 239.79 246.8 247.682V325.331H321.575V247.633H321.527Z" fill="#BD5685"/>
<path d="M307.351 221.036V249.143H254.302V227.027C254.351 226.979 254.4 226.881 254.448 226.833C254.789 226.443 255.13 226.102 255.471 225.712C257.712 223.277 260.343 221.231 263.217 219.623C263.558 219.428 263.899 219.233 264.24 219.087C267.114 217.577 270.232 216.554 273.495 216.018C275.249 215.726 277.051 215.58 278.854 215.58H289.376C289.863 215.58 290.35 215.58 290.837 215.58C293.468 215.726 296.001 216.116 298.388 216.846C301.603 217.723 304.623 219.185 307.351 221.036Z" fill="#F2CEA5"/>
<path d="M298.388 216.798V239.303H263.217V219.623C263.558 219.428 263.899 219.233 264.24 219.087C267.114 217.577 270.232 216.554 273.495 216.018C275.249 215.726 277.051 215.58 278.854 215.58H289.376C289.863 215.58 290.35 215.58 290.837 215.58C293.468 215.677 296.001 216.116 298.388 216.798Z" fill="#F5876F"/>
<path d="M343.886 252.017L325.618 297.175C324.108 301.315 326.398 305.943 330.636 307.21C334.922 308.525 339.404 305.943 340.427 301.559L354.895 258.74L343.886 252.017Z" fill="#F5876F"/>
<path d="M356.6 243.005C349.732 242.275 343.545 247.244 342.766 254.112C342.571 255.963 343.886 257.619 345.737 257.814L354.847 258.789L356.6 243.005Z" fill="#F5876F"/>
<path d="M274.421 223.618L291.081 215.531V198.871H274.421V223.618Z" fill="#F5876F"/>
<path d="M321.526 291.329C318.068 303.459 313.196 314.858 307.059 325.282H321.526V291.329Z" fill="#F2CEA5"/>
<path d="M268.283 204.912H273.398C285.869 204.912 295.952 194.828 295.952 182.357V181.286C295.952 172.566 288.889 165.503 280.169 165.503H277.393C268.673 165.503 261.609 172.566 261.609 181.286V198.287C261.658 201.94 264.63 204.912 268.283 204.912Z" fill="#F5876F"/>
<path d="M260.197 195.266H261.658V190.492L259.515 194C259.174 194.584 259.563 195.266 260.197 195.266Z" fill="#F5876F"/>
<path d="M263.46 172.712H264.142C270.865 172.712 276.321 178.071 276.321 184.647H293.224V163.651H263.217L263.46 172.712Z" fill="#0F2E4A"/>
<path d="M300.142 171.738H276.077V185.913C276.077 194.049 282.653 200.576 290.74 200.576H300.142V171.738Z" fill="#0F2E4A"/>
<path d="M321.527 247.633C321.527 239.839 318.75 232.678 314.073 227.125C313.684 226.687 313.294 226.248 312.953 225.81C311.687 224.494 310.323 223.228 308.91 222.156C308.423 221.766 307.887 221.377 307.351 221.036C304.623 219.185 301.652 217.772 298.437 216.846V325.331H321.575V247.633H321.527Z" fill="#8A6468"/>
<path d="M287.861 200.053C289.288 198.626 289.288 196.313 287.861 194.886C286.434 193.459 284.121 193.459 282.694 194.886C281.267 196.313 281.267 198.626 282.694 200.053C284.121 201.48 286.434 201.48 287.861 200.053Z" fill="#F2CEA5"/>
<path d="M285.284 209.978C284.553 209.978 283.969 209.393 283.969 208.663V202.427C283.969 201.697 284.553 201.112 285.284 201.112C286.015 201.112 286.599 201.697 286.599 202.427V208.663C286.599 209.393 286.015 209.978 285.284 209.978Z" fill="#F2CEA5"/>
<path d="M180.745 244.662L187.224 257.522L100.807 312.227L86.2412 289.088L180.745 244.662Z" fill="#F2CEA5"/>
<path d="M195.7 237.403C199.353 244.905 196.236 253.917 188.783 257.571L185.129 259.373L180.696 244.662L195.7 237.403Z" fill="#F5876F"/>
<path d="M46.5883 300.146L31 286.799L54.967 232.727C58.7666 224.153 67.6324 219.769 74.5497 223.033C81.6132 226.394 83.7078 236.38 79.0801 244.808L46.5883 300.146Z" fill="#F2CEA5"/>
<path d="M125.796 153.178C125.796 162.775 126.283 175.83 118.051 181.334C105.726 175.245 114.982 144.653 114.982 135.105C114.933 135.057 125.796 143.581 125.796 153.178Z" fill="#8A6468"/>
<path d="M110.841 199.066H104.021C87.4585 199.066 74.0137 185.621 74.0137 169.059V167.597C74.0137 156.003 83.4153 146.602 95.0091 146.602H98.6626C110.256 146.602 119.658 156.003 119.658 167.597V190.2C119.707 195.12 115.761 199.066 110.841 199.066Z" fill="#F5876F"/>
<path d="M90.8202 193.269H94.3275C98.322 193.269 101.537 190.054 101.537 186.059V158.585C101.537 154.591 98.322 151.376 94.3275 151.376H84.2926C77.083 151.376 71.2861 157.221 71.2861 164.382V173.735C71.2861 184.549 80.0058 193.269 90.8202 193.269Z" fill="#0F2E4A"/>
<path d="M135.198 243.687C135.198 231.947 129.693 221.474 121.168 214.995C120.584 214.557 119.999 214.118 119.366 213.729C118.392 213.095 117.369 212.511 116.346 211.926C113.277 210.27 109.916 209.101 106.36 208.516C104.46 208.175 102.56 208.029 100.563 208.029H89.2124C88.6766 208.029 88.1408 208.029 87.6536 208.078C87.1665 208.127 86.6794 208.127 86.2409 208.175H86.1922C84.1463 208.37 82.149 208.711 80.2492 209.296C65.4891 213.388 54.626 227.222 54.626 243.736V325.331H135.198V243.687Z" fill="#F2CEA5"/>
<path d="M86.2409 315.052V208.175H86.1922C84.1463 208.37 82.149 208.711 80.2492 209.296C65.4891 213.388 54.626 227.222 54.626 243.736V325.331H84.4873C85.6077 322.116 86.2409 318.657 86.2409 315.052Z" fill="#BD5685"/>
<path d="M108.698 217.382L86.2412 208.175V183.819H108.698V217.382Z" fill="#F5876F"/>
<path d="M47.0267 294.593C43.1783 280.758 31 286.799 31 286.799L31.7794 325.282H48.6342C48.9265 312.86 48.6342 300.438 47.0267 294.593Z" fill="#F2CEA5"/>
<path d="M86.2412 208.175V201.453L108.698 210.952V217.382L86.2412 208.175Z" fill="#666100"/>
<path d="M108.698 213.631H103.583V261.711H108.698V213.631Z" fill="#666100"/>
<path d="M122.435 186.206H119.707V177.145L123.799 183.867C124.384 184.89 123.653 186.206 122.435 186.206Z" fill="#F5876F"/>
<path d="M84.1954 196.435C88.6283 196.435 92.2331 192.831 92.2331 188.398V184.793C92.2331 180.36 88.6283 176.755 84.1954 176.755C79.7625 176.755 76.1577 180.36 76.1577 184.793V188.398C76.2064 192.879 79.7625 196.435 84.1954 196.435Z" fill="#0F2E4A"/>
<path d="M97.348 186.449H92.2331C89.4077 186.449 87.1182 184.16 87.1182 181.334V177.34C87.1182 174.514 89.4077 172.225 92.2331 172.225C95.0584 172.225 97.348 174.514 97.348 177.34V186.449Z" fill="#F5876F"/>
<path d="M97.2988 167.11V179.97C97.2988 182.601 99.2961 184.793 101.878 185.085V167.402H103.242V167.11H97.2988Z" fill="#0F2E4A"/>
<path d="M101.921 193.186H119.701V167.612H101.921V193.186Z" fill="#F5876F"/>
<path d="M119.707 170.325H103.973C100.368 170.325 97.4453 167.402 97.4453 163.798V163.164C97.4453 159.559 100.368 156.637 103.973 156.637H110.89C115.762 156.637 119.707 160.582 119.707 165.454V170.325Z" fill="#F5876F"/>
<path d="M120.292 186.206V199.504C120.292 201.745 118.44 203.596 116.2 203.596H109.575C102.803 203.596 97.2988 198.14 97.2988 191.418V177.973H101.878V188.593C101.878 189.859 102.95 190.931 104.216 190.931H108.211C109.526 190.931 110.549 189.908 110.549 188.593C110.549 187.326 111.621 186.254 112.887 186.254H120.292V186.206Z" fill="#0F2E4A"/>
<path d="M118.733 156.637C114.739 168.377 89.7486 183.38 76.255 188.982C67.5353 188.982 62.323 173.491 65.0509 160.241C67.4379 148.696 94.425 118.689 109.429 128.724C124.579 138.808 122.338 146.115 118.733 156.637Z" fill="#8A6468"/>
<path d="M135.198 243.687C135.198 231.948 129.693 221.474 121.169 214.995C120.584 214.557 119.999 214.118 119.366 213.729V313.542C119.366 317.683 120.146 321.629 121.607 325.234H135.198V243.687Z" fill="#BD5685"/>
<defs>
<clipPath id="clip0_238_34">
<rect width="418" height="239" fill="white" transform="translate(0 86)"/>
</clipPath>
</defs>
</svg>
