<svg width="29" height="29" viewBox="0 0 29 29" fill="none" xmlns="http://www.w3.org/2000/svg">
<path d="M6.68275 21.1384L6.45821 21.4688L6.73093 21.7607C8.67353 23.8401 11.4325 25.15 14.5 25.15C17.5675 25.15 20.3265 23.8401 22.2691 21.7607L22.5418 21.4688L22.3173 21.1384C20.9303 19.0974 18.6126 17.7294 15.95 17.7294H13.05C10.3889 17.7294 8.06971 19.0974 6.68275 21.1384ZM0.5 14.5C0.5 6.91569 6.91569 0.5 14.5 0.5C22.0843 0.5 28.5 6.91569 28.5 14.5C28.5 22.0843 22.0843 28.5 14.5 28.5C6.91569 28.5 0.5 22.0843 0.5 14.5ZM19.35 11.6C19.35 8.81815 17.2802 6.75 14.5 6.75C11.7214 6.75 9.65 8.81804 9.65 11.6C9.65 14.382 11.7214 16.45 14.5 16.45C17.2802 16.45 19.35 14.3819 19.35 11.6Z" fill="#AFAFAF" stroke="#AFAFAF"/>
</svg>
