<svg width="394" height="394" viewBox="0 0 394 394" fill="none" xmlns="http://www.w3.org/2000/svg">
<g clip-path="url(#clip0_1_2730)">
<path d="M61.2889 43.7778C56.6447 43.7778 52.1907 45.6227 48.9067 48.9067C45.6227 52.1906 43.7778 56.6446 43.7778 61.2889V131.333H131.333V43.7778H61.2889ZM109.445 109.444H65.6667V65.6667H109.445V109.444Z" fill="black"/>
<path d="M43.7778 332.711C43.7778 337.355 45.6227 341.809 48.9067 345.093C52.1907 348.377 56.6447 350.222 61.2889 350.222H131.333V262.667H43.7778V332.711ZM65.6667 284.556H109.445V328.333H65.6667V284.556Z" fill="black"/>
<path d="M262.667 350.222H332.711C337.355 350.222 341.809 348.377 345.093 345.093C348.377 341.809 350.222 337.355 350.222 332.711V262.667H262.667V350.222ZM284.556 284.556H328.333V328.333H284.556V284.556Z" fill="black"/>
<path d="M332.711 43.7778H262.667V131.333H350.222V61.2889C350.222 56.6446 348.377 52.1906 345.093 48.9067C341.809 45.6227 337.355 43.7778 332.711 43.7778ZM328.333 109.444H284.556V65.6667H328.333V109.444Z" fill="black"/>
<path d="M218.889 109.444V87.5555H175.111V131.333H197V109.444H218.889Z" fill="black"/>
<path d="M131.333 131.333H153.222V153.222H131.333V131.333Z" fill="black"/>
<path d="M153.222 153.222H197V175.111H153.222V153.222Z" fill="black"/>
<path d="M218.889 65.6667V87.5555H240.778V43.7778H153.222V87.5555H175.111V65.6667H218.889Z" fill="black"/>
<path d="M43.7778 153.222H65.6667V197H43.7778V153.222Z" fill="black"/>
<path d="M131.333 175.111V197H109.445V153.222H87.5556V197H65.6667V218.889H43.7778V240.778H87.5556V218.889H109.445V240.778H131.333V218.889H153.222V175.111H131.333Z" fill="black"/>
<path d="M218.889 175.111H240.778V197H262.667V175.111H284.556V153.222H240.778V109.444H218.889V131.333H197V153.222H218.889V175.111Z" fill="black"/>
<path d="M197 328.333H153.222V350.222H240.778V328.333H218.889V306.444H197V328.333Z" fill="black"/>
<path d="M240.778 218.889V197H218.889V175.111H197V197H175.111V218.889H197V240.778H218.889V218.889H240.778Z" fill="black"/>
<path d="M328.333 218.889H350.222V240.778H328.333V218.889Z" fill="black"/>
<path d="M240.778 218.889H306.444V240.778H240.778V218.889Z" fill="black"/>
<path d="M328.333 153.222H306.444V175.111H284.556V197H306.444V218.889H328.333V197H350.222V175.111H328.333V153.222Z" fill="black"/>
<path d="M218.889 240.778H240.778V306.444H218.889V240.778Z" fill="black"/>
<path d="M153.222 306.444H175.111V284.556H197V262.667H175.111V218.889H153.222V306.444Z" fill="black"/>
</g>
<defs>
<clipPath id="clip0_1_2730">
<rect width="394" height="394" fill="white"/>
</clipPath>
</defs>
</svg>
