<svg width="408" height="263" viewBox="0 0 408 263" fill="none" xmlns="http://www.w3.org/2000/svg">
<path d="M368 62.7683L385.768 45L403.537 62.7683H368Z" fill="#BD5685"/>
<path d="M281.071 243.591H321.09V262.8H284.593L281.071 243.591Z" fill="#F78268"/>
<path d="M321.09 253.996L317.409 243.591H357.267L360.629 262.8H324.292L321.09 253.996Z" fill="#F78268"/>
<path d="M296.759 143.864L281.071 158.111L274.188 164.354L256.26 156.03L281.392 122.094L287.314 114.25L291.476 127.377L296.759 143.864Z" fill="#BD5685"/>
<path d="M281.071 134.1V243.591H357.267V134.1C357.267 124.335 353.265 115.531 346.862 109.448C346.542 109.128 346.222 108.968 345.902 108.648C342.22 105.446 337.898 102.885 332.936 101.605C330.695 100.964 328.293 100.644 325.892 100.484C325.412 100.484 324.932 100.484 324.452 100.484H313.727C311.806 100.484 310.045 100.644 308.284 100.964C308.124 100.964 307.964 100.964 307.804 101.124C307.484 101.124 307.324 101.284 307.003 101.284C304.122 101.925 301.401 102.885 298.84 104.326C297.239 105.126 295.798 106.087 294.357 107.207C292.597 108.488 290.996 109.928 289.555 111.689C288.755 112.65 287.955 113.61 287.314 114.571C285.393 117.452 283.793 120.493 282.672 123.855C281.552 126.896 281.071 130.418 281.071 134.1Z" fill="#BD5685"/>
<path d="M281.013 231.269H315.75V176.043H281.013V231.269Z" fill="#F78268"/>
<path d="M281.108 185.64H311.843V176.195H281.108V185.64Z" fill="#FCCBCB"/>
<path d="M281.102 231.277H311.836V221.833H281.102V231.277Z" fill="#FCCBCB"/>
<path d="M289.555 111.369C293.877 122.414 304.762 130.098 317.248 130.098C330.854 130.098 342.379 120.974 345.901 108.488C342.219 105.286 337.897 102.725 332.935 101.444C330.694 100.804 328.293 100.484 325.892 100.324C325.412 100.324 324.931 100.324 324.451 100.324H313.726C311.805 100.324 310.044 100.484 308.283 100.804C308.123 100.804 307.963 100.804 307.803 100.964C307.483 100.964 307.323 101.124 307.003 101.124C304.122 101.765 301.4 102.725 298.839 104.166C297.238 104.966 295.798 105.926 294.357 107.047C292.596 108.328 290.995 109.768 289.555 111.369Z" fill="#F78268"/>
<path d="M311.646 109.448L328.454 100.644V82.3955H311.646V109.448Z" fill="#F78268"/>
<path d="M281.071 241.35H357.267L360.949 262.8H281.071V241.35Z" fill="#BD5685"/>
<path d="M310.044 227.584C281.391 152.668 289.555 111.369 289.555 111.369C289.555 111.369 293.076 103.045 306.203 101.124C306.203 101.124 304.282 111.529 318.528 131.699C332.775 151.868 357.427 159.872 357.427 159.872V229.344C357.427 238.789 358.227 246.312 359.828 255.597L361.108 262.64H324.771C319.649 251.595 314.686 239.749 310.044 227.584Z" fill="#FCCBCB"/>
<path d="M310.044 227.584C281.391 152.668 289.555 111.369 289.555 111.369C289.555 111.369 291.316 107.207 296.918 104.166C296.758 104.326 296.758 104.486 296.758 104.486C296.758 104.486 288.594 145.625 317.248 220.7C322.85 235.427 328.933 249.514 335.016 262.8H324.611C319.649 251.595 314.686 239.749 310.044 227.584Z" fill="white"/>
<path d="M354.706 120.974L380.638 180.361H356.947L354.706 120.974Z" fill="#BD5685"/>
<path d="M323.331 192.207L321.25 180.041L380.638 180.361L380.318 186.604C379.838 195.248 371.994 201.811 363.35 200.371L323.331 192.207Z" fill="#F78268"/>
<path d="M334.057 180.041H346.863V197.009L330.215 193.648L334.057 180.041Z" fill="white"/>
<path d="M343.34 180.041H362.869C373.114 180.041 381.438 188.365 381.438 198.61V262.8H343.5V180.041H343.34Z" fill="#BD5685"/>
<path d="M317.249 194.128L327.653 194.288C332.616 194.288 336.618 190.446 336.778 185.484V185.164C336.778 181.962 334.217 179.241 331.015 179.241L323.331 179.081C320.13 179.081 317.409 181.642 317.409 184.844L317.249 194.128Z" fill="#F78268"/>
<path d="M306.203 91.5198C309.245 91.5198 311.806 94.081 311.806 97.1225V91.5198H304.603H306.203Z" fill="#F78268"/>
<path d="M335.817 64.9473V66.2279C335.817 69.2694 335.336 72.3108 334.216 75.0321C330.694 84.7966 321.25 91.8399 310.205 91.8399H304.442C300.28 91.8399 296.918 88.4784 296.918 84.3164V65.1074C296.918 62.7063 297.399 60.4652 298.199 58.2242C300.92 51.8212 307.323 47.179 314.687 47.179H317.728C327.813 47.0189 335.817 55.0227 335.817 64.9473Z" fill="#F78268"/>
<path d="M329.254 88.4783C336.768 88.4783 342.86 82.3865 342.86 74.8719C342.86 67.3573 336.768 61.2656 329.254 61.2656C321.739 61.2656 315.647 67.3573 315.647 74.8719C315.647 82.3865 321.739 88.4783 329.254 88.4783Z" fill="#0F2E4A"/>
<path d="M295.318 80.7947H296.919V75.3522L294.517 79.354C294.197 79.9943 294.678 80.7947 295.318 80.7947Z" fill="#F78268"/>
<path d="M335.816 64.9473V66.2279C335.816 69.2694 335.336 72.3108 334.216 75.0321H320.289C309.724 75.0321 300.92 67.9888 298.359 58.2242C301.08 51.8212 307.483 47.179 314.847 47.179H317.888C327.813 47.0189 335.816 55.0227 335.816 64.9473Z" fill="#0F2E4A"/>
<path d="M317.728 84.1563C320.734 84.1563 323.171 81.7196 323.171 78.7138C323.171 75.7079 320.734 73.2712 317.728 73.2712C314.722 73.2712 312.286 75.7079 312.286 78.7138C312.286 81.7196 314.722 84.1563 317.728 84.1563Z" fill="#FCCBCB"/>
<path d="M223.444 135.38L229.847 124.975L274.188 164.354L269.866 168.836C263.783 175.079 253.538 174.759 247.936 168.036L223.444 135.38Z" fill="#F78268"/>
<path d="M230.328 125.456L241.213 135.06L231.928 146.586L223.444 135.38L230.328 125.456Z" fill="#FCCBCB"/>
<path d="M214 128.337L221.684 135.38C225.365 138.742 230.968 138.422 234.33 134.74L234.49 134.58C236.731 132.179 236.411 128.497 234.009 126.256L231.608 124.175C227.446 120.333 220.883 120.653 217.041 124.975L214 128.337Z" fill="#F78268"/>
<path d="M356.146 159.552L368.952 153.629L380.638 180.361H356.947L356.146 159.552Z" fill="#F78268"/>
<path d="M281.072 158.111L269.866 137.621L259.622 151.388L274.188 164.354L281.072 158.111Z" fill="#F78268"/>
<path d="M213.538 75.3626C225.952 69.3671 231.156 54.4431 225.16 42.0289C219.165 29.6147 204.241 24.4113 191.827 30.4068C179.412 36.4023 174.209 51.3263 180.204 63.7405C186.2 76.1547 201.124 81.3581 213.538 75.3626Z" fill="#FFDAAE"/>
<path d="M180.845 77.4218L184.629 66.5057L195.545 70.2899L180.845 77.4218Z" fill="#FFDAAE"/>
<path d="M227.887 115.569C234.138 110.909 235.427 102.063 230.767 95.812C226.107 89.5609 217.261 88.2714 211.01 92.9318C204.759 97.5923 203.469 106.438 208.13 112.689C212.79 118.94 221.636 120.229 227.887 115.569Z" fill="#F74763"/>
<path d="M201.949 98.308L208.499 97.8714L208.863 104.421L201.949 98.308Z" fill="#F74763"/>
<path d="M146.143 66.1135C159.903 57.1215 163.769 38.6769 154.777 24.9161C145.786 11.1553 127.341 7.28944 113.58 16.2814C99.8193 25.2733 95.9534 43.7179 104.945 57.4787C113.937 71.2394 132.382 75.1054 146.143 66.1135Z" fill="#64CAFE"/>
<path d="M153.117 72.7643L149.842 59.3738L136.452 62.6486L153.117 72.7643Z" fill="#64CAFE"/>
<path d="M118.113 44.7461C120.083 44.7461 121.679 43.1496 121.679 41.1801C121.679 39.2107 120.083 37.6142 118.113 37.6142C116.144 37.6142 114.547 39.2107 114.547 41.1801C114.547 43.1496 116.144 44.7461 118.113 44.7461Z" fill="white"/>
<path d="M133.104 41.1801C133.104 43.145 131.503 44.7461 129.539 44.7461C127.574 44.7461 125.973 43.145 125.973 41.1801C125.973 39.2152 127.574 37.6142 129.539 37.6142C131.503 37.6142 133.104 39.288 133.104 41.1801Z" fill="white"/>
<path d="M141.037 44.7461C143.007 44.7461 144.603 43.1496 144.603 41.1801C144.603 39.2107 143.007 37.6142 141.037 37.6142C139.068 37.6142 137.471 39.2107 137.471 41.1801C137.471 43.1496 139.068 44.7461 141.037 44.7461Z" fill="white"/>
<path d="M55.8901 254.918H92.9323L91.6223 262.196H55.8901V254.918Z" fill="#F5876F"/>
<path d="M22.269 254.918H59.1655L56.6912 262.196H21.0317L22.269 254.918Z" fill="#F5876F"/>
<path d="M78.4502 162.422L92.9323 175.667L99.2637 181.416L116.002 173.702L92.6412 142.336L87.1831 135.059L83.326 147.14L78.4502 162.422Z" fill="#BD5685"/>
<path d="M92.9325 153.398V254.918H22.2686V153.398C22.2686 144.374 25.98 136.223 31.9475 130.547C32.2386 130.256 32.5297 130.038 32.748 129.746C36.1684 126.69 40.2438 124.434 44.683 123.197C46.7935 122.615 48.9767 122.251 51.2327 122.105C51.6694 122.105 52.1788 122.105 52.6154 122.105H62.5855C64.3321 122.105 66.0059 122.251 67.6797 122.542C67.8252 122.542 68.0436 122.615 68.1892 122.615C68.4075 122.615 68.6986 122.687 68.9169 122.76C71.6096 123.342 74.0838 124.288 76.4126 125.526C77.8681 126.326 79.3236 127.199 80.6336 128.218C82.2346 129.455 83.6901 130.838 85.0728 132.294C85.8005 133.167 86.5283 134.04 87.1833 134.913C89.0026 137.533 90.4581 140.444 91.477 143.501C92.423 146.703 92.9325 149.978 92.9325 153.398Z" fill="#BD5685"/>
<path d="M92.9329 192.405H60.7666V243.493H92.9329V192.405Z" fill="#F5876F"/>
<path d="M92.9329 192.405H64.4053V201.211H92.9329V192.405Z" fill="#FFDAAE"/>
<path d="M92.9329 234.687H64.4053V243.493H92.9329V234.687Z" fill="#FFDAAE"/>
<path d="M85.0723 132.366C80.9969 142.555 71.0269 149.759 59.383 149.759C46.793 149.759 36.0952 141.318 32.8203 129.746C36.2407 126.69 40.316 124.434 44.7552 123.197C46.8657 122.615 49.0489 122.251 51.3049 122.105C51.7416 122.105 52.251 122.105 52.6877 122.105H62.6578C64.4044 122.105 66.0782 122.251 67.752 122.542C67.8976 122.542 68.1159 122.615 68.2614 122.615C68.4797 122.615 68.7708 122.687 68.9891 122.76C71.6818 123.342 74.1562 124.288 76.4849 125.526C77.9404 126.326 79.3959 127.199 80.7058 128.218C82.2341 129.455 83.7623 130.838 85.0723 132.366Z" fill="#F5876F"/>
<path d="M64.5503 130.474L49.0493 122.396V105.44H64.5503V130.474Z" fill="#F5876F"/>
<path d="M22.3408 252.735H92.932V262.196H20.667L22.3408 252.735Z" fill="#BD5685"/>
<path d="M22.2686 241.673V177.341C22.2686 177.341 45.047 169.845 58.2919 151.215C71.5368 132.585 69.7174 122.906 69.7174 122.906C81.798 124.579 85.0728 132.366 85.0728 132.366C85.0728 132.366 92.6414 170.573 66.0787 240C63.1677 247.568 60.184 254.991 57.0547 262.196H20.5947C21.7591 255.209 22.3413 249.169 22.2686 241.673Z" fill="#FFDAAE"/>
<path d="M59.3842 233.595C85.9469 164.096 78.3783 125.962 78.3783 125.962C78.3783 125.962 78.3055 125.817 78.2327 125.598C83.4725 128.436 85.0735 132.366 85.0735 132.366C85.0735 132.366 92.6421 170.5 66.0794 240C63.1685 247.568 60.1847 254.991 57.0554 262.196H47.5947C51.5973 253.026 55.6 243.493 59.3842 233.595Z" fill="white"/>
<path d="M24.6703 141.318L0.582031 196.262H22.6327L24.6703 141.318Z" fill="#BD5685"/>
<path d="M53.7801 207.251L55.6722 196.044L0.654785 196.335L0.9459 202.084C1.38255 210.162 8.65997 216.13 16.6651 214.892L53.7801 207.251Z" fill="#F5876F"/>
<path d="M43.81 196.044H32.0205V211.69L47.4487 208.488L43.81 196.044Z" fill="white"/>
<path d="M0 213.219C0 203.758 7.71411 196.044 17.1748 196.044H35.2228V262.196H0V213.219Z" fill="#BD5685"/>
<path d="M59.3836 208.998L49.7046 209.143C45.1198 209.216 41.3355 205.505 41.3355 200.993V200.701C41.2628 197.718 43.7371 195.243 46.7209 195.171L53.78 195.098C56.7637 195.025 59.238 197.499 59.3108 200.483L59.3836 208.998Z" fill="#F5876F"/>
<path d="M69.6451 113.882C66.7341 113.882 64.4053 116.21 64.4053 119.121V113.882H71.0278H69.6451Z" fill="#F5876F"/>
<path d="M42.2095 89.2839V90.4483C42.2095 93.2865 42.7189 96.0519 43.665 98.5263C46.9398 107.623 55.6727 114.1 65.8611 114.1H71.2465C75.1035 114.1 78.2328 110.971 78.2328 107.114V89.2839C78.2328 87.0279 77.7962 84.9174 76.9957 82.9525C74.5213 76.985 68.6266 72.6913 61.713 72.6913H58.8021C49.5597 72.6913 42.2095 80.1143 42.2095 89.2839Z" fill="#F5876F"/>
<path d="M57.1015 107.369C61.9897 102.481 61.9897 94.5553 57.1015 89.667C52.2133 84.7788 44.2879 84.7788 39.3997 89.667C34.5115 94.5552 34.5115 102.481 39.3997 107.369C44.288 112.257 52.2133 112.257 57.1015 107.369Z" fill="#0F2E4A"/>
<path d="M79.6874 103.912H78.1592V98.8903L80.4152 102.602C80.779 103.184 80.3424 103.912 79.6874 103.912Z" fill="#F5876F"/>
<path d="M42.2095 89.2839V90.4483C42.2095 93.2865 42.7189 96.0519 43.665 98.5263H56.6188C66.3706 98.5263 74.5213 91.9038 76.9957 82.9525C74.5213 76.985 68.6266 72.6913 61.713 72.6913H58.8021C49.5597 72.6913 42.2095 80.1143 42.2095 89.2839Z" fill="#0F2E4A"/>
<path d="M63.9686 102.019C63.9686 104.785 61.7126 107.041 58.9471 107.041C56.1817 107.041 53.9258 104.785 53.9258 102.019C53.9258 99.254 56.1817 96.998 58.9471 96.998C61.7126 96.998 63.9686 99.254 63.9686 102.019Z" fill="#FFDAAE"/>
<path d="M146.422 154.563L140.454 144.884L99.3364 181.416L103.339 185.565C109.015 191.386 118.403 191.023 123.57 184.764L146.422 154.563Z" fill="#F5876F"/>
<path d="M139.945 145.466L129.902 154.272L138.563 164.969L146.422 154.563L139.945 145.466Z" fill="#FFDAAE"/>
<path d="M155.009 148.086L147.805 154.563C144.384 157.619 139.145 157.401 136.088 153.98L135.943 153.762C133.905 151.506 134.123 148.086 136.306 146.048L138.49 144.083C142.42 140.517 148.46 140.881 151.953 144.738L155.009 148.086Z" fill="#F5876F"/>
<path d="M23.3605 176.977L11.4254 171.519L0.582031 196.262H22.6327L23.3605 176.977Z" fill="#F5876F"/>
<path d="M92.9326 175.667L103.339 156.673L112.8 169.409L99.264 181.417L92.9326 175.667Z" fill="#F5876F"/>
<path d="M97.2991 139.498H153.408C154.354 139.498 155.082 140.226 155.082 141.172C155.082 142.118 154.354 142.846 153.408 142.846H97.2991C96.353 142.846 95.6252 142.118 95.6252 141.172C95.5524 140.226 96.353 139.498 97.2991 139.498Z" fill="white"/>
<path d="M138.052 142.919H188.048C190.013 142.919 191.614 141.318 191.614 139.353V88.8473C191.614 86.8824 190.013 85.2814 188.048 85.2814H138.052C136.087 85.2814 134.486 86.8824 134.486 88.8473V139.353C134.486 141.318 136.087 142.919 138.052 142.919Z" fill="#BD5685"/>
</svg>
