<svg width="238" height="238" viewBox="0 0 238 238" fill="none" xmlns="http://www.w3.org/2000/svg">
<path d="M119.006 222.595C176.218 222.595 222.598 176.216 222.598 119.003C222.598 61.7908 176.218 15.4109 119.006 15.4109C61.7931 15.4109 15.4133 61.7908 15.4133 119.003C15.4133 176.216 61.7931 222.595 119.006 222.595Z" fill="white"/>
<path d="M119.006 222.595C176.218 222.595 222.598 176.216 222.598 119.003C222.598 61.7908 176.218 15.4109 119.006 15.4109C61.7931 15.4109 15.4133 61.7908 15.4133 119.003C15.4133 176.216 61.7931 222.595 119.006 222.595Z" fill="white"/>
<path d="M45.9241 188.08C46.4838 188.486 47.0436 188.91 47.6033 189.277L47.5454 189.856C47.0049 189.277 46.4645 188.679 45.9241 188.08Z" fill="#F1F1F1"/>
<path d="M226.696 119.01C226.696 176.219 180.328 222.606 123.119 222.606C98.9321 222.606 76.6712 214.313 59.062 200.405L64.2498 198.668C75.303 203.414 87.4735 206.056 100.262 206.056C105.548 206.056 110.717 205.612 115.75 204.744C158.704 197.394 191.417 159.956 191.417 114.879C191.417 83.7097 175.756 56.1646 151.876 39.7327C137.198 29.6446 119.432 23.7234 100.26 23.7234C91.4646 23.7234 82.9592 24.9587 74.9341 27.292C89.3222 19.7109 105.718 15.4109 123.117 15.4109C180.326 15.4109 226.696 61.7791 226.696 119.01Z" fill="#F1F1F1"/>
<path d="M90.5232 69.2637H94.2805V78.2474H96.2278V69.2637H99.9444V67.2607H90.5232V69.2637Z" fill="#BE5683"/>
<path d="M105.911 67.0784L106.588 68.5989L101.915 78.2495H104.073L104.409 77.6319C104.439 77.5761 104.506 77.4818 104.669 77.3574C104.815 77.248 105.01 77.1429 105.252 77.0486C105.497 76.9521 105.803 76.8706 106.162 76.8062C106.522 76.7419 106.94 76.7097 107.401 76.7097H110.461L111.154 78.2495H113.376L108.094 67.0805H105.911V67.0784ZM109.546 74.7045H107.967C107.219 74.7045 106.61 74.7667 106.155 74.889C106.014 74.9276 105.883 74.9683 105.767 75.0112L107.626 70.9922L109.546 74.7045Z" fill="#BE5683"/>
<path d="M119.025 67.2607H117.035V78.2474H124.873V76.2444H119.025V67.2607Z" fill="#BE5683"/>
<path d="M137.537 76.2444C137.35 76.2572 137.155 76.1972 136.93 76.0642C136.692 75.9227 136.413 75.616 136.104 75.1571L134.296 72.4463L137.914 67.2607H135.515L130.505 74.6231V67.2607H128.515V78.2474H130.4L133.113 74.2134L134.524 76.476C134.777 76.8834 135.026 77.2094 135.264 77.4432C135.504 77.6812 135.748 77.8614 135.986 77.9793C136.224 78.0994 136.471 78.1745 136.713 78.2067C136.941 78.2367 137.185 78.2517 137.44 78.2517H138.217V76.2272L137.537 76.2444Z" fill="#BE5683"/>
<path d="M84.1535 86.326H61.2686V91.1942H70.3981V113.02H75.129V91.1942H84.1535V86.326Z" fill="#6854BA"/>
<path d="M93.1651 85.88L94.81 89.573L83.4565 113.02H88.7043L89.5214 111.516C89.5901 111.381 89.753 111.154 90.1519 110.849C90.4994 110.584 90.9755 110.333 91.5652 110.101C92.1679 109.863 92.912 109.666 93.7763 109.513C94.6449 109.359 95.6592 109.282 96.7873 109.282H104.225L105.906 113.022H111.308L98.4708 85.8822H93.1651V85.88ZM101.996 104.411H98.1598C96.3348 104.411 94.855 104.562 93.7613 104.86C93.416 104.954 93.1007 105.053 92.8155 105.158L97.3299 95.3912L101.996 104.411Z" fill="#6854BA"/>
<path d="M128.326 98.5823L118.113 86.326H111.855L115.456 90.6731V113.02H120.221V96.382L128.356 106.189L136.561 96.3734V113.02H141.328V90.6731L144.929 86.326H138.673L128.326 98.5823Z" fill="#6854BA"/>
<path d="M164.597 108.151V86.326H159.761V113.02H178.803V108.151H164.597Z" fill="#6854BA"/>
<path d="M84.1535 140.25H61.2686V145.118H70.3981V166.945H75.129V145.118H84.1535V140.25Z" fill="#6854BA"/>
<path d="M93.1651 139.803L94.81 143.496L83.4565 166.943H88.7043L89.5214 165.44C89.5901 165.305 89.753 165.077 90.1519 164.773C90.4994 164.507 90.9755 164.256 91.5652 164.024C92.1679 163.786 92.912 163.589 93.7763 163.437C94.6449 163.282 95.6592 163.205 96.7873 163.205H104.225L105.908 166.945H111.31L98.4729 139.806H93.1651V139.803ZM101.996 158.335H98.1598C96.3348 158.335 94.855 158.485 93.7613 158.783C93.416 158.877 93.1007 158.976 92.8155 159.081L97.3299 149.315L101.996 158.335Z" fill="#6854BA"/>
<path d="M128.326 152.506L118.113 140.25H111.855L115.458 144.597V166.945H120.223V150.308L128.358 160.115L136.563 150.299V166.945H141.33V144.597L144.929 140.25H138.673L128.326 152.506Z" fill="#6854BA"/>
<path d="M153.306 86.326H148.538V166.945H153.306V86.326Z" fill="#6854BA"/>
<path d="M164.597 162.077V140.25H159.761V166.945H178.805V162.077H164.597Z" fill="#6854BA"/>
<path d="M97.9518 128.935L95.4598 121.54H93.4075L94.0165 123.432L92.2623 128.941L89.6373 121.54H87.5828L91.3079 132.527H93.3024L95.1167 126.807L96.9846 132.527H98.9812L102.391 121.834L102.483 121.54H100.39L97.9518 128.935Z" fill="#BE5683"/>
<path d="M108.851 121.358L109.529 122.879L104.855 132.527H107.013L107.35 131.909C107.38 131.854 107.446 131.759 107.609 131.635C107.755 131.526 107.95 131.42 108.192 131.326C108.437 131.23 108.744 131.148 109.102 131.084C109.462 131.019 109.88 130.987 110.341 130.987H113.402L114.094 132.527H116.316L111.034 121.358H108.851ZM112.486 128.984H110.908C110.159 128.984 109.55 129.046 109.095 129.169C108.954 129.207 108.823 129.248 108.707 129.291L110.567 125.272L112.486 128.984Z" fill="#BE5683"/>
<path d="M121.963 121.54H119.973V132.527H127.811V130.524H121.963V121.54Z" fill="#BE5683"/>
<path d="M140.479 130.524C140.295 130.537 140.098 130.477 139.872 130.344C139.634 130.202 139.356 129.896 139.047 129.437L137.239 126.724L140.857 121.538H138.457L133.447 128.9V121.538H131.457V132.525H133.342L136.055 128.491L137.466 130.753C137.719 131.161 137.968 131.487 138.206 131.721C138.446 131.959 138.691 132.139 138.929 132.257C139.167 132.377 139.413 132.452 139.656 132.484C139.883 132.514 140.128 132.529 140.383 132.529H141.159V130.505L140.479 130.524Z" fill="#BE5683"/>
<path d="M119.01 0C53.3917 0 0 53.3895 0 119.01C0 184.63 53.3895 238 119.01 238C184.63 238 238 184.63 238 119.01C238 53.3895 184.628 0 119.01 0ZM46.0207 204.804L47.5455 189.856L47.6034 189.277L49.6086 169.39C39.2889 155.232 33.1939 137.816 33.1939 119.01C33.1939 71.6957 71.6936 33.1961 119.007 33.1961C130.638 33.1961 141.749 35.5294 151.875 39.7349C182.929 52.6775 204.802 83.3258 204.802 119.01C204.802 166.324 166.321 204.804 119.007 204.804C117.907 204.804 116.829 204.785 115.748 204.746C101.956 204.225 89.0133 200.444 77.6341 194.156L64.2476 198.67L59.0598 200.408L46.0207 204.804Z" fill="#BE5683"/>
<path d="M26.2306 89.9097C25.8038 89.5022 25.2784 89.2149 24.6672 89.0562C24.1075 88.9125 23.5799 88.8589 23.0845 88.8996C22.5827 88.9425 22.1108 89.1312 21.6884 89.4594C21.2745 89.781 20.8927 90.2722 20.5539 90.9134C20.2193 91.5482 19.9148 92.391 19.651 93.4226C19.5223 93.9115 19.3851 94.304 19.235 94.5892C19.0891 94.8702 18.9347 95.0846 18.7782 95.2262C18.628 95.3613 18.4801 95.4406 18.3299 95.4664C18.1734 95.4921 18.0147 95.4878 17.8624 95.447C17.6394 95.3891 17.4356 95.2755 17.2534 95.1103C17.0689 94.9409 16.9188 94.7308 16.8073 94.4884C16.6958 94.2418 16.625 93.9651 16.5971 93.6649C16.5714 93.3668 16.5993 93.0558 16.6808 92.7406C16.773 92.3781 16.8845 92.0457 17.0067 91.7562C17.1268 91.4753 17.2769 91.2072 17.4528 90.9627C17.6265 90.7204 17.8388 90.4845 18.079 90.2593C18.3235 90.032 18.6109 89.7939 18.9369 89.5494L19.0677 89.4508L17.9032 87.7973L17.768 87.8788C16.8802 88.4128 16.1854 89.0476 15.7007 89.7703C15.2203 90.4866 14.86 91.308 14.6262 92.2109C14.4611 92.8564 14.4096 93.4869 14.4804 94.0852C14.5512 94.6836 14.712 95.2326 14.9608 95.7173C15.2117 96.2041 15.542 96.6244 15.9473 96.9654C16.3526 97.3086 16.8094 97.5487 17.3048 97.6774C18.3707 97.9519 19.2843 97.7675 20.0156 97.1306C20.7297 96.5086 21.2809 95.4642 21.6519 94.023C21.7591 93.607 21.8792 93.1909 22.0058 92.7835C22.128 92.3867 22.2846 92.0436 22.469 91.7626C22.6449 91.4946 22.8657 91.293 23.1295 91.1643C23.3826 91.0421 23.7171 91.0313 24.1246 91.1364C24.4549 91.2222 24.7122 91.3809 24.9031 91.6211C25.1004 91.8699 25.242 92.168 25.3256 92.509C25.4092 92.8607 25.4392 93.251 25.4157 93.6713C25.3921 94.1003 25.3256 94.5292 25.2184 94.9431C25.1047 95.3849 24.9438 95.7709 24.738 96.0947C24.5278 96.4228 24.2983 96.7102 24.0474 96.9504C23.7965 97.1927 23.5391 97.3943 23.2818 97.5487C23.018 97.7074 22.7714 97.8425 22.5483 97.9498L22.3875 98.027L23.3762 99.8392L23.5177 99.777C23.9809 99.5754 24.4184 99.3223 24.8238 99.0242C25.2248 98.7261 25.5937 98.3851 25.9175 98.0098C26.237 97.6388 26.5158 97.2335 26.7475 96.8089C26.9791 96.3821 27.1571 95.9317 27.275 95.4728C27.468 94.7179 27.5602 93.9823 27.5474 93.2874C27.5345 92.5905 27.4187 91.9471 27.2042 91.3788C26.9791 90.8105 26.6531 90.315 26.2306 89.9097Z" fill="white"/>
<path d="M26.4599 81.0268C26.5521 80.6493 26.6743 80.2826 26.8223 79.9394L27.6651 77.9686C27.8796 77.4646 28.0018 76.9649 28.0254 76.4802C28.0511 75.9913 27.9761 75.5259 27.8067 75.1013C27.6372 74.6766 27.3777 74.2927 27.0367 73.9539C26.6979 73.6193 26.2647 73.3363 25.75 73.1175C25.2374 72.8988 24.7356 72.7787 24.2574 72.7658C23.7598 72.7401 23.3223 72.8323 22.9084 73.0081C22.4945 73.1818 22.1171 73.4521 21.7847 73.8102C21.4565 74.1641 21.1799 74.5994 20.9654 75.1013L18.5206 80.8144L18.4541 80.971L29.7196 85.792L29.874 85.8585L30.7019 83.9241L26.3676 82.069C26.3483 81.7087 26.3784 81.357 26.4599 81.0268ZM21.2292 79.8708L22.9106 75.9462C23.1229 75.4487 23.3888 75.1163 23.7019 74.9576C24.0064 74.8032 24.4204 74.8375 24.9329 75.0562C25.898 75.4701 26.1467 76.1328 25.7135 77.1451L24.8729 79.1095C24.7142 79.4826 24.5812 79.8644 24.4783 80.244C24.3968 80.5528 24.3624 80.8766 24.3796 81.2155L21.2292 79.8708Z" fill="white"/>
<path d="M35.2635 69.8149L32.8915 68.3416C32.9259 67.9877 33.0095 67.651 33.1425 67.3401C33.2883 66.9969 33.4641 66.6581 33.6657 66.3321L35.1476 63.9452L33.3483 62.8257L31.8643 65.2126C31.6498 65.5579 31.4611 65.9096 31.3024 66.2614C31.1716 66.5466 31.0858 66.8618 31.0515 67.1964L28.3128 65.4957L31.8686 59.7718L30.0693 58.6523L25.4927 66.0211L25.4048 66.1648L35.8125 72.6308L35.9562 72.7209L40.9102 64.7473L40.9981 64.6036L39.1988 63.4841L35.2635 69.8149Z" fill="white"/>
<path d="M36.1792 50.2992L37.9163 50.8203L42.7674 62.0108L44.2557 60.2822L43.9898 59.5788C43.9426 59.4694 43.9255 59.3129 43.9405 59.1091C43.9533 58.8968 44.0112 58.6395 44.112 58.3478C44.2128 58.0583 44.3737 57.7259 44.5903 57.3592C44.8069 56.9967 45.0943 56.6043 45.4438 56.1968L47.7728 53.4946L49.6301 54.0458L51.1656 52.2636L37.6933 48.5492L36.1792 50.2992ZM45.536 52.8405L44.2579 54.3246C43.7024 54.9701 43.3057 55.5384 43.0783 56.0167C42.9668 56.2483 42.881 56.4606 42.8231 56.6493L40.552 51.6567L45.536 52.8405Z" fill="white"/>
<path d="M60.5612 41.3112C60.4025 41.4678 60.1623 41.575 59.847 41.6265C59.5124 41.6822 59.0342 41.6158 58.4144 41.4356L54.7686 40.3719L54.1574 33.58L54.1295 33.2583L52.1887 34.8882L53.2481 45.2894L47.685 38.6712L46.0745 40.0245L53.958 49.4049L54.0652 49.5336L55.6157 48.2297L55.0088 42.5958L58.0498 43.5824C58.5645 43.7518 59.017 43.8526 59.3924 43.8826C59.7762 43.9126 60.1086 43.8912 60.3939 43.8225C60.6812 43.7539 60.9429 43.6445 61.1724 43.4966C61.3933 43.355 61.6163 43.1899 61.835 43.0055L62.4484 42.4908L61.0716 40.8523L60.5612 41.3112Z" fill="white"/>
<path d="M75.4402 23.0178L75.5882 22.9406L74.6188 21.0555L65.3242 25.8444L65.1741 25.9216L66.1456 27.8046L69.9758 25.8315L74.6939 34.9911L76.5189 34.0496L71.8008 24.8922L75.4402 23.0178Z" fill="white"/>
<path d="M84.619 17.0259L82.4315 17.7722L83.6646 19.1018L82.1763 31.2059L84.3337 30.4703L84.4603 29.7304C84.4753 29.6125 84.5418 29.4666 84.6576 29.2972C84.7755 29.1192 84.9535 28.9283 85.1894 28.7289C85.4275 28.5295 85.7341 28.3236 86.1009 28.1198C86.4719 27.9161 86.918 27.7252 87.4241 27.5515L90.8018 26.3999L92.1229 27.8153L94.349 27.0561L84.6897 17.1031L84.619 17.0259ZM89.2105 24.7035L87.3576 25.3362C86.5491 25.6107 85.9186 25.9002 85.4811 26.1961C85.2666 26.3398 85.0886 26.4792 84.9428 26.6122L85.5132 21.1564L89.2105 24.7035Z" fill="white"/>
<path d="M110.157 11.7115L107.465 12.1254L103.478 18.6385L97.8489 13.6588L97.7889 13.6073L95.0974 14.0191L96.9718 15.6854L98.533 25.8894L98.5588 26.0566L100.607 25.7414L99.393 17.8236L103.995 21.9111L107.195 16.6247L108.381 24.3796L108.409 24.5469L110.455 24.2337L108.866 13.8625L110.157 11.7115Z" fill="white"/>
<path d="M118.096 11.6215L116.024 11.6601L116.241 23.9121L116.243 24.0794L118.315 24.0429L118.098 11.7909L118.096 11.6215Z" fill="white"/>
<path d="M127.033 12.0762L127.048 11.9067L124.952 11.7202L123.869 23.9272L123.854 24.0944L132.63 24.8751L132.816 22.7626L126.136 22.1707L127.033 12.0762Z" fill="white"/>
<path d="M143.177 26.8868L143.128 27.0476L145.137 27.6674L146.581 22.975C146.935 22.9171 147.28 22.9128 147.614 22.96C147.99 23.0158 148.363 23.0994 148.721 23.2109L151.408 24.0366L152.03 22.01L149.345 21.1843C148.953 21.0642 148.562 20.9698 148.187 20.9055C147.878 20.8519 147.556 20.8498 147.218 20.9012L148.166 17.8195L154.608 19.801L155.23 17.7744L146.778 15.1752L143.177 26.8868Z" fill="white"/>
<path d="M163.038 21.0276L161.131 20.1355L155.869 31.3881L163.849 35.1219L164.745 33.2025L158.672 30.3587L163.038 21.0276Z" fill="white"/>
<path d="M183.38 32.8658L181.632 31.6949L177.431 37.9614C176.877 38.7849 176.206 39.2481 175.43 39.3382C174.645 39.4347 173.772 39.1602 172.833 38.5318C171.898 37.9056 171.312 37.2 171.1 36.4366C170.887 35.6731 171.057 34.8946 171.614 34.0625L175.721 27.9354L175.816 27.796L174.068 26.6251L169.862 32.9023C168.953 34.2555 168.655 35.5937 168.97 36.8826C169.285 38.1651 170.188 39.3124 171.655 40.2947C172.88 41.116 174.061 41.5278 175.177 41.5278C175.398 41.5278 175.616 41.5107 175.833 41.4785C177.143 41.2812 178.267 40.4941 179.174 39.1409L183.285 33.0031L183.38 32.8658Z" fill="white"/>
<path d="M187.727 43.1834C187.471 43.0011 187.18 42.8574 186.856 42.7566L189.052 40.3976L193.86 44.8755L193.982 44.9913L195.428 43.4407L189.082 37.5281L188.96 37.4123L180.491 46.5032L187.36 52.9005L187.482 53.0163L188.928 51.4658L183.474 46.3852L185.378 44.3415C185.721 44.4444 186.034 44.5924 186.311 44.7811C186.62 44.9891 186.918 45.2272 187.199 45.4888L189.254 47.4039L190.699 45.8534L188.644 43.9383C188.355 43.6681 188.044 43.4128 187.727 43.1834Z" fill="white"/>
<path d="M205.958 55.8901L198.898 61.376L201.332 50.0354L201.349 49.9582L199.678 47.8093L199.136 50.2563L190.851 56.6922L192.121 58.3285L198.449 53.4131L196.232 63.5206L196.215 63.5978L197.437 65.1719L207.249 57.5522L205.958 55.8901Z" fill="white"/>
<path d="M213.833 72.9525L215.69 71.9295L210.564 62.622L208.709 63.645L210.785 67.4195L201.761 72.3885L202.754 74.1899L211.778 69.2209L213.833 72.9525Z" fill="white"/>
<path d="M209.177 82.9398L218.804 79.2661L218.055 77.3017L206.449 81.7303L209.589 89.9612L211.568 89.2042L209.177 82.9398Z" fill="white"/>
<path d="M224.039 96.3392L223.921 96.3264C222.932 96.2213 221.922 95.9982 220.921 95.6658C219.973 95.3506 219.05 94.941 218.175 94.4456C218.72 93.6006 219.346 92.8071 220.037 92.0887C220.77 91.3273 221.56 90.6604 222.383 90.1071L222.482 90.0406L221.907 87.7115L221.703 87.866C220.522 88.7603 219.462 89.7189 218.557 90.7183C217.674 91.6962 216.857 92.7535 216.125 93.8665L210.946 95.1447L211.45 97.1863L216.629 95.9082C217.783 96.5494 218.999 97.1048 220.245 97.5616C221.51 98.0249 222.894 98.383 224.356 98.6232L224.609 98.664L224.039 96.3392Z" fill="white"/>
<path d="M219.181 110.168C220.453 110.168 221.485 109.136 221.485 107.864C221.485 106.592 220.453 105.561 219.181 105.561C217.909 105.561 216.878 106.592 216.878 107.864C216.878 109.136 217.909 110.168 219.181 110.168Z" fill="#F1F1F1"/>
<path d="M18.8294 110.167C20.1015 110.167 21.1327 109.136 21.1327 107.864C21.1327 106.592 20.1015 105.561 18.8294 105.561C17.5573 105.561 16.5261 106.592 16.5261 107.864C16.5261 109.136 17.5573 110.167 18.8294 110.167Z" fill="#F1F1F1"/>
<path opacity="0.41" d="M45.5361 101.306C48.8517 78.0608 65.0605 56.4283 87.5143 48.5963C94.9303 45.9606 102.758 44.7232 110.511 44.6974C102.827 45.7719 95.3356 47.6849 88.2756 50.5608C66.7869 59.2935 51.7511 79.3476 45.5361 101.306Z" fill="#BE5683"/>
<path d="M150.923 82.6911C153.599 82.6911 155.768 80.5221 155.768 77.8464C155.768 75.1708 153.599 73.0018 150.923 73.0018C148.248 73.0018 146.079 75.1708 146.079 77.8464C146.079 80.5221 148.248 82.6911 150.923 82.6911Z" fill="#6854BA"/>
</svg>
