<svg width="29" height="29" viewBox="0 0 29 29" fill="none" xmlns="http://www.w3.org/2000/svg">
<path d="M15.7195 18.995L14.5 15.95L13.2806 18.995L10.15 19.2734L12.528 21.4324L11.8117 24.65L14.5 22.9404L17.1883 24.65L16.472 21.4324L18.85 19.2734L15.7195 18.995ZM5.80002 0H23.2V2.9H5.80002V0ZM2.90002 5.8H26.1V8.7H2.90002V5.8Z" fill="#AFAFAF"/>
<path d="M26.1 14.5V26.1H2.9V14.5H26.1ZM26.1 11.6H2.9C2.13087 11.6 1.39325 11.9055 0.84939 12.4494C0.305535 12.9933 0 13.7309 0 14.5V26.1C0 26.8691 0.305535 27.6068 0.84939 28.1506C1.39325 28.6945 2.13087 29 2.9 29H26.1C26.8691 29 27.6068 28.6945 28.1506 28.1506C28.6945 27.6068 29 26.8691 29 26.1V14.5C29 13.7309 28.6945 12.9933 28.1506 12.4494C27.6068 11.9055 26.8691 11.6 26.1 11.6Z" fill="#AFAFAF"/>
</svg>
