<svg width="375" height="230" viewBox="0 0 375 230" fill="none" xmlns="http://www.w3.org/2000/svg">
<g clip-path="url(#clip0_1_2755)">
<path d="M331.598 134.803L319.304 164.13L362.755 182.443L375.049 153.116L331.598 134.803Z" fill="#EBEBEB"/>
<path d="M375 153.505C375 153.505 374.829 153.619 374.429 153.734C374.03 153.848 373.459 154.077 372.775 154.306C371.291 154.764 369.237 155.45 366.669 156.251C361.477 157.853 354.287 160.085 346.413 162.602L346.242 162.659L346.185 162.488C346.128 162.373 346.07 162.259 345.956 162.087C341.962 154.706 338.367 148.012 335.743 143.092C334.487 140.689 333.403 138.744 332.661 137.313C332.319 136.684 332.034 136.112 331.862 135.711C331.691 135.368 331.577 135.139 331.577 135.139C331.577 135.139 331.691 135.311 331.92 135.654C332.148 136.055 332.433 136.57 332.775 137.199C333.574 138.572 334.601 140.517 335.971 142.92C338.653 147.784 342.305 154.478 346.299 161.801C346.356 161.915 346.413 162.03 346.527 162.201L346.299 162.087C354.23 159.684 361.363 157.51 366.612 155.908C369.18 155.164 371.291 154.535 372.775 154.077C373.459 153.905 374.03 153.734 374.429 153.619C374.829 153.562 375 153.505 375 153.505Z" fill="#E0E0E0"/>
<path d="M319.309 164.547C319.252 164.433 324.216 161.801 330.379 158.654C336.541 155.507 341.563 153.047 341.62 153.104C341.677 153.219 336.713 155.851 330.55 158.998C324.388 162.202 319.309 164.662 319.309 164.547Z" fill="#E0E0E0"/>
<path d="M356.17 158.826C356.284 158.769 357.825 164.147 359.651 170.784C361.477 177.42 362.846 182.799 362.732 182.856C362.618 182.913 361.077 177.535 359.251 170.898C357.425 164.261 356.056 158.883 356.17 158.826Z" fill="#E0E0E0"/>
<path d="M53.1654 188.345L44.0115 210.182L76.3102 223.795L85.4641 201.958L53.1654 188.345Z" fill="#F5F5F5"/>
<path d="M85.4762 202.308C85.4762 202.308 85.3621 202.366 85.0768 202.48C84.7915 202.594 84.335 202.709 83.8215 202.881C82.7373 203.224 81.1967 203.739 79.2566 204.311C75.3765 205.512 70.0699 207.172 64.1927 209.002L64.0786 209.06L64.0215 208.945C63.9645 208.831 63.9074 208.774 63.8504 208.659C60.8832 203.167 58.2014 198.189 56.2613 194.527C55.2913 192.754 54.5495 191.266 53.9789 190.236C53.7507 189.721 53.5225 189.378 53.3513 189.035C53.2372 188.749 53.123 188.634 53.1801 188.634C53.1801 188.634 53.2942 188.749 53.4083 189.035C53.5795 189.321 53.8078 189.721 54.0931 190.179C54.6637 191.209 55.4625 192.639 56.4325 194.413C58.4296 198.017 61.1115 202.995 64.1357 208.488C64.1927 208.602 64.2498 208.659 64.3068 208.774L64.1357 208.716C70.0129 206.943 75.3765 205.284 79.2566 204.082C81.1396 203.51 82.7373 203.052 83.8215 202.709C84.335 202.537 84.7344 202.423 85.0768 202.366C85.305 202.308 85.4762 202.308 85.4762 202.308Z" fill="#E0E0E0"/>
<path d="M43.9934 210.547C43.9364 210.49 47.6453 208.488 52.2101 206.142C56.7749 203.796 60.5409 201.965 60.598 202.022C60.655 202.08 56.9461 204.082 52.3813 206.428C47.8165 208.774 44.0505 210.604 43.9934 210.547Z" fill="#E0E0E0"/>
<path d="M71.4394 206.256C71.4965 206.256 72.6947 210.204 74.0071 215.124C75.3195 220.045 76.3466 224.05 76.2895 224.107C76.2325 224.107 75.0342 220.159 73.7218 215.239C72.4094 210.318 71.3823 206.313 71.4394 206.256Z" fill="#E0E0E0"/>
<path d="M38.284 116.762L-0.017334 131.98L14.6763 169.161L52.9777 153.943L38.284 116.762Z" fill="#F5F5F5"/>
<path d="M16.3763 164.776L19.4576 141.433L32.9238 150.244L35.6627 141.605L48.7866 151.903L16.3763 164.776Z" fill="#E0E0E0"/>
<path d="M30.3561 132.794C30.9838 134.338 30.242 136.055 28.7014 136.627C27.1607 137.256 25.4489 136.512 24.8783 134.968C24.2507 133.423 24.9924 131.706 26.5331 131.134C28.0166 130.505 29.7284 131.306 30.3561 132.794Z" fill="#E0E0E0"/>
<g opacity="0.3">
<path d="M48.7866 152.017C48.7866 152.017 48.7866 151.96 48.7295 151.846C48.6725 151.731 48.6154 151.617 48.5584 151.388C48.3872 150.988 48.1589 150.415 47.8736 149.729C47.303 148.241 46.4471 146.124 45.363 143.435C43.1947 138 40.1134 130.276 36.4045 121.007L36.6328 121.122C27.2749 124.841 16.1481 129.303 4.2796 133.995C4.22254 134.052 4.50784 133.537 4.39372 133.766V133.823V133.881L4.45078 133.995L4.56491 134.281L4.79315 134.796L5.19257 135.826C5.47787 136.512 5.76317 137.199 6.04847 137.943C6.61907 139.316 7.13262 140.689 7.70322 142.062C8.78736 144.808 9.81445 147.44 10.8415 150.072C12.8957 155.279 14.8358 160.199 16.6046 164.719L16.3764 164.604C26.0766 160.771 34.1221 157.624 39.8281 155.393C42.6812 154.306 44.9065 153.391 46.4471 152.818C47.1889 152.532 47.8166 152.303 48.216 152.132C48.3872 152.075 48.5584 152.017 48.6725 151.96C48.7295 152.017 48.7866 152.017 48.7866 152.017C48.7866 152.017 48.7295 152.017 48.6725 152.075C48.5584 152.132 48.4442 152.189 48.216 152.246C47.8166 152.418 47.246 152.647 46.5042 152.933C44.9636 153.562 42.7382 154.42 39.9423 155.565C34.2362 157.853 26.1337 161.114 16.4905 165.005L16.3193 165.062L16.2623 164.891C14.4934 160.371 12.4963 155.45 10.4421 150.244C9.41503 147.669 8.33088 144.98 7.24674 142.234C6.73319 140.861 6.16259 139.488 5.59199 138.114C5.30669 137.428 5.02139 136.741 4.73609 135.998L4.33666 134.968L4.22254 134.453L4.10842 134.167L4.05136 134.052V133.995V133.938C3.93724 134.167 4.16548 133.595 4.16548 133.652C16.034 128.96 27.1608 124.555 36.5186 120.836L36.6898 120.779L36.7469 120.95C40.3987 130.276 43.4229 138.057 45.5912 143.493C46.6183 146.182 47.4742 148.299 48.0448 149.786C48.3301 150.473 48.5013 151.045 48.6725 151.445C48.7295 151.617 48.7866 151.731 48.8437 151.846C48.7866 151.96 48.7866 152.017 48.7866 152.017Z" fill="#E0E0E0"/>
</g>
<path d="M257.741 218.443L255.687 216.955C254.489 216.097 253.69 214.838 253.348 213.408L251.864 207.114C250.894 202.938 247.071 200.249 242.963 200.535L242.392 198.075C242.221 197.445 241.65 197.045 241.023 197.216C240.395 197.388 239.995 197.96 240.167 198.59L240.737 200.993C236.743 202.423 234.347 206.714 235.317 210.948L236.743 217.012C237.028 218.328 236.914 219.702 236.344 220.96L235.031 223.764L243.476 221.818C244.047 222.619 244.903 223.192 245.816 223.363C247.185 223.592 248.612 222.963 249.41 221.876C249.753 221.418 249.924 220.846 249.981 220.331L257.741 218.443Z" fill="#EBEBEB"/>
<path d="M262.648 46.7438L299.167 70.6592L283.761 96.1194L246.386 70.7164L262.648 46.7438Z" fill="#F5F5F5"/>
<path d="M262.648 46.7437L289.067 44.2263C290.209 44.1119 291.236 44.7985 291.578 45.8855L299.167 70.6592" fill="#BD5685"/>
<path d="M262.648 46.7437L289.067 44.2263C290.209 44.1119 291.236 44.7985 291.578 45.8855L299.167 70.6592" fill="#E0E0E0"/>
<path d="M246.386 70.7164C246.386 70.6591 251.408 69.4004 257.57 67.9129C263.79 66.4253 268.811 65.3383 268.811 65.3955C268.811 65.4527 263.79 66.7114 257.627 68.1989C251.465 69.6865 246.386 70.8308 246.386 70.7164Z" fill="#E0E0E0"/>
<path d="M283.761 96.1194C283.704 96.1194 282.905 91.1418 282.049 84.9627C281.193 78.7835 280.508 73.7487 280.622 73.7487C280.679 73.7487 281.478 78.7263 282.334 84.9054C283.19 91.0845 283.875 96.1194 283.761 96.1194Z" fill="#E0E0E0"/>
<path d="M262.648 46.7438L271.265 73.1766L299.167 70.6592L262.648 46.7438Z" fill="#E0E0E0"/>
<path d="M263.561 49.3184L271.036 37.9328L303.104 58.7015L295.572 70.9452L271.379 72.9477L263.561 49.3184Z" fill="#FAFAFA"/>
<path d="M263.561 49.3184C263.561 49.3184 263.618 49.49 263.733 49.7761C263.847 50.0622 263.961 50.4627 264.189 51.0348C264.588 52.1219 265.102 53.7239 265.787 55.7836C267.156 59.903 269.096 65.796 271.493 72.9477L271.379 72.8905C278.34 72.3184 286.614 71.5746 295.572 70.8308L295.458 70.888C296.885 68.5423 298.425 66.1393 299.966 63.6219C300.993 61.9627 302.02 60.3035 303.047 58.6443L303.104 58.8731C290.209 50.4627 278.796 43.0821 271.093 38.0472H271.207C268.868 41.5945 266.985 44.4552 265.673 46.4005C265.045 47.3731 264.531 48.1169 264.189 48.6318C264.018 48.8607 263.904 49.0895 263.79 49.204C263.618 49.2612 263.561 49.3184 263.561 49.3184C263.561 49.3184 263.618 49.2612 263.676 49.1467C263.79 49.0323 263.904 48.8035 264.018 48.5746C264.36 48.0597 264.817 47.3159 265.444 46.3433C266.7 44.3408 268.583 41.4801 270.922 37.8756L271.036 37.7612L271.093 37.8184C278.854 42.8532 290.266 50.2338 303.161 58.587L303.275 58.6443L303.218 58.7587C302.191 60.3607 301.164 62.0199 300.137 63.7363C298.596 66.1965 297.056 68.6567 295.629 71.0025L295.572 71.0597H295.515C286.557 71.8035 278.283 72.49 271.322 73.0622H271.207L271.15 72.9477C268.811 65.796 266.871 59.8457 265.559 55.7263C264.874 53.6666 264.36 52.0647 264.018 50.9776C263.847 50.4627 263.733 50.005 263.618 49.7189C263.618 49.49 263.561 49.3184 263.561 49.3184Z" fill="#E0E0E0"/>
<path d="M294.317 61.1045C294.26 61.1617 289.353 58.0149 283.304 54.0672C277.256 50.1194 272.406 46.8582 272.463 46.801C272.52 46.7438 277.427 49.8905 283.475 53.8383C289.524 57.7861 294.374 61.0473 294.317 61.1045Z" fill="#E0E0E0"/>
<path d="M292.149 64.3085C292.091 64.3657 287.184 61.2189 281.136 57.2711C275.088 53.3234 270.237 50.0622 270.294 50.005C270.352 49.9478 275.259 53.0945 281.307 57.0423C287.355 60.9901 292.206 64.2512 292.149 64.3085Z" fill="#E0E0E0"/>
<path d="M289.752 68.0273C289.695 68.0845 284.788 64.9378 278.739 60.99C272.691 57.0423 267.841 53.7811 267.898 53.7239C267.955 53.6666 272.862 56.8134 278.911 60.7612C284.902 64.7089 289.752 67.9701 289.752 68.0273Z" fill="#E0E0E0"/>
<path d="M287.298 71.7462C287.241 71.8034 282.562 68.8283 276.799 65.0522C271.036 61.2761 266.414 58.1865 266.471 58.0721C266.529 58.0149 271.207 60.99 276.971 64.7661C282.677 68.5422 287.298 71.6318 287.298 71.7462Z" fill="#E0E0E0"/>
<path d="M281.079 72.2611C281.079 72.2611 280.908 72.2039 280.565 71.9751C280.166 71.7462 279.709 71.4602 279.196 71.1169C277.998 70.3159 276.4 69.3432 274.688 68.2562C272.919 67.1119 271.379 66.082 270.237 65.3383C269.667 64.9378 269.21 64.6517 268.925 64.4228C268.64 64.194 268.469 64.0796 268.469 64.0223C268.469 64.0223 268.64 64.0796 268.982 64.3084C269.381 64.5373 269.838 64.8233 270.351 65.1666C271.55 65.9676 273.147 66.9402 274.859 68.0273C276.628 69.1716 278.169 70.2014 279.31 70.9452C279.881 71.3457 280.337 71.6318 280.622 71.8606C280.908 72.0895 281.079 72.2611 281.079 72.2611Z" fill="#E0E0E0"/>
<path d="M274.859 72.6616C274.802 72.7189 273.718 72.0895 272.463 71.2313C271.207 70.3731 270.18 69.6293 270.237 69.5721C270.294 69.5149 271.379 70.1442 272.634 71.0024C273.946 71.8606 274.916 72.6044 274.859 72.6616Z" fill="#E0E0E0"/>
<path d="M135.176 68.199L129.584 76.5523L127.416 75.6368L111.153 85.9353L107.958 77.296C107.958 77.296 117.145 74.5498 119.142 71.6319C121.139 68.714 119.37 67.7413 119.37 67.7413L124.049 63.5647L135.176 68.199Z" fill="#EBEBEB"/>
<path d="M131.41 49.2612C131.41 49.2612 124.962 46.9726 116.688 36.8458C108.415 26.7189 105.447 14.1891 104.306 14.1318C103.165 14.0746 98.429 11.0995 86.4463 30.7239C74.4637 50.291 77.659 55.6119 79.542 55.7836C81.425 55.9552 94.7201 53.9527 102.651 55.7836C110.583 57.6716 120.397 63.107 120.397 63.107L131.41 49.2612Z" fill="#EBEBEB"/>
<path d="M144.134 63.0498L141.338 67.112L140.083 68.9428C138.371 71.4602 135.005 72.1468 132.437 70.5448L118.8 63.8508L129.356 45.8284L142.708 55.1542C145.276 56.9279 145.903 60.4751 144.134 63.0498Z" fill="#E0E0E0"/>
<path d="M87.131 31.1816C80.7403 41.8234 77.4308 51.5498 79.7703 52.9801C82.1097 54.4105 89.1852 46.9154 95.576 36.2737C101.967 25.6319 105.276 15.9055 102.937 14.4751C100.654 13.102 93.5789 20.5398 87.131 31.1816Z" fill="#E0E0E0"/>
<path d="M141.11 63.4502C141.053 63.5647 139.227 62.592 137.002 61.2761C134.833 59.9602 133.065 58.7587 133.179 58.6443C133.236 58.5298 135.062 59.5025 137.287 60.8184C139.455 62.1343 141.167 63.2786 141.11 63.4502Z" fill="#EBEBEB"/>
<path d="M142.594 60.8756C142.537 60.99 140.882 60.0174 138.885 58.7587C136.945 57.5 135.404 56.3557 135.461 56.2413C135.518 56.1268 137.173 57.0995 139.17 58.3582C141.167 59.6169 142.708 60.7612 142.594 60.8756Z" fill="#EBEBEB"/>
<path d="M139.284 66.0821C139.284 66.1393 138.828 65.9677 138.086 65.6816C137.744 65.51 137.344 65.3383 136.831 65.1095C136.374 64.8806 135.918 64.5945 135.404 64.2512C133.407 62.9925 131.923 61.8483 131.98 61.7338C132.038 61.6194 133.692 62.592 135.689 63.7935C136.203 64.0796 136.659 64.4229 137.059 64.6517C137.515 64.8806 137.915 65.1095 138.2 65.3383C138.885 65.7388 139.284 66.0249 139.284 66.0821Z" fill="#EBEBEB"/>
<path d="M97.7443 29.9229C97.7443 29.9229 92.3806 25.6318 88.3293 33.0697C84.221 40.5075 90.1552 42.51 90.1552 42.51C93.1224 38.9627 95.633 34.7861 97.7443 29.9229Z" fill="#FAFAFA"/>
<path d="M105.048 21.3408C105.105 21.3408 104.934 21.8557 104.649 22.8284C104.363 23.7438 103.907 25.1169 103.336 26.7761C102.994 27.5771 102.594 28.4926 102.195 29.408C101.967 29.8657 101.796 30.3806 101.567 30.8955C101.453 31.1244 101.339 31.4105 101.225 31.6393C101.111 31.8682 100.94 32.1543 100.826 32.3831C100.255 33.413 99.6844 34.5 99.1138 35.5871C98.9426 35.8732 98.8285 36.1592 98.6573 36.4453C98.4861 36.7314 98.3149 37.0174 98.1437 37.2463C97.8014 37.8184 97.459 38.3334 97.0596 38.9055C96.7172 39.4776 96.3178 40.0498 95.9754 40.5647C95.8043 40.8508 95.6331 41.1368 95.4619 41.3657C95.2907 41.5946 95.0625 41.8806 94.8913 42.1095C94.1495 43.1393 93.4077 44.0547 92.6659 45.0274C92.4948 45.2562 92.3236 45.4851 92.1524 45.714C91.9812 45.9428 91.753 46.1145 91.5818 46.3433C91.2394 46.7438 90.84 47.1443 90.4977 47.5448C89.8129 48.2886 89.1282 49.0324 88.5576 49.6617C87.3023 50.8632 86.2181 51.8358 85.5334 52.4652C84.7916 53.0945 84.3922 53.495 84.3922 53.4378C84.3922 53.4378 84.7346 53.0373 85.4193 52.2936C86.104 51.607 87.1311 50.5771 88.3294 49.3756C88.9 48.6891 89.5276 48.0025 90.2124 47.2015C90.5547 46.801 90.8971 46.4005 91.2394 46C91.4106 45.7712 91.5818 45.5995 91.81 45.3707C91.9812 45.1418 92.1524 44.913 92.3236 44.6841C93.0083 43.7687 93.7501 42.796 94.4919 41.7662C94.6631 41.5373 94.8913 41.2513 95.0625 41.0224C95.2337 40.7936 95.4048 40.5075 95.576 40.2214C95.9184 39.6493 96.2607 39.1344 96.6602 38.5622C97.0025 37.9901 97.402 37.4751 97.7443 36.903C97.9155 36.6169 98.0867 36.3881 98.2579 36.102C98.429 35.8159 98.5432 35.5299 98.7143 35.2438C99.2849 34.1567 99.9126 33.0697 100.426 32.0398C100.54 31.811 100.711 31.5249 100.826 31.296C100.94 31.0672 101.054 30.7811 101.168 30.5523C101.396 30.0373 101.624 29.5796 101.796 29.1219C102.195 28.2065 102.594 27.2911 102.994 26.4901C103.622 24.8881 104.078 23.5722 104.42 22.5995C104.763 21.7985 104.991 21.3408 105.048 21.3408Z" fill="#E0E0E0"/>
<path d="M74.1213 36.7313C74.1213 36.7885 69.8988 36.6741 64.7634 36.4453C59.5709 36.2164 55.4055 35.9303 55.4055 35.8159C55.4055 35.7587 59.628 35.8731 64.7634 36.102C69.8988 36.388 74.1213 36.6741 74.1213 36.7313Z" fill="#EBEBEB"/>
<path d="M78.1726 24.4875C78.1155 24.5448 73.2654 22.199 67.3311 19.1666C61.3968 16.1343 56.5467 13.6741 56.6038 13.5597C56.6608 13.5025 61.511 15.8482 67.4452 18.8806C73.4365 21.9129 78.2296 24.4303 78.1726 24.4875Z" fill="#EBEBEB"/>
<path d="M85.5333 16.592C85.4762 16.592 84.3921 12.9303 83.1938 8.35323C81.9385 3.77612 81.0256 0 81.0826 0C81.1397 0 82.2238 3.66169 83.4221 8.2388C84.6774 12.8159 85.5904 16.5348 85.5333 16.592Z" fill="#EBEBEB"/>
<path d="M249.41 26.9478C249.011 25.5746 248.098 24.3731 247.014 23.5149C245.93 22.6567 244.617 22.0274 243.191 21.9702C241.707 21.913 240.224 22.4851 239.197 23.5149C238.569 24.1443 238.112 24.8881 237.827 25.7463C237.314 25.1169 236.686 24.6592 235.944 24.3159C234.632 23.6866 233.034 23.6866 231.665 24.2015C230.352 24.7164 229.325 25.7463 228.583 26.8906C227.842 28.0921 227.385 29.5224 227.442 30.9528C227.556 32.7264 228.184 34.5572 229.382 35.9304C230.58 37.3607 232.349 38.3906 234.118 39.0199C237.028 40.1642 240.908 41.5945 240.908 41.5945C240.908 41.5945 243.476 38.8483 245.873 36.7886C247.299 35.5871 248.612 33.9851 249.296 32.2687C249.867 30.6667 249.867 28.6642 249.41 26.9478Z" fill="#EBEBEB"/>
<path d="M223.79 11.8433C223.847 10.9851 223.562 10.1841 223.106 9.44027C222.649 8.75371 222.021 8.18157 221.28 7.83828C220.481 7.495 219.511 7.55222 218.712 7.95271C218.255 8.18157 217.856 8.52485 217.514 8.92535C217.343 8.46764 217.057 8.06714 216.715 7.78107C216.087 7.15172 215.174 6.86565 214.318 6.92286C213.519 6.98008 212.721 7.32336 212.093 7.83828C211.465 8.35321 210.895 9.09699 210.666 9.89799C210.381 10.9278 210.381 12.0721 210.781 13.0448C211.18 14.0746 211.979 14.99 212.835 15.6766C214.261 16.8781 216.144 18.4229 216.144 18.4229C216.144 18.4229 218.084 17.393 219.853 16.7064C220.88 16.3059 221.907 15.6766 222.649 14.8184C223.391 13.9602 223.733 12.8731 223.79 11.8433Z" fill="#EBEBEB"/>
<path d="M117.772 198.818C117.43 198.017 116.859 197.388 116.118 196.988C115.433 196.53 114.577 196.301 113.778 196.358C112.922 196.415 112.066 196.873 111.496 197.56C111.153 197.96 110.925 198.475 110.868 198.933C110.526 198.59 110.126 198.361 109.67 198.189C108.814 197.903 107.901 198.017 107.159 198.418C106.417 198.818 105.904 199.505 105.561 200.249C105.219 200.993 105.048 201.851 105.162 202.709C105.333 203.739 105.847 204.769 106.646 205.512C107.444 206.256 108.586 206.771 109.613 207C111.439 207.458 113.778 208.03 113.778 208.03C113.778 208.03 115.091 206.256 116.346 204.883C117.088 204.082 117.772 203.052 118.058 201.965C118.343 200.935 118.172 199.791 117.772 198.818Z" fill="#EBEBEB"/>
<path d="M342.304 88.9104C342.247 88.9104 342.361 87.8233 341.962 85.8781C341.791 84.9054 341.391 83.7612 340.707 82.5597C340.022 81.3582 339.052 80.0995 337.74 79.0124C336.427 77.9253 334.715 77.0099 332.718 76.5522C330.721 76.1517 328.496 76.0945 326.328 76.8383C325.243 77.1816 324.159 77.6965 323.189 78.383C322.676 78.7263 322.219 79.1268 321.763 79.5273C321.363 79.985 320.907 80.3855 320.507 80.9005C318.967 82.8457 317.997 85.3631 317.883 87.995C317.826 90.6268 318.567 93.2015 319.937 95.2612C320.279 95.7761 320.679 96.2338 321.078 96.6915C321.535 97.092 321.934 97.5497 322.39 97.893C323.303 98.6368 324.33 99.2661 325.415 99.6666C327.526 100.582 329.751 100.696 331.748 100.468C333.745 100.182 335.514 99.3806 336.941 98.4079C338.367 97.4353 339.451 96.2338 340.193 95.0895C340.935 93.9452 341.449 92.8582 341.677 91.8855C342.247 89.9975 342.247 88.9104 342.304 88.9104C342.304 88.9104 342.304 88.9676 342.304 89.082C342.304 89.2537 342.304 89.4253 342.247 89.6542C342.247 89.9403 342.19 90.2263 342.133 90.6268C342.076 91.0273 342.019 91.4278 341.848 91.8855C341.62 92.8582 341.106 93.9452 340.364 95.1467C339.623 96.3482 338.538 97.5497 337.112 98.5796C335.685 99.6094 333.86 100.41 331.805 100.754C329.751 101.04 327.469 100.868 325.3 99.9527C324.216 99.5522 323.189 98.9228 322.219 98.1218C321.706 97.7786 321.306 97.3209 320.85 96.8631C320.45 96.4054 320.051 95.8905 319.709 95.3756C318.225 93.2587 317.483 90.6268 317.54 87.8806C317.654 85.1915 318.624 82.5597 320.279 80.6144C320.679 80.0995 321.135 79.6417 321.535 79.2413C321.991 78.8408 322.505 78.4403 323.018 78.097C324.045 77.4104 325.129 76.8383 326.213 76.5522C328.439 75.8084 330.778 75.8656 332.775 76.2661C334.83 76.7238 336.541 77.6965 337.911 78.8408C339.28 79.985 340.25 81.301 340.878 82.5024C341.506 83.7611 341.905 84.9054 342.076 85.8781C342.19 86.3358 342.247 86.7935 342.247 87.194C342.304 87.5945 342.304 87.8806 342.304 88.1666C342.304 88.3955 342.304 88.6243 342.304 88.7388C342.304 88.8532 342.304 88.9104 342.304 88.9104Z" fill="#E0E0E0"/>
<path d="M329.979 101.154C328.553 101.154 326.898 100.925 325.243 100.239C324.159 99.8383 323.075 99.2089 322.105 98.4079C321.706 98.1219 321.306 97.7214 320.964 97.3781L320.736 97.1492L320.507 96.8632C320.165 96.4627 319.823 96.0622 319.537 95.5472C318.054 93.3731 317.255 90.6841 317.369 87.8806C317.483 85.0771 318.51 82.4453 320.165 80.4428C320.507 79.9851 320.85 79.6418 321.249 79.2413L321.477 79.0124L321.763 78.7836C322.162 78.4403 322.562 78.097 322.961 77.8681C323.988 77.1244 325.129 76.6094 326.271 76.2662C328.895 75.4079 331.349 75.6368 332.947 75.9801C334.83 76.3806 336.656 77.296 338.196 78.6119C339.451 79.6418 340.479 80.9577 341.277 82.388C341.905 83.5895 342.304 84.791 342.533 85.8209C342.647 86.2214 342.647 86.6791 342.704 87.0224V87.1368C342.761 87.4801 342.761 87.7662 342.761 88.1094V88.6816C342.761 88.796 342.761 88.8532 342.761 88.9104C342.761 88.9676 342.761 89.0249 342.761 89.0821L342.704 89.6542C342.704 89.9975 342.647 90.3408 342.59 90.6268V90.7413C342.533 91.0846 342.476 91.4851 342.304 91.9428C342.019 92.9726 341.506 94.1169 340.821 95.2612C339.965 96.6343 338.824 97.8358 337.454 98.7512C335.8 99.8955 333.917 100.697 332.034 100.983C331.292 101.097 330.664 101.154 329.979 101.154ZM329.979 76.5522C328.895 76.5522 327.64 76.7239 326.442 77.1244C325.358 77.4676 324.388 77.9254 323.36 78.6119C322.961 78.8408 322.619 79.1841 322.219 79.4701L321.763 79.9278C321.42 80.2711 321.078 80.6144 320.793 81.0149C319.252 82.903 318.339 85.3632 318.225 87.9378C318.168 90.5124 318.853 93.0298 320.222 95.0323C320.507 95.49 320.793 95.8333 321.135 96.2338L321.363 96.4627L321.592 96.6915C321.934 97.0348 322.276 97.3781 322.619 97.6642C323.532 98.4079 324.502 98.9801 325.529 99.3806C327.868 100.41 330.208 100.353 331.748 100.124C333.517 99.8955 335.286 99.2089 336.827 98.1219C338.082 97.2637 339.166 96.1194 339.965 94.8607C340.65 93.7736 341.163 92.7438 341.449 91.7711C341.848 90.4552 341.905 89.597 341.962 89.1393C341.962 89.0249 341.962 88.9104 342.019 88.8532C342.019 88.796 342.019 88.6816 342.019 88.5671C342.019 88.1094 341.962 87.194 341.734 85.8781C341.563 84.9055 341.106 83.7612 340.536 82.6741C339.794 81.3582 338.824 80.1567 337.626 79.1841C336.142 77.9826 334.43 77.1816 332.718 76.7811C331.919 76.6666 331.007 76.5522 329.979 76.5522Z" fill="#E0E0E0"/>
<path d="M338.082 97.7214C338.139 97.6642 340.764 100.296 343.845 103.672C346.926 107.047 349.38 109.794 349.323 109.908C349.266 109.965 346.698 107.333 343.56 103.958C340.479 100.582 338.025 97.7786 338.082 97.7214Z" fill="#E0E0E0"/>
<path d="M349.437 110.194H349.323C349.209 110.194 348.923 110.194 343.389 104.129C337.797 98.0646 337.854 97.8358 337.854 97.7214V97.6069L337.968 97.5497C338.196 97.3209 338.253 97.3209 340.136 99.2661C341.22 100.41 342.647 101.898 344.13 103.557C345.614 105.159 347.04 106.704 348.068 107.905C349.836 109.908 349.836 109.965 349.608 110.194H349.437Z" fill="#E0E0E0"/>
<path d="M59.5138 72.9478L57.1173 73.9204L49.0147 68.7712L47.1317 64.0224C47.1317 64.0224 43.3657 65.2811 46.2758 71.3458C49.1859 77.4105 48.1018 75.9801 48.1018 75.9801C48.1018 75.9801 40.2845 79.1269 39.9421 80.0995C39.6568 80.7861 42.5669 88.6244 44.1646 92.9154C44.9634 95.0323 47.0747 96.5199 49.243 96.2338C49.5283 96.1766 49.8706 96.1194 50.1559 96.005C52.096 95.204 61.3968 89.6542 61.3968 89.6542L65.5051 87.995L59.5138 72.9478Z" fill="#EBEBEB"/>
<path d="M65.7905 68.8856L70.8688 85.8209L66.7605 87.4229L60.3698 71.4602L65.7905 68.8856Z" fill="#EBEBEB"/>
<path d="M301.278 196.53L298.482 196.988L290.95 189.435L290.037 183.828C290.037 183.828 285.644 184.286 287.355 191.552C289.067 198.818 288.211 197.045 288.211 197.045C288.211 197.045 279.025 198.59 278.397 199.505C277.94 200.192 279.196 209.403 279.938 214.381C280.28 216.898 282.22 218.958 284.617 219.187C284.959 219.244 285.301 219.187 285.644 219.129C287.926 218.729 299.338 214.953 299.338 214.953L304.188 214.152L301.278 196.53Z" fill="#F5F5F5"/>
<path d="M309.038 193.669L310.465 213.122L305.672 213.923L302.591 195.1L309.038 193.669Z" fill="#F5F5F5"/>
<path d="M152.294 214.667C154.976 214.438 157.429 212.55 158.399 209.632C159.598 205.856 157.772 201.851 154.234 200.706C150.696 199.562 146.873 201.679 145.618 205.455C144.705 208.373 145.561 211.405 147.672 213.179C137.344 211.52 134.377 222.391 134.377 222.391L157.658 229.943C157.6 230 161.595 219.301 152.294 214.667Z" fill="#EBEBEB"/>
<path d="M304.131 185.259H74.6349C55.0632 185.259 39.2004 169.353 39.2004 149.729V147.211C39.2004 127.587 55.0632 111.682 74.6349 111.682H304.131C323.703 111.682 339.566 127.587 339.566 147.211V149.729C339.509 169.353 323.703 185.259 304.131 185.259Z" fill="#BD5685"/>
<g opacity="0.3">
<path d="M304.131 185.259H74.6349C55.0632 185.259 39.2004 169.353 39.2004 149.729V147.211C39.2004 127.587 55.0632 111.682 74.6349 111.682H304.131C323.703 111.682 339.566 127.587 339.566 147.211V149.729C339.509 169.353 323.703 185.259 304.131 185.259Z" fill="black"/>
</g>
<path d="M302.876 179.194H75.8901C55.6337 179.194 39.2574 162.716 39.2574 142.463C39.2574 122.152 55.6908 105.731 75.8901 105.731H302.876C323.132 105.731 339.509 122.209 339.509 142.463C339.509 162.774 323.132 179.194 302.876 179.194Z" fill="#BD5685"/>
<g opacity="0.3">
<path d="M257.798 105.731C257.798 105.731 256.144 105.789 255.288 105.789C252.435 105.731 247.299 105.731 247.299 105.731L243.647 112.54C244.503 114.313 245.587 116.373 247.527 116.774C248.497 116.945 249.467 116.716 250.438 116.43C252.72 115.687 254.945 114.599 256.828 113.112C257.969 112.196 258.997 111.052 259.339 109.679C259.681 108.192 259.111 106.303 257.798 105.731Z" fill="black"/>
</g>
<g opacity="0.3">
<path d="M127.244 113.055C126.388 110.938 125.019 107.104 123.193 105.731C123.193 105.731 111.667 105.903 111.61 105.731L116.974 124.955C118.685 126.328 119.541 128.216 120.112 129.99C120.682 131.764 121.139 133.709 122.394 135.025C123.707 136.398 126.16 136.741 127.301 135.254C128.557 133.595 127.187 131.249 127.13 129.132C127.073 127.072 128.386 125.184 128.956 123.182C129.926 119.806 128.557 116.259 127.244 113.055Z" fill="black"/>
</g>
<path d="M213.805 46.4005C214.604 44.3408 215.402 42.2811 215.402 40.107C215.402 37.9329 214.432 35.5871 212.549 34.6145C210.781 33.7562 208.669 34.2712 206.786 33.6418C204.504 32.898 202.963 30.6095 201.879 28.3781C200.795 26.1468 199.882 23.6866 198.17 22.0274C195.831 19.7388 192.065 19.2811 189.269 20.8259C187.158 19.3956 184.419 18.709 182.365 18.709C179.283 18.709 175.803 19.0523 173.748 21.3408C172.151 23.1145 171.124 25.2886 169.127 26.6045C166.388 28.3781 162.736 27.0622 159.483 27.2911C158.799 27.3483 158.057 27.5199 157.772 28.1493C157.543 28.6642 157.829 29.2936 158.114 29.8085C159.027 31.5249 159.94 33.2985 160.796 35.015C159.426 35.7015 157.772 35.7015 156.402 35.015C156.63 38.4478 158.171 41.8234 160.567 44.2836C159.997 43.8831 159.084 44.3408 158.856 45.0274C158.57 45.714 158.742 46.4577 158.97 47.1443C160.225 51.3209 163.421 54.9254 167.415 56.699C171.409 58.4727 176.202 58.4727 180.139 56.5846L198.227 57.3856C198.798 58.7587 199.996 59.8458 201.423 60.1891C203.42 58.6443 203.705 57.7861 203.705 57.7861C204.96 58.7015 203.99 58.2438 204.96 58.7015C207.243 59.7314 210.495 58.3582 210.952 55.7836C211.123 54.7538 211.408 53.7239 212.093 52.9801C212.778 52.2363 213.805 51.8931 214.661 51.4354C216.087 50.6916 217.228 49.4329 217.856 47.9453C216.372 48.0025 214.889 47.4304 213.805 46.4005Z" fill="#263238"/>
<path d="M169.127 39.4776C169.184 30.3806 176.202 22.8856 185.275 22.199L186.188 22.1418C195.945 21.9702 201.48 30.209 201.366 39.9925L202.792 84.9627L180.596 86.5647L179.74 71.9751C179.74 71.9751 170.325 71.2313 169.526 61.8483C169.127 57.2711 169.069 47.9453 169.127 39.4776Z" fill="#FFBE9D"/>
<path d="M173.805 46.5721C173.805 47.2587 174.433 47.8309 175.175 47.8309C175.917 47.8309 176.487 47.2587 176.43 46.5149C176.43 45.8284 175.803 45.2562 175.061 45.2562C174.376 45.2562 173.805 45.8284 173.805 46.5721Z" fill="#263238"/>
<path d="M171.98 43.0821C172.151 43.2538 173.121 42.3956 174.547 42.3384C175.974 42.2239 177.058 42.8533 177.229 42.6816C177.286 42.6244 177.115 42.2811 176.601 41.9951C176.145 41.709 175.346 41.4229 174.433 41.4801C173.52 41.5374 172.835 41.9379 172.436 42.2811C171.98 42.6816 171.865 42.9677 171.98 43.0821Z" fill="#263238"/>
<path d="M181.451 54.7537C181.451 54.6965 180.539 54.5821 179.112 54.5249C178.77 54.5249 178.37 54.4677 178.313 54.2388C178.199 53.9527 178.313 53.5522 178.484 53.1517C178.77 52.2363 179.055 51.2637 179.34 50.2911C180.539 46.2289 181.394 42.8532 181.223 42.796C181.052 42.7388 179.968 46 178.713 50.1194C178.427 51.1493 178.142 52.0647 177.857 52.9801C177.743 53.3806 177.571 53.8955 177.8 54.4105C177.914 54.6965 178.199 54.8682 178.427 54.9254C178.656 54.9826 178.884 54.9826 179.055 54.9826C180.539 54.8682 181.451 54.811 181.451 54.7537Z" fill="#263238"/>
<path d="M171.523 39.592C171.865 39.8781 173.064 39.4776 174.49 39.3632C175.917 39.1915 177.172 39.4204 177.457 39.0771C177.572 38.9055 177.343 38.5622 176.773 38.3333C176.202 38.0473 175.346 37.8756 174.319 37.9328C173.349 38.0473 172.493 38.3905 171.98 38.7338C171.523 39.1343 171.352 39.4776 171.523 39.592Z" fill="#263238"/>
<path d="M200.453 46.9727C200.624 46.9155 206.729 44.6269 206.958 50.9777C207.243 57.3856 200.738 56.2985 200.738 56.1269C200.738 56.0125 200.453 46.9727 200.453 46.9727Z" fill="#FFBE9D"/>
<path d="M202.05 53.7239C202.05 53.7239 202.164 53.7811 202.336 53.8956C202.507 53.9528 202.849 54.01 203.191 53.8956C203.876 53.6095 204.39 52.5224 204.39 51.3781C204.39 50.806 204.219 50.2339 203.99 49.7761C203.762 49.3184 203.477 48.9752 203.134 48.9752C202.792 48.9179 202.564 49.1468 202.507 49.3184C202.45 49.4901 202.45 49.6045 202.45 49.6617C202.45 49.6617 202.336 49.5473 202.336 49.3184C202.336 49.204 202.45 49.0324 202.564 48.9179C202.735 48.8035 202.906 48.6891 203.191 48.7463C203.705 48.7463 204.162 49.204 204.39 49.7189C204.675 50.2339 204.846 50.806 204.846 51.4926C204.846 52.8085 204.276 54.01 203.363 54.2961C202.906 54.4105 202.564 54.296 202.336 54.1816C202.05 53.8956 202.05 53.7239 202.05 53.7239Z" fill="#EB996E"/>
<path d="M202.621 32.3831C202.621 32.3831 202.107 29.9802 200.167 27.2339C196.801 22.5996 189.212 20.4254 184.875 20.7687C180.539 21.1692 176.031 24.3732 172.037 25.9752C169.412 27.005 167.415 29.4652 168.385 31.3533C166.787 31.9826 165.189 32.3831 163.478 32.4404C163.478 32.4404 163.306 34.8433 164.676 35.4727L168.841 38.219C174.376 38.9627 184.133 33.4702 186.016 31.7538C187.671 30.2662 189.954 28.5498 191.779 27.6344C190.011 32.2687 195.774 31.2389 195.602 33.0697C193.834 39.5921 199.14 42.0523 199.14 42.0523L199.254 47.7737C199.14 49.2612 199.768 50.3483 201.251 50.2911C201.251 50.2911 202.849 48.117 203.077 46.3433C203.591 42.7389 203.249 35.816 202.621 32.3831Z" fill="#263238"/>
<path d="M179.683 71.9179C179.683 71.9179 185.674 71.8607 191.608 67.4553C191.608 67.4553 189.212 74.3781 179.854 74.2065L179.683 71.9179Z" fill="#EB996E"/>
<path d="M187.215 45.7139C187.215 46.4005 187.842 46.9726 188.584 46.9726C189.326 46.9726 189.896 46.4005 189.839 45.6567C189.839 44.9702 189.212 44.398 188.47 44.398C187.785 44.398 187.215 44.9702 187.215 45.7139Z" fill="#263238"/>
<path d="M185.731 42.3383C185.902 42.51 187.043 41.8234 188.584 41.8806C190.125 41.9378 191.266 42.6816 191.437 42.51C191.494 42.4528 191.323 42.1095 190.866 41.7662C190.41 41.4229 189.554 41.0796 188.584 41.0224C187.614 40.9652 186.758 41.3085 186.302 41.5946C185.788 41.9378 185.617 42.2811 185.731 42.3383Z" fill="#263238"/>
<path d="M185.56 37.8184C185.674 38.2189 187.158 38.0473 188.812 38.2762C190.524 38.4478 191.836 38.9627 192.065 38.6194C192.179 38.4478 191.951 38.1045 191.38 37.704C190.866 37.3035 189.954 36.9602 188.983 36.8458C187.956 36.7314 187.043 36.903 186.416 37.1319C185.788 37.3607 185.503 37.6468 185.56 37.8184Z" fill="#263238"/>
<path d="M181.337 57.5C182.079 57.1567 184.247 56.699 185.046 56.5846L185.959 56.2985C186.416 56.8707 186.53 58.3582 186.188 58.9876C185.845 59.6169 185.16 60.0746 184.419 60.1891C183.905 60.3035 183.335 60.2463 182.935 59.9602C182.821 59.9602 181.68 59.4453 181.337 57.5Z" fill="#EB996E"/>
<path d="M183.791 60.1891C183.791 60.1319 184.419 60.1891 185.16 59.6742C185.503 59.3881 185.845 58.9876 186.016 58.4155C186.188 57.8433 186.188 57.1568 186.016 56.5274C186.016 56.4702 186.016 56.4702 185.959 56.413L186.131 56.5274C184.761 56.8135 183.506 57.0995 182.65 57.2712C181.737 57.4428 181.166 57.5573 181.166 57.5C181.166 57.4428 181.68 57.3284 182.593 57.0995C183.506 56.8707 184.704 56.5846 186.073 56.2985L186.188 56.2413L186.245 56.3558C186.245 56.413 186.245 56.413 186.302 56.4702C186.53 57.214 186.473 57.9578 186.302 58.5299C186.073 59.1592 185.674 59.617 185.275 59.903C184.875 60.1891 184.476 60.3035 184.19 60.3035C183.962 60.2463 183.791 60.1891 183.791 60.1891Z" fill="#263238"/>
<path d="M212.835 51.8931C212.835 51.8931 212.721 51.8931 212.435 51.7786C212.207 51.6642 211.865 51.4926 211.522 51.0921C211.237 50.6916 210.952 50.1194 210.838 49.4329C210.723 48.7463 210.838 47.9453 210.952 47.0299C211.066 46.1717 211.123 45.199 210.838 44.2264C210.666 43.7687 210.381 43.311 209.982 42.9677C209.582 42.6244 209.069 42.3956 208.555 42.1095C208.042 41.8806 207.471 41.5946 206.957 41.2513C206.444 40.908 205.987 40.3359 205.759 39.7637C205.246 38.5622 205.303 37.1891 205.017 35.9304C204.846 35.301 204.618 34.6717 204.276 34.1568C203.876 33.6418 203.363 33.3558 202.735 33.2413C202.164 33.1269 201.537 33.0697 200.909 32.9553C200.281 32.8408 199.711 32.5548 199.311 32.0971C198.912 31.6393 198.741 31.0672 198.57 30.4951C198.455 29.9801 198.341 29.408 198.227 28.9503C198.113 28.4354 197.942 27.9777 197.771 27.5772C197.543 27.1767 197.314 26.7762 197.029 26.4901C195.888 25.1742 194.461 24.7165 193.491 24.5448C192.521 24.4304 192.008 24.5448 192.008 24.4876C192.008 24.4876 192.521 24.316 193.548 24.4304C194.518 24.5448 196.002 25.0025 197.2 26.3184C197.485 26.6617 197.771 27.0622 197.999 27.4627C198.227 27.9204 198.398 28.3781 198.513 28.8931C198.627 29.408 198.741 29.9229 198.855 30.4378C198.969 30.9528 199.197 31.4677 199.54 31.9254C199.882 32.3259 200.453 32.612 201.023 32.6692C201.594 32.7836 202.221 32.7836 202.849 32.9553C203.477 33.0697 204.104 33.413 204.561 33.9851C204.96 34.5573 205.246 35.1866 205.36 35.8732C205.645 37.1891 205.588 38.5622 206.102 39.7065C206.33 40.2786 206.729 40.7364 207.186 41.0796C207.642 41.4229 208.213 41.6518 208.726 41.9379C209.24 42.1667 209.753 42.4528 210.21 42.7961C210.666 43.1393 210.952 43.6543 211.123 44.1692C211.465 45.199 211.351 46.2289 211.237 47.0871C211.123 47.9453 211.009 48.7463 211.123 49.4329C211.18 50.1194 211.408 50.6916 211.693 51.0349C212.264 51.8359 212.892 51.8931 212.835 51.8931Z" fill="#455A64"/>
<path d="M161.48 29.1219C161.48 29.1219 161.595 29.1791 161.766 29.2935C161.994 29.4652 162.222 29.6368 162.565 29.8657C163.249 30.3234 164.276 31.01 165.703 31.4677C167.072 31.9826 168.955 32.2115 170.838 31.5821C171.751 31.2388 172.607 30.6667 173.292 29.8085C173.977 28.9503 174.433 27.9776 174.947 26.9478C175.46 25.9179 176.145 24.9453 177.001 24.2015C177.857 23.4577 178.77 22.9428 179.74 22.5995C181.68 21.9129 183.563 21.9702 185.046 22.199C186.53 22.4851 187.671 22.9428 188.47 23.2861C188.869 23.4577 189.155 23.6294 189.326 23.7438C189.497 23.8582 189.611 23.9154 189.611 23.9154C189.611 23.9154 189.497 23.8582 189.269 23.801C189.041 23.6866 188.755 23.5722 188.356 23.4005C187.557 23.1144 186.416 22.6567 184.932 22.4279C183.449 22.199 181.623 22.199 179.797 22.8856C178.884 23.2289 177.971 23.7438 177.172 24.4304C176.373 25.1169 175.746 26.0324 175.232 27.0622C174.718 28.0921 174.205 29.1219 173.52 29.9801C172.835 30.8383 171.922 31.4677 170.952 31.811C169.012 32.4975 167.072 32.1542 165.703 31.6393C164.276 31.1244 163.249 30.3806 162.565 29.9229C162.222 29.694 161.994 29.4652 161.823 29.3508C161.595 29.2363 161.48 29.1219 161.48 29.1219Z" fill="#455A64"/>
<path d="M159.084 37.6468C159.141 37.5896 159.54 37.9901 160.339 38.505C161.138 39.0199 162.279 39.5349 163.706 39.8781C165.075 40.1642 166.388 40.1642 167.301 40.107C168.214 39.9926 168.784 39.8781 168.784 39.8781C168.784 39.8781 168.67 39.9354 168.385 40.0498C168.156 40.1642 167.757 40.2214 167.301 40.2786C166.388 40.4503 165.018 40.4503 163.592 40.1642C162.165 39.8209 160.967 39.2488 160.225 38.6767C159.826 38.3906 159.54 38.1617 159.369 37.9901C159.141 37.7612 159.084 37.6468 159.084 37.6468Z" fill="#455A64"/>
<path d="M164.448 42.9677C164.505 42.9105 165.475 43.311 166.73 43.4826C167.985 43.7115 169.012 43.6543 169.069 43.7115C169.069 43.7687 167.985 43.9976 166.73 43.7687C165.361 43.5971 164.391 43.0249 164.448 42.9677Z" fill="#455A64"/>
<path d="M180.025 77.3533L161.709 82.3881L141.966 96.6916L147.215 105.731L240.395 105.903C240.395 105.903 236.971 93.4304 235.887 89.597C234.232 83.8184 231.893 82.1592 229.839 80.0423C229.211 79.413 227.385 78.2687 226.529 78.097C222.82 77.296 205.816 73.4627 202.45 73.5199C202.45 73.5199 198.627 81.4727 190.581 81.3582C182.536 81.2438 180.025 77.3533 180.025 77.3533Z" fill="#455A64"/>
<path d="M217.799 92C217.856 92 218.027 91.2562 218.598 90.1119C219.111 88.9677 220.081 87.5373 221.451 86.1642C222.763 84.7911 224.19 83.704 225.16 82.9602C226.13 82.1592 226.758 81.7015 226.758 81.6443C226.758 81.5871 226.073 82.0448 225.046 82.7314C224.019 83.4751 222.592 84.505 221.223 85.9353C219.853 87.3085 218.883 88.8532 218.427 90.0547C218.198 90.6269 218.027 91.1418 217.97 91.4851C217.799 91.8284 217.799 92 217.799 92Z" fill="#263238"/>
<path d="M162.165 101.955C162.222 101.955 162.222 101.211 162.222 100.01C162.222 98.8085 162.165 97.1493 161.994 95.3184C161.88 93.4876 161.652 91.8284 161.481 90.6841C161.309 89.4826 161.195 88.796 161.138 88.796C161.081 88.796 161.138 89.5398 161.252 90.7413C161.366 92.0572 161.481 93.6592 161.652 95.3756C161.766 97.1493 161.88 98.7512 161.937 100.067C162.051 101.211 162.108 101.955 162.165 101.955Z" fill="#263238"/>
<g opacity="0.3">
<path d="M156.687 104.301C158.171 103.843 159.712 103.271 160.853 102.184C161.994 101.097 162.565 99.3234 161.88 97.8931C163.991 102.642 169.184 105.846 174.376 105.674L152.294 105.96C153.606 105.102 155.147 104.759 156.687 104.301Z" fill="black"/>
</g>
<path d="M260.936 105.903C260.936 105.903 258.711 102.871 257.57 102.299C256.486 101.726 254.945 101.726 254.26 102.356C253.576 102.928 253.576 102.928 253.576 102.928C253.576 102.928 250.095 101.383 248.44 102.585C248.44 102.585 245.131 101.04 243.533 102.813C243.533 102.813 240.965 101.154 239.881 102.585C238.797 104.015 238.911 106.475 239.425 107.734C239.938 108.993 240.908 113.284 241.707 113.398C241.707 113.398 243.761 113.627 243.99 112.54C244.275 111.453 244.389 110.881 244.389 110.881C244.389 110.881 245.188 114.771 246.101 115C247.014 115.172 248.84 115.114 248.897 113.398C248.897 113.398 249.753 114.714 250.609 114.313C251.464 113.913 252.492 113.341 252.435 112.254C252.32 111.224 252.32 110.137 252.32 110.137C252.32 110.137 252.777 111.682 253.576 111.338C254.317 110.995 255.116 111.052 255.573 109.794C256.029 108.478 257.056 106.017 257.056 106.017H260.936V105.903Z" fill="#FFBE9D"/>
<path d="M252.435 109.965C252.492 109.965 252.263 109.565 252.092 108.878C251.921 108.192 251.807 107.219 251.978 106.189C252.149 105.159 252.663 104.244 253.062 103.729C253.462 103.157 253.804 102.871 253.747 102.813C253.747 102.756 253.347 103.042 252.834 103.557C252.377 104.129 251.807 104.988 251.636 106.132C251.407 107.219 251.579 108.306 251.864 108.993C252.092 109.622 252.377 109.965 252.435 109.965Z" fill="#EB996E"/>
<path d="M248.269 102.527C248.212 102.527 248.041 103.1 247.813 104.072C247.641 105.045 247.47 106.418 247.584 107.906C247.699 109.393 247.984 110.766 248.326 111.682C248.669 112.597 248.954 113.169 248.954 113.169C249.068 113.112 248.098 110.881 247.927 107.906C247.699 104.93 248.383 102.585 248.269 102.527Z" fill="#EB996E"/>
<path d="M243.476 102.813C243.419 102.813 243.134 104.644 243.419 106.933C243.647 109.221 244.332 110.995 244.389 110.938C244.503 110.881 243.99 109.164 243.761 106.876C243.533 104.644 243.59 102.813 243.476 102.813Z" fill="#EB996E"/>
<path d="M229.839 103.672C229.953 103.328 230.352 103.042 230.695 102.985C231.55 102.756 232.52 103.1 233.205 103.672C233.89 104.244 234.575 105.159 235.031 105.96L230.124 105.903C230.181 105.159 229.553 104.415 229.839 103.672Z" fill="#FFBE9D"/>
<path d="M104.877 107.219C105.162 104.129 106.874 101.383 109.499 99.7811C111.553 98.5796 114.063 98.2935 116.346 99.0945L125.875 102.413C126.388 102.985 142.08 96.9204 142.08 96.9204L147.33 105.96L117.316 105.903C119.484 108.478 122.565 111.281 122.565 111.281L124.62 118.09L124.391 124.211C123.307 124.726 121.709 122.838 121.709 122.838L120.797 124.555L121.139 126.214C121.139 126.214 123.935 132.965 123.821 134.453C123.764 135.025 123.421 135.254 122.965 135.311C122.166 135.368 121.424 134.91 121.025 134.167L117.088 126.5C117.088 126.5 114.063 125.756 112.979 124.726C111.838 123.697 110.297 121.751 110.297 121.751L108.357 121.465C108.186 121.522 107.958 121.465 107.673 121.351C106.646 120.836 105.904 119.863 105.733 118.719L104.763 113.57C104.42 112.425 104.648 109.679 104.877 107.219Z" fill="#FFBE9D"/>
<path d="M113.835 120.607C113.778 120.607 114.178 122.095 115.09 123.811C116.003 125.47 117.031 126.614 117.088 126.557C117.145 126.5 116.232 125.299 115.376 123.639C114.406 121.98 113.892 120.55 113.835 120.607Z" fill="#EB996E"/>
<path d="M109.213 120.035C109.099 120.092 109.442 120.893 110.069 121.694C110.697 122.552 111.267 123.124 111.325 123.124C111.382 123.067 110.925 122.381 110.354 121.522C109.727 120.664 109.27 119.978 109.213 120.035Z" fill="#EB996E"/>
<path d="M121.709 127.759C121.766 127.759 121.538 127.015 121.196 125.871C120.854 124.726 120.397 123.124 119.941 121.351C119.712 120.435 119.541 119.634 119.37 118.833C119.199 118.09 119.085 117.346 119.142 116.774C119.256 115.572 119.941 115.057 119.884 115.057C119.884 115.057 119.712 115.114 119.484 115.401C119.256 115.687 119.028 116.144 118.913 116.774C118.799 117.403 118.913 118.147 119.028 118.891C119.199 119.692 119.37 120.55 119.598 121.408C120.055 123.182 120.511 124.784 120.911 125.928C121.367 127.072 121.652 127.759 121.709 127.759Z" fill="#EB996E"/>
<path d="M119.655 116.316C119.598 116.373 119.941 116.716 120.34 117.403C120.739 118.09 121.139 119.119 121.196 120.264C121.253 120.836 121.196 121.465 121.31 121.98C121.424 122.552 121.767 122.953 122.052 123.239C122.622 123.811 123.079 123.983 123.136 123.983C123.193 123.925 122.737 123.639 122.223 123.124C121.995 122.838 121.709 122.438 121.652 121.98C121.538 121.465 121.595 120.95 121.538 120.321C121.481 119.062 121.025 118.032 120.568 117.346C120.055 116.602 119.655 116.316 119.655 116.316Z" fill="#EB996E"/>
<path d="M117.43 105.96C117.487 105.903 116.346 104.988 115.262 103.557C114.12 102.184 113.436 100.925 113.322 100.983C113.322 100.983 113.436 101.326 113.721 101.841C114.006 102.356 114.463 103.042 115.033 103.729C116.118 105.216 117.373 106.017 117.43 105.96Z" fill="#EB996E"/>
<g opacity="0.3">
<path d="M216.144 105.903L216.487 97.2637L210.438 105.903H216.144Z" fill="black"/>
</g>
<path d="M216.144 105.903C216.087 105.903 216.144 103.614 216.258 100.811C216.43 98.0075 216.601 95.7189 216.715 95.7189C216.772 95.7189 216.715 98.0075 216.601 100.811C216.372 103.614 216.201 105.903 216.144 105.903Z" fill="#263238"/>
<path d="M214.261 75.8085C214.261 75.8085 214.375 75.9801 214.432 76.3806C214.49 76.7811 214.432 77.3532 214.033 77.9826C213.634 78.612 212.949 79.2413 211.922 79.5274C210.952 79.8134 209.754 79.8134 208.498 79.8134C207.871 79.8134 207.186 79.8134 206.501 79.9279C205.816 80.0423 205.132 80.2139 204.504 80.6144C203.876 81.0149 203.42 81.6443 203.077 82.3309C202.735 83.0174 202.507 83.8184 202.336 84.6766C202.165 85.4776 201.993 86.3358 201.708 87.194C201.423 88.0522 201.023 88.9105 200.453 89.6542C199.254 91.0846 197.429 92.1144 195.431 92.2861C193.434 92.4005 191.494 91.5995 190.125 90.398C189.44 89.7687 188.869 89.0249 188.47 88.2239C188.014 87.4801 187.557 86.7363 186.815 86.3358C186.131 85.9353 185.275 85.8781 184.476 85.9353C183.677 85.9925 182.935 86.1642 182.193 86.3358C181.452 86.5075 180.71 86.6219 180.025 86.6219C179.283 86.6791 178.656 86.5075 178.028 86.2786C176.773 85.8781 175.86 85.1343 175.175 84.3333C174.49 83.5896 174.091 82.7886 173.806 82.102C173.691 81.7587 173.634 81.4726 173.577 81.1866C173.52 80.9005 173.52 80.6717 173.52 80.5C173.52 80.3284 173.52 80.1567 173.52 80.0423C173.52 79.9279 173.52 79.8707 173.52 79.8707C173.577 79.8707 173.406 80.6717 173.92 82.0448C174.148 82.7314 174.604 83.4751 175.289 84.2189C175.974 84.9627 176.887 85.6493 178.085 86.0498C178.656 86.2214 179.34 86.393 180.025 86.3358C180.71 86.3358 181.395 86.1642 182.136 86.0498C182.878 85.8781 183.62 85.7065 184.419 85.6493C185.218 85.5921 186.131 85.6493 186.872 86.0498C187.671 86.5075 188.185 87.2513 188.641 88.0522C189.098 88.796 189.611 89.5398 190.296 90.1692C191.608 91.3707 193.491 92.1144 195.431 92C197.314 91.8856 199.083 90.9129 200.224 89.4826C201.423 88.1095 201.708 86.2786 202.05 84.6194C202.222 83.8184 202.45 82.9602 202.792 82.2164C203.135 81.4726 203.648 80.8433 204.333 80.3856C204.96 79.9279 205.702 79.7562 206.444 79.6418C207.129 79.5274 207.813 79.5274 208.441 79.5846C209.696 79.6418 210.895 79.6418 211.865 79.3557C212.835 79.0697 213.519 78.4975 213.919 77.9254C214.318 77.3532 214.375 76.7811 214.375 76.3806C214.318 75.9801 214.261 75.8085 214.261 75.8085Z" fill="white"/>
<path d="M186.53 105.274C186.53 105.274 186.473 105.159 186.416 104.873C186.359 104.587 186.245 104.187 186.131 103.729C185.845 102.756 185.446 101.326 184.419 99.7811C184.191 99.3806 183.848 99.0373 183.506 98.694C183.163 98.3508 182.707 98.0647 182.25 97.8358C181.338 97.3781 180.196 97.2065 178.998 97.2637C177.8 97.3209 176.602 97.607 175.289 97.893C174.034 98.1791 172.664 98.4652 171.238 98.408C169.868 98.3508 168.385 97.9503 167.415 96.9776C166.445 96.005 166.045 94.6891 165.931 93.4876C165.817 92.2861 165.931 91.0846 165.988 90.0547C166.102 88.9677 166.159 87.995 166.045 87.0796C165.931 85.2488 165.018 83.9328 164.276 83.3607C163.478 82.7313 162.85 82.6741 162.907 82.6741C162.907 82.6741 162.964 82.6741 163.021 82.6741C163.078 82.6741 163.192 82.6741 163.306 82.7314C163.592 82.7886 163.934 82.9602 164.334 83.2463C165.132 83.8756 166.102 85.1915 166.274 87.0796C166.388 87.995 166.331 89.0249 166.217 90.0547C166.159 91.1418 166.045 92.2861 166.159 93.4304C166.274 94.5746 166.673 95.8333 167.586 96.7488C168.499 97.6642 169.868 98.0647 171.181 98.0647C172.55 98.1219 173.863 97.8358 175.175 97.5498C176.43 97.2637 177.686 96.9776 178.941 96.9204C180.139 96.8632 181.338 97.0348 182.308 97.5498C182.821 97.7786 183.221 98.1219 183.563 98.4652C183.905 98.8085 184.248 99.209 184.476 99.6095C185.503 101.154 185.845 102.642 186.131 103.614C186.245 104.129 186.359 104.473 186.416 104.759C186.53 105.102 186.53 105.274 186.53 105.274Z" fill="white"/>
<path d="M216.829 97.9503C216.772 98.0075 215.916 97.3781 214.318 96.9776C213.519 96.806 212.549 96.6916 211.465 96.7488C210.381 96.8632 209.24 97.1493 208.099 97.7786C207.015 98.408 206.102 99.209 205.417 100.067C204.732 100.925 204.276 101.841 204.047 102.585C203.819 103.386 203.819 104.072 203.933 104.473C204.047 104.93 204.219 105.102 204.162 105.159C204.162 105.159 204.104 105.102 204.047 104.988C203.99 104.873 203.876 104.702 203.819 104.473C203.648 104.015 203.648 103.271 203.876 102.47C204.104 101.669 204.561 100.754 205.246 99.8383C205.93 98.9229 206.843 98.1219 207.985 97.4925C209.126 96.8632 210.324 96.5199 211.465 96.4627C212.606 96.4055 213.576 96.5199 214.375 96.7488C215.174 96.9776 215.802 97.2637 216.201 97.4925C216.429 97.607 216.544 97.7214 216.658 97.7786C216.772 97.893 216.829 97.9503 216.829 97.9503Z" fill="white"/>
<path d="M222.991 82.5025C222.934 82.5025 222.763 82.2736 222.649 81.8159C222.478 81.3582 222.421 80.6716 222.592 79.9279C222.763 79.1841 223.048 78.5547 223.391 78.2114C223.676 77.8109 223.961 77.6393 223.961 77.6965C224.019 77.7537 223.163 78.6119 222.877 80.0423C222.535 81.3582 223.048 82.5025 222.991 82.5025Z" fill="white"/>
<path d="M236.914 93.8881C236.914 93.8881 236.914 94.0025 236.857 94.1169C236.8 94.2886 236.743 94.5174 236.572 94.8035C236.286 95.3756 235.773 96.1766 234.917 96.9776C234.061 97.7214 232.806 98.4652 231.265 98.6368C229.724 98.8657 228.07 98.3508 226.415 97.9503C225.559 97.7214 224.76 97.607 223.961 97.5498C223.163 97.5498 222.421 97.6642 221.679 97.8931C220.31 98.3508 219.168 99.209 218.427 100.01C217.685 100.868 217.228 101.669 217 102.241C216.772 102.813 216.715 103.157 216.658 103.157C216.658 103.157 216.658 103.042 216.715 102.928C216.772 102.756 216.772 102.527 216.886 102.241C217.114 101.612 217.514 100.811 218.255 99.8956C218.997 99.0373 220.138 98.1791 221.565 97.6642C222.307 97.4353 223.106 97.2637 223.904 97.2637C224.76 97.2637 225.559 97.4353 226.415 97.6642C228.07 98.0647 229.667 98.5796 231.151 98.3508C232.635 98.1791 233.833 97.4926 234.689 96.806C235.545 96.0622 236.058 95.3184 236.344 94.7463C236.8 94.1742 236.914 93.8309 236.914 93.8881Z" fill="white"/>
<path d="M160.625 104.301C160.625 104.301 160.568 104.301 160.453 104.358C160.339 104.358 160.111 104.358 159.883 104.358C159.369 104.358 158.627 104.187 157.829 103.843C157.03 103.443 156.117 102.813 155.432 101.784C155.09 101.269 154.804 100.697 154.633 100.067C154.462 99.4379 154.405 98.7513 154.291 98.1219C154.12 96.806 153.891 95.4901 153.15 94.6319C152.408 93.7737 151.381 93.4304 150.525 93.2588C149.669 93.0871 148.927 93.0871 148.471 93.0299C147.957 93.0299 147.672 93.0299 147.672 92.9727C147.672 92.9727 147.957 92.9155 148.471 92.9155C148.984 92.9155 149.669 92.9155 150.582 93.0299C151.438 93.2015 152.579 93.4876 153.378 94.4602C153.777 94.918 154.063 95.4901 154.234 96.1195C154.405 96.7488 154.519 97.4354 154.576 98.0647C154.633 98.7513 154.747 99.3806 154.919 100.01C155.09 100.639 155.318 101.154 155.66 101.669C156.288 102.642 157.144 103.271 157.943 103.672C159.483 104.415 160.625 104.244 160.625 104.301Z" fill="white"/>
<path d="M184.248 201.622C185.674 204.197 185.902 206.714 185.902 206.714H188.984L201.822 206.485L201.708 206.714C201.708 206.714 203.819 196.816 204.162 193.898C204.504 191.495 205.988 185.659 204.162 183.085C203.477 182.169 202.279 181.769 201.194 182.112C200.567 182.284 199.939 182.741 199.711 183.714C199.711 183.714 199.54 180.281 197.086 180.224C194.633 180.167 194.518 182.112 194.518 182.112C194.518 182.112 193.834 178.221 191.095 178.221C191.095 178.221 189.44 178.279 188.812 180.109V178.908V172.786C188.812 171.299 187.671 169.983 186.131 169.925C184.59 169.868 183.278 171.127 183.278 172.672L183.049 189.893L178.884 184.515C177.8 183.142 175.175 183.828 174.89 185.03C174.89 185.03 174.148 186.575 175.689 188.92C177.001 190.637 184.248 201.622 184.248 201.622Z" fill="#EBEBEB"/>
<path d="M184.248 201.622C184.248 201.622 184.191 201.507 184.019 201.336C183.905 201.164 183.677 200.878 183.449 200.535C182.935 199.791 182.251 198.704 181.281 197.331C180.368 195.958 179.226 194.241 177.914 192.239C177.229 191.266 176.545 190.179 175.803 189.035C175.403 188.463 175.061 187.833 174.89 187.147C174.719 186.46 174.605 185.659 174.89 184.915C175.061 184.458 175.403 184.114 175.803 183.943C176.202 183.714 176.659 183.599 177.172 183.599C177.629 183.599 178.142 183.657 178.542 183.943C178.656 184 178.77 184.114 178.827 184.172C178.941 184.286 178.998 184.343 179.112 184.458C179.283 184.629 179.398 184.858 179.569 185.03C180.767 186.575 182.022 188.119 183.278 189.836L183.049 189.893C183.107 185.087 183.164 179.823 183.221 174.216C183.221 173.873 183.221 173.53 183.221 173.187C183.221 172.843 183.221 172.443 183.278 172.099C183.449 171.356 183.905 170.726 184.533 170.269C185.161 169.868 185.96 169.697 186.701 169.868C187.443 170.04 188.128 170.555 188.527 171.184C188.755 171.527 188.87 171.871 188.927 172.271C188.984 172.672 188.984 173.072 188.984 173.415C188.984 174.159 188.984 174.903 188.984 175.647C188.984 177.134 188.984 178.679 188.984 180.224L188.698 180.167C188.87 179.537 189.326 178.908 189.954 178.507C190.239 178.336 190.467 178.221 190.81 178.164C190.924 178.107 191.095 178.107 191.266 178.107C191.437 178.107 191.551 178.107 191.723 178.164C192.293 178.279 192.864 178.622 193.263 179.022C194.062 179.881 194.462 180.968 194.69 182.112H194.404C194.462 181.311 194.975 180.624 195.66 180.338C196.002 180.167 196.344 180.109 196.744 180.109C196.915 180.109 197.086 180.109 197.257 180.109L197.543 180.167L197.828 180.224C198.57 180.453 199.026 181.082 199.369 181.711C199.654 182.341 199.825 183.027 199.882 183.714H199.597C199.768 182.97 200.282 182.341 200.966 182.055C201.651 181.769 202.45 181.826 203.078 182.112C203.42 182.284 203.705 182.455 203.991 182.741C204.276 182.97 204.39 183.313 204.561 183.599C204.846 184.229 205.018 184.915 205.075 185.602C205.303 188.291 204.732 190.923 204.333 193.326C203.991 195.786 203.477 198.132 203.078 200.363C202.621 202.595 202.165 204.711 201.765 206.714L201.537 206.657C201.594 206.6 201.594 206.485 201.651 206.428L201.765 206.6C196.573 206.657 192.293 206.714 188.927 206.771L188.984 206.714V206.771H188.927C187.728 206.771 186.758 206.771 185.845 206.771H185.788V206.714C185.56 204.998 185.104 203.682 184.761 202.881C184.59 202.48 184.419 202.137 184.362 201.908C184.305 201.736 184.248 201.622 184.248 201.622C184.248 201.622 184.533 202.022 184.875 202.881C185.218 203.739 185.731 204.998 185.96 206.771L185.902 206.714C186.758 206.714 187.785 206.714 188.984 206.714L188.927 206.771V206.714H188.984C192.35 206.657 196.687 206.542 201.822 206.428H201.993L201.936 206.6C201.879 206.657 201.879 206.771 201.822 206.828L201.594 206.771C201.993 204.769 202.45 202.652 202.906 200.42C203.363 198.189 203.819 195.843 204.162 193.383C204.561 190.923 205.132 188.348 204.846 185.716C204.789 185.087 204.618 184.4 204.333 183.828C204.162 183.542 204.048 183.256 203.762 183.027C203.534 182.799 203.249 182.627 202.963 182.455C202.393 182.169 201.651 182.169 201.023 182.398C200.396 182.627 199.939 183.199 199.825 183.828L199.597 184.801L199.54 183.771C199.483 183.142 199.312 182.455 199.083 181.883C198.798 181.311 198.342 180.739 197.714 180.567C197.086 180.396 196.402 180.453 195.774 180.682C195.146 180.91 194.747 181.54 194.69 182.169L194.576 183.142L194.347 182.169C194.119 181.139 193.72 180.052 192.978 179.251C192.236 178.45 191.038 178.107 190.125 178.736C189.554 179.08 189.155 179.652 188.984 180.224L188.698 181.139V180.167C188.698 178.622 188.698 177.077 188.698 175.59C188.698 174.846 188.698 174.102 188.698 173.358C188.698 172.958 188.698 172.614 188.641 172.271C188.584 171.928 188.47 171.585 188.242 171.299C187.9 170.726 187.272 170.269 186.587 170.097C185.902 169.925 185.161 170.097 184.59 170.44C184.019 170.784 183.62 171.413 183.449 172.042C183.392 172.386 183.392 172.729 183.392 173.072C183.392 173.415 183.392 173.759 183.392 174.102C183.335 179.709 183.221 184.973 183.164 189.779V190.122V189.95C181.851 188.291 180.653 186.689 179.455 185.144C179.169 184.744 178.884 184.343 178.542 184.114C178.142 183.886 177.686 183.828 177.286 183.828C176.83 183.828 176.43 183.943 176.031 184.172C175.632 184.343 175.346 184.687 175.232 185.03C175.004 185.716 175.004 186.46 175.232 187.147C175.403 187.833 175.746 188.405 176.145 188.978C176.887 190.122 177.572 191.152 178.256 192.182C179.569 194.184 180.653 195.9 181.623 197.274C182.536 198.647 183.221 199.734 183.734 200.478C183.962 200.821 184.134 201.107 184.248 201.336C184.248 201.565 184.248 201.622 184.248 201.622Z" fill="#263238"/>
<path d="M202.05 211.177H185.959C184.761 211.177 183.734 210.204 183.734 208.945V208.774C183.734 207.572 184.704 206.542 185.959 206.542H202.05C203.249 206.542 204.276 207.515 204.276 208.774V208.945C204.219 210.147 203.249 211.177 202.05 211.177Z" fill="#EBEBEB"/>
<path d="M202.05 211.177C202.05 211.177 202.222 211.177 202.507 211.119C202.792 211.062 203.249 210.891 203.648 210.433C203.819 210.204 203.99 209.918 204.105 209.632C204.219 209.289 204.219 208.888 204.162 208.488C204.047 207.687 203.363 206.828 202.336 206.714C198.113 206.714 192.35 206.714 185.959 206.714C185.218 206.714 184.476 207.172 184.133 207.801C183.962 208.144 183.848 208.488 183.905 208.831C183.905 209.231 183.962 209.575 184.133 209.861C184.476 210.49 185.103 210.948 185.788 211.005C186.473 211.005 187.215 211.005 187.899 211.005C190.695 211.005 193.149 211.005 195.26 211.062C197.314 211.062 199.026 211.119 200.224 211.119C200.795 211.119 201.252 211.119 201.594 211.119C201.879 211.119 202.05 211.177 202.05 211.177C202.05 211.177 201.879 211.177 201.594 211.234C201.252 211.234 200.795 211.234 200.224 211.234C199.026 211.234 197.314 211.234 195.26 211.291C193.149 211.291 190.638 211.291 187.899 211.348C187.215 211.348 186.53 211.348 185.731 211.348C184.932 211.291 184.191 210.776 183.848 210.09C183.677 209.746 183.563 209.289 183.563 208.888C183.563 208.488 183.677 208.087 183.848 207.687C184.248 206.943 185.046 206.428 185.902 206.428C192.293 206.428 198.113 206.428 202.336 206.485C203.477 206.657 204.162 207.572 204.276 208.43C204.333 208.888 204.276 209.289 204.162 209.632C204.047 209.975 203.876 210.261 203.648 210.49C203.249 210.948 202.735 211.062 202.45 211.119C202.164 211.177 202.05 211.177 202.05 211.177Z" fill="#263238"/>
<path d="M188.869 186.517C188.812 186.517 188.698 185.03 188.698 183.199C188.698 181.368 188.755 179.881 188.869 179.881C188.926 179.881 189.041 181.368 189.041 183.199C188.984 185.03 188.926 186.517 188.869 186.517Z" fill="#263238"/>
<path d="M194.575 186.06C194.518 186.06 194.404 185.144 194.404 184.057C194.404 182.97 194.461 182.055 194.575 182.055C194.633 182.055 194.747 182.97 194.747 184.057C194.747 185.144 194.69 186.06 194.575 186.06Z" fill="#263238"/>
<path d="M199.825 187.719C199.768 187.719 199.654 186.803 199.654 185.716C199.654 184.629 199.711 183.714 199.825 183.714C199.939 183.714 199.996 184.629 199.996 185.716C199.939 186.861 199.882 187.719 199.825 187.719Z" fill="#263238"/>
<path d="M182.308 169.639C182.25 169.697 180.881 169.067 179.169 168.209C177.457 167.351 176.145 166.55 176.145 166.493C176.202 166.435 177.572 167.065 179.283 167.923C180.995 168.781 182.308 169.582 182.308 169.639Z" fill="#263238"/>
<path d="M185.104 168.095C185.046 168.095 184.647 166.149 184.248 163.746C183.848 161.343 183.62 159.341 183.734 159.341C183.791 159.341 184.191 161.286 184.59 163.689C184.932 166.092 185.161 168.037 185.104 168.095Z" fill="#263238"/>
<path d="M188.527 168.495C188.47 168.438 189.326 167.065 190.467 165.463C191.608 163.861 192.578 162.545 192.635 162.602C192.693 162.659 191.837 164.032 190.695 165.634C189.611 167.236 188.584 168.495 188.527 168.495Z" fill="#263238"/>
<path d="M202.148 137.652L201.172 141.266H182.812L183.809 137.652H202.148ZM193.008 159L183.379 147.633L183.359 144.508H188.008C189.141 144.508 190.072 144.299 190.801 143.883C191.543 143.453 192.096 142.874 192.461 142.145C192.839 141.415 193.027 140.595 193.027 139.684C193.027 138.733 192.858 137.893 192.52 137.164C192.181 136.422 191.641 135.842 190.898 135.426C190.156 135.009 189.173 134.801 187.949 134.801H182.832L183.945 130.562H187.949C190.267 130.562 192.194 130.914 193.73 131.617C195.28 132.307 196.439 133.316 197.207 134.645C197.988 135.96 198.379 137.548 198.379 139.41C198.379 141.038 198.105 142.477 197.559 143.727C197.025 144.964 196.159 145.973 194.961 146.754C193.763 147.535 192.188 148.056 190.234 148.316L198.965 158.727V159H193.008ZM202.168 130.562L201.172 134.176H186.074L187.07 130.562H202.168Z" fill="white"/>
</g>
<defs>
<clipPath id="clip0_1_2755">
<rect width="375" height="230" fill="white"/>
</clipPath>
</defs>
</svg>
