<svg width="56" height="56" viewBox="0 0 56 56" fill="none" xmlns="http://www.w3.org/2000/svg">
<path d="M28 0C12.5375 0 0 12.5375 0 28C0 43.4625 12.5375 56 28 56C43.4625 56 56 43.4625 56 28C56 12.5375 43.4625 0 28 0ZM37.0062 28.4313L23.3563 38.3625C23.2814 38.4163 23.1932 38.4484 23.1013 38.4553C23.0094 38.4622 22.9174 38.4436 22.8354 38.4016C22.7533 38.3597 22.6845 38.2959 22.6363 38.2173C22.5882 38.1387 22.5626 38.0484 22.5625 37.9562V18.1063C22.5622 18.0139 22.5875 17.9233 22.6355 17.8444C22.6836 17.7656 22.7525 17.7016 22.8347 17.6595C22.9169 17.6175 23.0091 17.599 23.1012 17.6061C23.1932 17.6133 23.2815 17.6458 23.3563 17.7L37.0062 27.625C37.0707 27.6706 37.1233 27.731 37.1596 27.8012C37.196 27.8713 37.2149 27.9491 37.2149 28.0281C37.2149 28.1071 37.196 28.1849 37.1596 28.2551C37.1233 28.3252 37.0707 28.3856 37.0062 28.4313Z" fill="white"/>
</svg>
